<?xml version="1.0" encoding="utf-8"?>
<!-- Generator: Adobe Illustrator 22.0.0, SVG Export Plug-In . SVG Version: 6.00 Build 0)  -->
<svg version="1.1" id="Layer_1" xmlns="http://www.w3.org/2000/svg" xmlns:xlink="http://www.w3.org/1999/xlink" x="0px" y="0px"
	 viewBox="0 0 128 128" style="enable-background:new 0 0 128 128;" xml:space="preserve">
<path id="Facebook" d="M68.3,127.2H7.5c-3.9,0-7-3.1-7-7V7.8c0-3.9,3.1-7,7-7h112.9c3.9,0,7,3.1,7,7v112.4c0,3.9-3.1,7-7,7H88.1
	V78.2h16.5l2.5-19.1h-19V47c0-5.5,1.5-9.3,9.5-9.3l10.1,0V20.7c-1.8-0.2-7.8-0.8-14.8-0.8c-14.6,0-24.6,8.9-24.6,25.2v14.1H51.8
	v19.1h16.5V127.2L68.3,127.2z"/>
</svg>
