<?xml version="1.0" encoding="utf-8"?>
<!-- Generator: Adobe Illustrator 22.0.0, SVG Export Plug-In . SVG Version: 6.00 Build 0)  -->
<svg version="1.1" id="Layer_1" xmlns="http://www.w3.org/2000/svg" xmlns:xlink="http://www.w3.org/1999/xlink" x="0px" y="0px"
	 viewBox="0 0 128 128" style="enable-background:new 0 0 128 128;" xml:space="preserve">
<path id="Instagram" d="M64,0.8c-17.2,0-19.4,0.1-26.2,0.4c-6.8,0.3-11.4,1.4-15.4,2.9c-4.2,1.6-7.7,3.8-11.2,7.3
	c-3.5,3.5-5.7,7-7.3,11.2c-1.6,4-2.6,8.6-3,15.3C0.6,44.7,0.5,46.8,0.5,64c0,17.2,0.1,19.3,0.4,26.1c0.3,6.7,1.4,11.3,3,15.3
	c1.6,4.2,3.8,7.7,7.3,11.2c3.5,3.5,7.1,5.7,11.2,7.3c4,1.6,8.7,2.6,15.4,2.9c6.8,0.3,8.9,0.4,26.2,0.4c17.2,0,19.4-0.1,26.2-0.4
	c6.8-0.3,11.4-1.4,15.4-2.9c4.2-1.6,7.7-3.8,11.2-7.3c3.5-3.5,5.7-7,7.3-11.2c1.6-4,2.6-8.6,3-15.3c0.3-6.7,0.4-8.9,0.4-26.1
	c0-17.2-0.1-19.3-0.4-26.1c-0.3-6.7-1.4-11.3-3-15.3c-1.6-4.2-3.8-7.7-7.3-11.2c-3.5-3.5-7.1-5.7-11.2-7.3c-4-1.6-8.7-2.6-15.4-2.9
	C83.4,0.8,81.2,0.8,64,0.8z M64,12.2c17,0,19,0.1,25.7,0.4c6.2,0.3,9.6,1.3,11.8,2.2c3,1.1,5.1,2.5,7.3,4.7c2.2,2.2,3.6,4.3,4.8,7.3
	c0.9,2.2,1.9,5.6,2.2,11.7c0.3,6.7,0.4,8.7,0.4,25.6c0,16.9-0.1,18.9-0.4,25.6c-0.3,6.2-1.3,9.5-2.2,11.7c-1.2,3-2.5,5.1-4.8,7.3
	c-2.2,2.2-4.3,3.6-7.3,4.7c-2.2,0.9-5.6,1.9-11.8,2.2c-6.7,0.3-8.7,0.4-25.7,0.4c-17,0-19-0.1-25.7-0.4c-6.2-0.3-9.6-1.3-11.8-2.2
	c-3-1.1-5.1-2.5-7.3-4.7c-2.2-2.2-3.6-4.3-4.8-7.3c-0.9-2.2-1.9-5.6-2.2-11.7c-0.3-6.7-0.4-8.7-0.4-25.6c0-16.9,0.1-18.9,0.4-25.6
	c0.3-6.2,1.3-9.5,2.2-11.7c1.2-3,2.5-5.1,4.8-7.3c2.2-2.2,4.3-3.6,7.3-4.7c2.2-0.9,5.6-1.9,11.8-2.2C45,12.2,47,12.2,64,12.2z
	 M64,31.5c-18,0-32.6,14.5-32.6,32.5C31.4,81.9,46,96.5,64,96.5c18,0,32.6-14.5,32.6-32.5C96.6,46.1,82,31.5,64,31.5z M64,85.1
	c-11.7,0-21.2-9.4-21.2-21.1c0-11.6,9.5-21.1,21.2-21.1c11.7,0,21.2,9.4,21.2,21.1C85.2,75.6,75.7,85.1,64,85.1z M105.5,30.2
	c0,4.2-3.4,7.6-7.6,7.6c-4.2,0-7.6-3.4-7.6-7.6s3.4-7.6,7.6-7.6C102.1,22.7,105.5,26.1,105.5,30.2z"/>
</svg>
