<?xml version="1.0" encoding="utf-8"?>
<!-- Generator: Adobe Illustrator 22.0.1, SVG Export Plug-In . SVG Version: 6.00 Build 0)  -->
<svg version="1.1" id="Layer_1" xmlns="http://www.w3.org/2000/svg" xmlns:xlink="http://www.w3.org/1999/xlink" x="0px" y="0px"
	 viewBox="0 0 512 512" style="enable-background:new 0 0 512 512;" xml:space="preserve">
<style type="text/css">
	.st0{fill:#FFFFFF;}
</style>
<g>
	<path class="st0" d="M475,168.3c-0.1-1.3-0.3-2.6-0.5-3.9l-0.1-0.5l-0.3-2.1c0-0.4-0.1-0.8-0.2-1.2c-0.1-0.3-0.1-0.6-0.2-1.1
		l-0.8-4.4l-1-4.3c-2.8-11.3-7.3-22.5-13.4-33.2c-3.2-5.5-6.6-10.5-10.1-14.9c-3.6-4.5-7.7-8.8-12.4-13.3
		c-4.1-3.8-8.8-7.4-14.5-11.2c-5.1-3.4-10.6-6.3-16.1-8.7c-11.2-4.9-23.2-7.8-35.7-8.5c-0.3,0-0.6,0-0.9,0l-0.6,0l-2.1-0.1l0.9,1.9
		c3,6.3,5.5,12.7,7.5,19.3l0.2,0.7l1,0.2c1.2,0.1,2.4,0.4,3.6,0.7l1.8,0.3c0.3,0.1,1.8,0.4,1.8,0.4c0.6,0.2,1.2,0.3,1.8,0.5
		c0.6,0.1,1.2,0.3,1.8,0.5l3.5,1.1l1.3,0.5c2,0.7,3.8,1.4,5.7,2.3c5.2,2.3,9.4,4.5,13.2,6.9c4.7,3,8.6,5.9,12.1,8.9
		c3.5,3.1,7,6.6,10.7,10.7c3.4,4,6.5,8.1,9.1,12.2c5.4,8.4,9.7,17.8,12.8,27.8l1.1,3.7l0.9,3.8c0.1,0.7,0.3,1.3,0.4,1.8l0.4,1.9
		c0.1,0.7,0.2,1.3,0.4,2c0.1,0.6,0.2,1.2,0.4,1.9c0.9,5.5,1.2,11.2,1.4,15.5c0.2,6.9-0.4,14.2-1.9,21.7c-1.2,6.6-3.2,13.7-5.9,21.5
		c-4.7,13.5-11.4,27.2-20,40.7c-4,6.3-8.3,12.3-13.3,18.6c-5.1,6.3-10.1,11.9-15.4,16.9c-6.2,5.8-12,10.5-17.8,14.1
		c-3.5,2.2-6.8,3.9-9.9,5.2c-1.8,0.8-3.6,1.4-5.2,1.8c-2,0.6-3.8,0.9-5.3,1.1l-1.9,0.1l-0.3,1.9c-0.1,0.4-0.1,0.8-0.2,1.3
		c-0.4-0.1-0.9-0.2-1.3-0.2c0,0,0,0,0,0c0-0.2,0-0.4,0.1-0.7l0.1-2.3l-2.5-0.4c-4.8-0.8-9.7-2.6-14.7-5.3c-4.6-2.4-9-5.3-13.5-8.9
		c-3.9-3.1-7.9-6.6-12-10.7l-2.8-2.8l-4.1-4.5l-4-4.6c-5.3-6.5-10.3-13.3-14.7-20.2l-0.6-1l-1,0.6c-0.8,0.4-1.5,0.9-2.3,1.3
		c-1.9,1-3.7,1.9-5.7,2.8l-1.4,0.6l0.9,1.2c5.3,7.5,11.2,14.6,17.3,21.2c8.6,9.1,17,16.5,25.8,22.5c5.6,3.8,10.4,6.5,15.1,8.6
		c4.2,1.8,8.2,3.1,11.9,3.9c-0.2,0.1-0.3,0.2-0.5,0.3c-0.6,0.4-1,1.1-1.3,1.6c-0.4,0.8-0.5,1.6-0.4,2.4c0.1,1.5,0.7,2.3,1.2,2.9
		c0,0,0.4,0.5,0.6,0.7c-0.1,0.4-0.1,0.7-0.1,1v0.6l0,0.3l0.1,0.2c0,0.1,0.1,0.3,0.1,0.5c0.1,0.3,0.2,0.5,0.4,0.7l0.1,0.2l0.1,0.1
		l0,0.2l0.4,0.4c0.1,0.1,0.2,0.2,0.3,0.3l0.1,0.1l0.3,0.2c0.2,0.2,0.5,0.4,0.7,0.5c0.7,0.5,1.4,0.7,2.1,0.9c0,1.4,0.2,2.7,0.4,4
		c0.3,1.7,0.8,3.5,1.4,5.4c0,0,0,0,0,0c-0.3,0.2-0.6,0.4-0.8,0.5c-2.5,1.6-5.2,3.3-7.7,5.2c-3,2.3-5.2,4.5-7,7
		c-2.1,2.9-3.6,6.1-4.3,9.5c-0.7,3.1-0.9,6.4-0.6,10.3l0.2,1.3l0.2,1.4c0.2,0.9,0.5,1.8,0.8,2.7c0.6,1.6,1.4,3.2,2.4,4.8
		c1.9,2.9,4.1,5.2,6.2,7.5c0.5,0.6,1.1,1.1,1.6,1.7c-0.3,2.8-0.2,5.6-0.2,8c0.1,3.5,0.5,7.1,1,11c0.9,6.7,2.1,13.4,3.3,19.9
		c1.3,7.3,2.7,14.9,3.6,22.3c0.5,3.8,0.8,7.2,1,10.4l0.2,5.2l0.4,27.9h6.1l0.3-22.6c0-0.9,0-1.8,0-2.6c0-0.9,0-1.8,0-2.7
		c0-1.9-0.1-3.8-0.1-5.5c-0.1-3.6-0.5-7.3-0.9-10.9c-0.8-7.2-2-14.4-3.1-21.4c-1.2-6.9-2.4-13.9-3.4-20.9c-0.3-2.7-0.7-6.1-0.8-9.5
		c0.9,1.2,1.7,2.4,2.5,3.6c0.8,1.2,1.6,2.3,2.4,3.4c0.9,1.2,1.8,2.5,2.6,3.7c1.5,2.3,3,4.8,4.2,7.4c1.1,2.5,2.1,5.1,3.1,8.2l2.4-0.2
		c0.6-6-0.7-12.5-3.9-18.8c-1.5-3-3.2-5.7-5.3-8c-1.1-1.4-2.4-2.7-3.6-4c-0.9-0.9-1.8-1.9-2.6-2.9c-0.3-0.4-0.6-0.7-1-1.1
		c-0.2-0.2-0.4-0.5-0.6-0.7c0-0.1,0-0.3,0.1-0.4c0.1-0.3,0.1-0.7,0.1-1c0.3-1.7,0.7-3.1,1.3-4.4c0.3-0.7,0.6-1.3,0.9-1.7l0.1-0.1
		c0.2-0.3,0.4-0.6,0.6-0.8l0.7-0.9c2.6-3.3,4.7-6.5,6.1-9.9c1.6-3.6,2.6-7.6,2.9-11.6c0.2-3.6-0.2-7.5-1.3-11.7
		c-0.8-3-1.7-5.7-2.7-8.3c0.1,0,0.2-0.1,0.2-0.1c0.4-0.2,0.8-0.4,1.3-0.6c1.4-0.6,3-1.4,4.6-2.7c0.9-0.8,1.5-1.5,2.1-2.2
		c0.7-0.9,1.2-2.1,1.4-3.3c0.5-2.4,0.2-4.7-0.9-6.8c-1-2.1-2.3-3.8-4.1-5.2c-1.2-0.9-2.4-1.6-3.8-2.3c0-0.1,0-0.1,0-0.2
		c1.4-0.1,2.8-0.3,4.1-0.6l0.4-0.1c1.9-0.4,3.8-0.8,5.6-1.5c3.6-1.2,7.3-2.7,11.2-4.8c6.8-3.6,13.3-8,20-13.6
		c11.6-9.7,22.5-21.6,32.5-35.4c4.9-6.7,9.2-13.6,13-20.3c4.3-7.8,7.8-15,10.6-21.9c3.2-7.7,5.7-15.5,7.6-23.4
		c2-8.5,3.1-16.9,3.4-24.9C475.9,179.6,475.7,173.8,475,168.3z M355.5,392.1l-0.2,0.3c-0.2,0.3-0.4,0.6-0.7,0.9l-0.9,1.4
		c-0.4,0.7-1,1.8-1.4,2.9c-0.1,0.2-0.2,0.5-0.3,0.7c-0.8-1.4-1.6-2.9-2.3-4.4c-0.4-1.1-0.9-2.3-1.2-3.6l-0.1-0.3
		c-0.1-0.5-0.2-0.9-0.3-1.3l0-0.1c0-0.1,0-0.2,0-0.3c0-0.2,0-0.4-0.1-0.5l-0.1-0.8c-0.2-2.9-0.3-5.5-0.1-8c0.2-3.1,0.7-5.5,1.5-7.7
		c1-2.7,2.4-5.1,4.2-7c1.7-2,3.9-3.8,6.5-5.4c0,0,0.1-0.1,0.1-0.1c0.8,2.3,1.5,4.6,2,6.9c0.8,3.3,1.1,6.4,0.9,9.4c-0.2,3-1,6-2.3,9
		C359.5,386.6,357.8,389.3,355.5,392.1z M358,340.6l0.1-0.1l0-0.1c0,0,0.1-0.1,0.1-0.2c0.1-0.1,0.1-0.2,0.1-0.2c0,0,0,0,0,0l0.4-0.6
		c0.3-0.4,0.5-0.8,0.7-1.2c0.2,0,0.3,0.1,0.5,0.1c1.4,0.3,2.6,0.6,3.6,1.1c0,0,0.8,2.3,0.9,2.6c-1.4-0.1-3-0.3-4.6-0.7l-0.2-0.1
		C359,341,358.4,340.9,358,340.6L358,340.6z M364.8,350.8c-0.4-1.3-0.7-2.6-0.9-3.7c0.1,0,0.4,0,0.4,0h0.4l0.1,0c0.1,0,0.2,0,0.3,0
		c0.3,0,0.6-0.1,0.9-0.2l0.4-0.1l0.6-0.2c0.1,0,0.2-0.1,0.3-0.1c0.2-0.1,0.4-0.2,0.5-0.3c0.1-0.1,0.2-0.2,0.3-0.2l0.1,0l0.1-0.1
		c0.2-0.2,0.3-0.3,0.4-0.5c0,0.7-0.3,1.4-0.9,2.3c-0.6,1-1.6,1.9-2.7,3C365.1,350.6,365,350.7,364.8,350.8z"/>
	<path class="st0" d="M228.1,274.2c-2.8-1.2-5.5-2.6-8.4-4.3l-1.1-0.7l-0.6,1.2c-3.1,6.1-6.6,12.3-10.3,18.2
		c-4,6.2-8.3,12.3-13.3,18.6c-5.1,6.3-10.1,11.9-15.4,16.9c-6.2,5.8-12,10.5-17.8,14.1c-3.5,2.2-6.8,3.9-9.9,5.2
		c-1.8,0.8-3.6,1.4-5.2,1.8c-2.1,0.6-3.8,0.9-5.3,1.1l-1.9,0.1l-0.3,1.9c-0.1,0.4-0.1,0.8-0.2,1.3c-0.4-0.1-0.9-0.2-1.3-0.2
		c0,0,0,0,0,0c0-0.2,0-0.4,0.1-0.7l0.1-2.3l-2.5-0.4c-4.8-0.8-9.7-2.6-14.7-5.3c-4.6-2.4-9-5.3-13.5-8.9c-3.9-3.1-7.9-6.6-12-10.7
		l-2.8-2.8l-4.1-4.5l-4-4.6c-7-8.5-13.3-17.5-18.7-26.6c-5.8-9.7-10.6-19.4-14.3-28.9l-1.4-3.7l-1.3-3.9c-0.7-1.8-1.2-3.6-1.8-5.4
		c-0.2-0.7-0.4-1.5-0.7-2.1c-1.7-6.2-2.8-10.9-3.5-15.4l-0.4-2c-0.1-0.3-0.1-0.7-0.1-1.1c0-0.2,0-0.5-0.1-0.7l-0.4-3.9l-0.3-3.9
		c0-0.3-0.1-0.6-0.1-0.9c0-0.3,0-0.6-0.1-1v-1.9c0-0.4,0-0.9,0-1.3c0-0.9,0-1.7,0-2.5l0.1-3.9l0.1-2l0.2-1.9c0-0.4,0.1-0.9,0.1-1.3
		c0.1-0.9,0.2-1.7,0.3-2.6l0.5-3.8l0.7-3.9c0.1-0.3,0.1-0.7,0.2-1c0.1-0.3,0.1-0.6,0.2-0.9l0.4-1.9c0.2-1.1,0.5-2.4,0.9-3.8
		c1.2-4.5,2.8-9.3,4.9-14.6c1.8-4.5,4.1-9,6.9-13.7l2-3.3l2.2-3.2c0.4-0.7,0.9-1.3,1.4-1.9c0.3-0.4,0.6-0.8,0.8-1.1
		c0.3-0.3,0.5-0.7,0.8-1.1c0.5-0.7,1-1.3,1.6-2c2.7-3.4,6-7,10.4-11.1c1.8-1.7,3.6-3.2,5.5-4.8l0.2-0.2l3-2.3l0.7-0.5l0.8-0.5
		l3.1-2.1l3.3-2l0.7-0.5l0.8-0.4l3.2-1.6l3.4-1.6c4.6-2.1,9.4-3.8,14-5.1c5.3-1.3,10.1-2.2,14.7-2.6l4.2-0.3l0.2-1
		c1-6.2,2.5-12.3,4.4-18.3l0.5-1.7l-1.7,0c-3.3,0.1-6.6,0.3-9.8,0.7c-6,0.7-12,1.9-18,3.7c-5.7,1.7-11.5,4-17.1,6.6l-4.1,2.1
		l-4.9,2.8l-1,0.6L78,98.3l-3.6,2.6l-1,0.7l-0.8,0.7l-3.6,2.8l-1.1,0.9c-1.9,1.6-3.8,3.3-5.6,5.1c-4.7,4.6-8.6,9.1-11.9,13.6
		c-14.1,18.8-23,42.2-25,65.9c-0.1,1.4-0.2,2.8-0.3,4.4l-0.2,3.3v5.5c0,0.7,0,1.5,0.1,2.3c0,0.7,0.1,1.4,0.1,2.2l0.1,2.3l0.2,2.2
		l0.5,4.5l0.7,4.4c0.1,0.3,0.1,0.7,0.2,1c0.1,0.4,0.1,0.8,0.2,1.1l0.4,2.2c1,5.2,2.5,10.7,4.6,16.9l1.4,4l0.1,0.4
		c0.2,0.5,0.4,1.2,0.6,1.7l0.8,2l1.6,4l1.7,3.9c9.5,20.8,22.2,39.9,37.8,56.7c8.6,9.1,17,16.5,25.8,22.5c5.6,3.8,10.4,6.5,15.1,8.6
		c4.2,1.8,8.2,3.1,12,3.9c-0.2,0.1-0.3,0.2-0.5,0.3c-0.6,0.4-1,1.1-1.3,1.6c-0.4,0.8-0.5,1.6-0.4,2.4c0.1,1.5,0.7,2.3,1.2,2.9
		c0,0,0.4,0.5,0.6,0.7c-0.1,0.4-0.1,0.7-0.1,1v0.6l0,0.3l0.1,0.2c0,0.1,0.1,0.3,0.1,0.5c0.1,0.3,0.2,0.5,0.4,0.7l0.1,0.2l0.1,0.1
		l0,0.2l0.4,0.4c0.1,0.1,0.2,0.2,0.3,0.4l0.1,0.1l0.3,0.2c0.2,0.2,0.5,0.4,0.7,0.5c0.7,0.5,1.4,0.7,2.1,0.9c0,1.4,0.2,2.7,0.4,4
		c0.3,1.7,0.8,3.5,1.4,5.4c0,0,0,0,0,0c-0.3,0.2-0.6,0.4-0.8,0.5c-2.5,1.6-5.2,3.3-7.7,5.2c-3,2.3-5.2,4.5-7,7
		c-2.1,2.9-3.6,6.1-4.3,9.5c-0.7,3.1-0.9,6.4-0.6,10.3l0.2,1.3l0.2,1.4c0.2,0.9,0.5,1.8,0.8,2.7c0.6,1.6,1.4,3.2,2.4,4.8
		c1.9,2.9,4,5.2,6.2,7.5c0.5,0.6,1.1,1.1,1.6,1.7c-0.3,2.8-0.2,5.6-0.2,8c0.1,3.5,0.5,7.1,1,11c0.9,6.7,2.1,13.4,3.3,19.9
		c1.3,7.3,2.7,14.9,3.6,22.3c0.5,3.8,0.8,7.3,1,10.4l0.2,5.2l0.1,5.5l0.4,3.9h5.8l0.4-3.9l0-0.1c0-0.9,0-1.8,0-2.6
		c0-0.9,0-1.8,0-2.7c0-1.8-0.1-3.7-0.1-5.5c-0.1-3.6-0.5-7.3-0.9-10.9c-0.8-7.2-2-14.4-3.1-21.4c-1.2-6.9-2.4-14-3.4-20.9
		c-0.3-2.7-0.7-6.1-0.8-9.5c0.9,1.2,1.7,2.4,2.5,3.6c0.8,1.2,1.6,2.3,2.4,3.4c0.9,1.2,1.8,2.5,2.6,3.7c1.6,2.3,3,4.8,4.2,7.4
		c1.1,2.4,2.1,5.1,3.1,8.2l2.4-0.2c0.6-6-0.7-12.5-3.9-18.8c-1.5-3-3.2-5.7-5.3-8c-1.1-1.4-2.4-2.7-3.6-4c-0.9-0.9-1.8-1.9-2.6-2.9
		c-0.3-0.4-0.6-0.7-1-1.1c-0.2-0.2-0.4-0.5-0.6-0.7c0-0.1,0-0.3,0.1-0.4c0.1-0.3,0.1-0.7,0.1-1c0.3-1.6,0.7-3.1,1.3-4.4
		c0.3-0.7,0.6-1.3,0.9-1.7l0.1-0.1c0.2-0.3,0.4-0.6,0.6-0.8l0.7-0.9c2.6-3.3,4.7-6.5,6.2-9.9c1.6-3.6,2.6-7.6,2.9-11.6
		c0.2-3.6-0.2-7.5-1.3-11.7c-0.8-2.9-1.7-5.7-2.7-8.3c0.1,0,0.2-0.1,0.2-0.1c0.4-0.2,0.8-0.4,1.3-0.6c1.4-0.6,3-1.4,4.6-2.7
		c0.9-0.8,1.5-1.5,2.1-2.2c0.7-0.9,1.2-2.1,1.4-3.3c0.5-2.4,0.2-4.7-0.9-6.8c-1-2.1-2.3-3.8-4.1-5.2c-1.2-0.9-2.4-1.6-3.8-2.3
		c0-0.1,0-0.1,0-0.2c1.4-0.1,2.8-0.3,4.1-0.6l0.4-0.1c1.9-0.4,3.8-0.8,5.6-1.5c3.6-1.2,7.3-2.7,11.2-4.8c6.8-3.6,13.3-8,20-13.6
		c11.6-9.7,22.5-21.6,32.5-35.4c4.4-6.1,8.5-12.5,12.1-18.9l0.7-1.2l-1.3-0.5L228.1,274.2z M131.1,410.7l-0.2,0.3
		c-0.2,0.3-0.4,0.6-0.7,0.9l-0.9,1.4c-0.4,0.7-1,1.8-1.4,2.9c-0.1,0.2-0.2,0.5-0.3,0.7c-0.8-1.4-1.6-2.9-2.3-4.4
		c-0.4-1.1-0.9-2.3-1.2-3.6l-0.1-0.4c-0.1-0.5-0.2-0.9-0.3-1.3l0-0.1l0-0.1c0-0.1,0-0.2,0-0.3c0-0.2,0-0.4-0.1-0.5l-0.1-0.8
		c-0.2-2.9-0.3-5.5-0.1-8c0.2-3.1,0.7-5.5,1.5-7.7c1-2.7,2.4-5.1,4.2-7c1.7-2,3.9-3.8,6.5-5.4c0,0,0.1-0.1,0.1-0.1
		c0.8,2.3,1.5,4.6,2,6.9c0.8,3.3,1.1,6.4,0.9,9.4c-0.2,3-1,6-2.3,9C135.1,405.2,133.4,407.9,131.1,410.7z M133.6,359.2l0.1-0.1
		c0,0,0.1-0.2,0.1-0.2c0.1-0.1,0.1-0.2,0.1-0.2l0.4-0.6c0.3-0.4,0.5-0.8,0.7-1.2c0.2,0,0.3,0.1,0.5,0.1c1.4,0.3,2.6,0.6,3.6,1.1
		c0,0,0.8,2.3,0.9,2.6c-1.4-0.1-3.1-0.3-4.6-0.7l-0.2-0.1C134.6,359.6,134,359.5,133.6,359.2L133.6,359.2z M140.5,369.4
		c-0.4-1.3-0.7-2.6-0.9-3.7c0.1,0,0.4,0,0.4,0h0.4l0.1,0c0.1,0,0.2,0,0.3,0c0.3,0,0.6-0.1,0.9-0.2l0.4-0.1l0.6-0.2
		c0.1,0,0.2-0.1,0.3-0.1c0.2-0.1,0.4-0.2,0.5-0.3c0.1-0.1,0.2-0.2,0.3-0.2l0.1,0l0.1-0.1c0.2-0.2,0.3-0.3,0.4-0.5
		c0,0.7-0.3,1.4-0.9,2.3c-0.6,1-1.6,1.9-2.7,3C140.7,369.2,140.6,369.3,140.5,369.4z"/>
	<path class="st0" d="M334.7,215.7c4.9-6.7,9.2-13.6,13-20.3c4.3-7.8,7.8-15,10.6-21.9c3.2-7.7,5.7-15.5,7.6-23.4
		c2-8.5,3.1-16.9,3.4-24.9c0.1-6.3-0.2-12.1-0.8-17.7c-0.1-1.3-0.3-2.6-0.5-3.9l-0.1-0.5l-0.3-2.1c0-0.4-0.1-0.8-0.2-1.2
		c-0.1-0.3-0.1-0.6-0.2-1.1l-0.8-4.4l-1-4.3c-2.8-11.3-7.3-22.5-13.4-33.2c-3.2-5.5-6.6-10.5-10.1-14.9c-3.6-4.5-7.7-8.8-12.4-13.3
		c-4.1-3.8-8.8-7.4-14.5-11.2c-5.1-3.4-10.6-6.3-16.1-8.7c-11.2-4.9-23.2-7.8-35.7-8.5C261,0.1,258.8,0,256.7,0c-4,0-8.1,0.2-12,0.7
		c-6,0.7-12,1.9-18,3.7c-5.7,1.7-11.5,4-17.1,6.6l-4.1,2.1l-4.9,2.8l-1,0.6l-3.8,2.5l-3.6,2.6l-1,0.7l-0.8,0.7l-3.6,2.9l-1.1,0.9
		c-1.9,1.6-3.8,3.3-5.6,5.1c-4.7,4.6-8.6,9.1-11.9,13.6c-14.1,18.8-23,42.2-25,65.9c-0.1,1.4-0.2,2.8-0.3,4.4l-0.2,3.3v5.5
		c0,0.7,0,1.5,0.1,2.3c0,0.7,0.1,1.4,0.1,2.2l0.1,2.3l0.2,2.2l0.5,4.5l0.7,4.4c0.1,0.3,0.1,0.7,0.2,1c0.1,0.4,0.1,0.8,0.2,1.1
		l0.4,2.2c1,5.2,2.5,10.7,4.6,16.9l1.4,4l0.1,0.4c0.2,0.5,0.4,1.2,0.6,1.7l0.8,2l1.6,4l1.7,3.9c9.5,20.8,22.2,39.9,37.8,56.7
		c8.6,9.1,17,16.5,25.8,22.5c5.6,3.8,10.4,6.5,15.1,8.6c4.2,1.8,8.2,3.1,12,3.9c-0.2,0.1-0.3,0.2-0.5,0.3c-0.6,0.4-1,1.1-1.3,1.6
		c-0.4,0.8-0.5,1.6-0.4,2.4c0.1,1.5,0.7,2.3,1.2,2.9c0,0,0.4,0.5,0.6,0.7c-0.1,0.4-0.1,0.7-0.1,1v0.6l0,0.3l0.1,0.2
		c0,0.1,0.1,0.3,0.1,0.5c0.1,0.3,0.2,0.5,0.4,0.7l0.1,0.2l0.1,0.1l0,0.2l0.4,0.4c0.1,0.1,0.2,0.2,0.3,0.4l0.1,0.1l0.3,0.2
		c0.2,0.2,0.4,0.4,0.7,0.5c0.7,0.5,1.4,0.7,2.1,0.9c0,1.4,0.2,2.7,0.4,4c0.3,1.7,0.8,3.5,1.4,5.4c0,0,0,0,0,0
		c-0.3,0.2-0.6,0.4-0.8,0.5c-2.5,1.6-5.2,3.3-7.7,5.2c-3,2.3-5.2,4.5-7,7c-2.1,2.9-3.6,6.1-4.3,9.5c-0.7,3.1-0.9,6.4-0.6,10.3
		l0.2,1.3l0.2,1.4c0.2,0.9,0.5,1.8,0.8,2.7c0.6,1.6,1.4,3.2,2.4,4.8c1.9,2.9,4.1,5.2,6.2,7.5c0.5,0.6,1.1,1.1,1.6,1.7
		c-0.3,2.8-0.2,5.6-0.2,8c0.1,3.5,0.5,7.1,1,11c0.9,6.7,2.1,13.4,3.3,19.9c1.3,7.3,2.7,14.9,3.6,22.3c0.5,3.8,0.8,7.3,1,10.4
		l0.2,5.2l0.1,5.3l0.3,83.3h6.1l0.3-83.3c0-0.9,0-1.8,0-2.6c0-0.9,0-1.8,0-2.7c0-1.8-0.1-3.7-0.1-5.5c-0.1-3.6-0.5-7.3-0.9-10.9
		c-0.8-7.2-2-14.4-3.1-21.4c-1.2-6.9-2.4-14-3.4-20.9c-0.3-2.7-0.7-6.1-0.8-9.5c0.9,1.2,1.7,2.4,2.5,3.6c0.8,1.2,1.6,2.3,2.4,3.4
		c0.9,1.2,1.8,2.5,2.6,3.7c1.5,2.3,3,4.8,4.2,7.4c1.1,2.5,2.1,5.1,3.1,8.2l2.4-0.2c0.6-6-0.7-12.5-3.9-18.8c-1.5-3-3.2-5.7-5.3-8
		c-1.1-1.4-2.4-2.7-3.6-4c-0.9-0.9-1.8-1.9-2.6-2.9c-0.3-0.4-0.6-0.7-1-1.1c-0.2-0.2-0.4-0.5-0.6-0.7c0-0.1,0-0.2,0.1-0.4
		c0.1-0.3,0.1-0.7,0.1-1c0.3-1.6,0.7-3.1,1.3-4.4c0.3-0.7,0.6-1.3,0.9-1.7l0.1-0.1c0.2-0.3,0.4-0.6,0.6-0.8l0.7-0.9
		c2.6-3.3,4.7-6.5,6.1-9.9c1.6-3.6,2.6-7.6,2.9-11.6c0.2-3.6-0.2-7.5-1.3-11.7c-0.8-3-1.8-5.8-2.7-8.3c0.1,0,0.2-0.1,0.2-0.1
		c0.4-0.2,0.8-0.4,1.3-0.6c1.4-0.6,3-1.4,4.6-2.7c0.9-0.8,1.5-1.5,2.1-2.2c0.7-0.9,1.2-2.1,1.4-3.3c0.5-2.4,0.2-4.7-0.9-6.8
		c-1-2.1-2.3-3.8-4.1-5.2c-1.2-0.9-2.4-1.6-3.8-2.3c0-0.1,0-0.1,0-0.2c1.4-0.1,2.8-0.3,4.1-0.6l0.4-0.1c1.9-0.4,3.8-0.8,5.6-1.5
		c3.6-1.2,7.3-2.7,11.2-4.8c6.8-3.6,13.3-8,20-13.6C313.7,241.4,324.7,229.5,334.7,215.7z M248.9,331.4l-0.2,0.3
		c-0.2,0.3-0.4,0.6-0.7,0.9l-0.9,1.4c-0.4,0.7-1,1.8-1.4,2.9c-0.1,0.2-0.2,0.5-0.3,0.7c-0.8-1.4-1.6-2.9-2.3-4.4
		c-0.4-1.1-0.9-2.3-1.2-3.6l-0.1-0.4c-0.1-0.5-0.2-0.9-0.3-1.3l0-0.1l0-0.1c0-0.1,0-0.2,0-0.3c0-0.2,0-0.4-0.1-0.5l-0.1-0.8
		c-0.2-2.9-0.3-5.5-0.1-8c0.2-3.1,0.7-5.5,1.5-7.7c1-2.7,2.4-5.1,4.2-7c1.7-2,3.9-3.8,6.5-5.4c0,0,0.1-0.1,0.1-0.1
		c0.8,2.3,1.5,4.6,2,6.9c0.8,3.3,1.1,6.5,0.9,9.4c-0.2,3-1,6-2.3,9C252.9,325.9,251.2,328.6,248.9,331.4z M251.4,279.9l0.1-0.1
		c0,0,0.1-0.2,0.1-0.2c0.1-0.1,0.1-0.2,0.1-0.2c0,0,0,0,0,0l0.4-0.6c0.3-0.4,0.5-0.8,0.7-1.2c0.2,0,0.3,0.1,0.5,0.1
		c1.4,0.3,2.6,0.6,3.6,1.1c0,0,0.8,2.3,0.9,2.6c-1.4-0.1-3.1-0.3-4.6-0.7l-0.2-0.1C252.4,280.3,251.8,280.1,251.4,279.9L251.4,279.9
		z M258.2,290.1c-0.4-1.3-0.7-2.6-0.9-3.7c0.1,0,0.4,0,0.4,0h0.4l0.1,0c0.1,0,0.2,0,0.3,0c0.3,0,0.6-0.1,0.9-0.2l0.4-0.1l0.6-0.2
		c0.1,0,0.2-0.1,0.4-0.1c0.2-0.1,0.3-0.2,0.5-0.3c0.1-0.1,0.2-0.2,0.3-0.2l0.1,0l0.1-0.1c0.2-0.2,0.3-0.3,0.4-0.5
		c0,0.7-0.3,1.4-0.9,2.3c-0.6,1-1.6,1.9-2.7,3C258.4,289.9,258.3,290,258.2,290.1z M258.5,267l-1.9,0.1l-0.3,1.9
		c-0.1,0.4-0.1,0.8-0.2,1.3c-0.4-0.1-0.9-0.2-1.3-0.2c0,0,0,0,0,0c0-0.2,0-0.4,0.1-0.7l0.1-2.3l-2.5-0.4c-4.8-0.8-9.7-2.6-14.7-5.3
		c-4.6-2.4-9-5.3-13.5-8.9c-3.9-3.1-7.9-6.6-12-10.7l-2.8-2.8l-4.1-4.5l-4-4.6c-7-8.5-13.3-17.5-18.7-26.6
		c-5.8-9.7-10.6-19.4-14.3-28.9l-1.4-3.7l-1.3-3.9c-0.7-1.8-1.2-3.6-1.8-5.4c-0.2-0.7-0.4-1.5-0.7-2.1c-1.7-6.2-2.8-10.9-3.5-15.4
		l-0.4-2c-0.1-0.3-0.1-0.7-0.1-1.1c0-0.2,0-0.5-0.1-0.7l-0.4-3.9l-0.3-3.9c0-0.3,0-0.6-0.1-0.9c0-0.3,0-0.6-0.1-1v-1.9
		c0-0.4,0-0.9,0-1.3c0-0.9,0-1.7,0-2.5l0.1-3.9l0.1-2l0.2-1.9c0-0.4,0.1-0.9,0.1-1.3c0.1-0.9,0.2-1.7,0.3-2.6l0.5-3.8l0.7-3.9
		c0.1-0.3,0.1-0.7,0.2-1c0.1-0.3,0.1-0.6,0.2-0.9l0.4-1.9c0.2-1.1,0.5-2.4,0.9-3.8c1.2-4.5,2.8-9.3,4.9-14.6c1.8-4.5,4.1-9,6.9-13.7
		l2-3.3l2.2-3.2c0.4-0.7,0.9-1.3,1.4-1.9c0.3-0.4,0.6-0.8,0.8-1.1c0.3-0.3,0.5-0.7,0.8-1.1c0.5-0.7,1-1.3,1.6-2
		c2.7-3.4,6-7,10.4-11.1c1.8-1.7,3.6-3.2,5.5-4.8l0.2-0.2l3-2.3l0.7-0.5l0.8-0.5l3.1-2.1l3.3-2l0.7-0.5l0.8-0.4l3.2-1.6l3.4-1.6
		c4.6-2.1,9.4-3.8,14-5.1c5.3-1.3,10.1-2.2,14.7-2.6l3.7-0.3c1.2-0.1,2.5-0.1,3.7-0.1c0.2,0,0.5,0,0.7,0c0.2,0,0.4,0,0.6,0
		c0.2,0,0.3,0,0.6,0l1.9,0.1c0.4,0,0.9,0,1.3,0.1c0.8,0,1.6,0.1,2.4,0.2l3.7,0.4l3.8,0.6c1.2,0.1,2.4,0.4,3.6,0.7l1.8,0.3
		c0.3,0.1,1.8,0.4,1.8,0.4c0.6,0.2,1.2,0.3,1.8,0.5c0.6,0.1,1.2,0.3,1.8,0.5l3.5,1.1l1.3,0.5c2,0.7,3.8,1.4,5.7,2.3
		c5.2,2.3,9.4,4.5,13.2,6.9c4.7,3,8.6,5.9,12.1,8.9c3.5,3.1,7,6.6,10.7,10.7c3.4,4,6.4,8.1,9.1,12.2c5.4,8.4,9.7,17.8,12.8,27.8
		l1.1,3.7l0.9,3.8c0.1,0.7,0.3,1.3,0.4,1.8l0.4,1.9c0.1,0.7,0.2,1.3,0.4,2c0.1,0.6,0.2,1.2,0.4,1.9c0.9,5.5,1.2,11.2,1.4,15.5
		c0.2,6.9-0.4,14.2-1.9,21.7c-1.2,6.6-3.2,13.7-5.9,21.5c-4.7,13.5-11.4,27.2-20,40.7c-4,6.2-8.3,12.3-13.3,18.6
		c-5.1,6.3-10.1,11.9-15.4,16.9c-6.2,5.8-12,10.5-17.8,14.1c-3.5,2.2-6.8,3.9-9.9,5.2c-1.8,0.8-3.6,1.4-5.2,1.8
		C261.7,266.5,260,266.9,258.5,267z"/>
</g>
</svg>
