<?xml version="1.0" encoding="utf-8"?>
<!-- Generator: Adobe Illustrator 22.0.0, SVG Export Plug-In . SVG Version: 6.00 Build 0)  -->
<svg version="1.1" id="Layer_1" xmlns="http://www.w3.org/2000/svg" xmlns:xlink="http://www.w3.org/1999/xlink" x="0px" y="0px"
	 viewBox="0 0 323.1 821.3" style="enable-background:new 0 0 323.1 821.3;" xml:space="preserve">
<style type="text/css">
	.st0{fill:#FFFFFF;}
</style>
<title>balloon_tech</title>
<g id="balloon_tech">
	<g id="balloon">
		<path class="st0" d="M306.7,178.7c-0.2-7.7-0.9-15.4-2-23c-0.2-1.9-0.7-3.8-1-5.7l-0.5-2.8c-0.2-0.9-0.4-1.9-0.6-2.8l-1.3-5.6
			l-1.6-5.5c-6.4-22-17.5-42.4-32.4-59.8c-5-5.7-10.3-11-15.9-16c-5.7-4.9-11.7-9.4-18.1-13.4c-6.3-4-12.9-7.5-19.8-10.4
			c-3.4-1.5-6.9-2.7-10.4-4l-5.3-1.6c-1.8-0.6-3.6-0.9-5.4-1.4c-0.9-0.2-1.8-0.5-2.7-0.7l-2.7-0.5c-1.8-0.3-3.6-0.8-5.5-1l-5.5-0.8
			l-5.6-0.5c-1.9-0.2-3.7-0.2-5.6-0.3l-2.8-0.1c-0.9,0-1.9,0-2.8,0c-1.9,0-3.7,0-5.6,0.1l-5.6,0.4c-7.4,0.7-14.8,2-22,3.9
			c-7.2,2-14.2,4.6-21,7.7l-5.1,2.4l-5,2.7l-1.2,0.7l-1.2,0.7l-2.4,1.5l-2.4,1.5L85.4,46L83,47.6l-1.2,0.8l-1.1,0.9l-4.5,3.4
			c-2.9,2.4-5.8,4.8-8.5,7.4c-5.6,5.2-10.7,10.7-15.4,16.6c-1.2,1.4-2.3,3-3.5,4.5s-2.3,3-3.3,4.6s-2.1,3.2-3.2,4.8l-3,4.9
			c-3.8,6.6-7.2,13.5-10.1,20.5c-2.9,7.1-5.3,14.4-7.3,21.8c-0.5,1.9-0.9,3.7-1.3,5.6l-0.6,2.8c-0.2,0.9-0.3,1.9-0.5,2.8l-1,5.7
			l-0.8,5.7c-0.3,1.9-0.4,3.8-0.6,5.8l-0.2,2.8l-0.1,1.4l-0.1,1.4l-0.2,5.8c-0.1,1.9,0,3.8,0,5.7v2.9c0,1,0.1,1.9,0.2,2.9l0.4,5.7
			l0.7,5.7c0.1,0.9,0.2,1.9,0.4,2.9l0.5,2.9c1.3,7.7,3.1,15.3,5.3,22.7c1.2,3.7,2.3,7.5,3.6,11.2l2,5.6l2.1,5.5
			c5.9,14.7,13,28.8,21.1,42.4c8.2,13.6,17.4,26.6,27.5,38.8l3.9,4.5l2,2.3l2,2.2l4.1,4.4l4.2,4.2c5.6,5.6,11.5,10.8,17.8,15.7
			c6.2,4.9,12.8,9.2,19.8,13c6.9,3.7,14.3,6.3,22,7.7l1.9,0.3l-0.1,1.7l0,0c0,2.9-0.5,5.8-1.4,8.5c-0.5,1.4-1.1,2.8-1.9,4.1
			l-0.6,0.9c-0.2,0.2-0.3,0.5-0.4,0.7l-0.2,0.4l-0.1,0.3c-0.1,0.2-0.1,0.4-0.2,0.6c0,0.3,0,0.5,0.1,0.6c0,0,0,0,0,0.1l0.1,0.1
			c0.1,0,0.1,0.1,0.1,0.2l0.5,0.4c1,0.5,2.1,0.9,3.2,1.1c2.5,0.5,5.1,0.9,7.7,1.1h-0.4c0.7,0,1.3-0.2,1.9-0.4c0.1,0,0,0,0,0l0,0
			c0,0,0,0,0,0.1l0,0c0,0,0,0,0-0.1c0,0,0-0.1,0-0.1c0-0.2,0-0.3-0.1-0.5c-0.2-0.9-0.5-1.7-0.8-2.6c-0.3-0.9-0.7-1.9-1-2.9
			c-0.3-1-0.6-2.1-0.8-3.1c-0.2-1.1-0.3-2.1-0.4-3.2c-0.1-2.1,0-4.2,0.3-6.3l0.2-1.5l1.6-0.2l0,0c2.7-0.3,5.4-0.9,8.1-1.6
			c2.7-0.7,5.3-1.6,7.8-2.7c5.1-2.1,10.1-4.6,14.8-7.5c9.5-5.9,18.3-12.8,26.4-20.5c8.2-7.7,15.8-15.9,22.9-24.5
			c7.1-8.7,13.7-17.7,19.8-27.1c12.2-18.7,22.2-38.7,29.9-59.7c3.8-10.3,6.7-21,8.9-31.8C305.8,200.4,306.8,189.5,306.7,178.7z
			 M322.7,178.7c-0.3,11.9-1.8,23.8-4.6,35.4c-2.7,11.4-6.3,22.6-10.7,33.5c-4.4,10.8-9.4,21.3-15,31.5c-5.6,10.2-11.8,20-18.5,29.4
			c-6.7,9.4-13.9,18.5-21.6,27.1c-7.7,8.6-16,16.8-24.8,24.3c-8.8,7.6-18.4,14.2-28.5,19.9c-5.1,2.8-10.5,5.2-16,7.1
			c-2.8,0.9-5.6,1.7-8.5,2.4c-2.9,0.6-5.8,1-8.8,1.2l0,0l1.8-1.7c-0.3,1.8-0.3,3.7-0.2,5.6c0.1,0.9,0.2,1.8,0.3,2.7
			c0.2,0.9,0.4,1.8,0.7,2.6c0.3,0.9,0.6,1.8,1,2.8c0.4,1,0.7,2,0.9,3.1c0.1,0.3,0.1,0.7,0.1,1c0,0.2,0,0.4,0,0.6
			c0,0.2,0,0.4-0.1,0.6c0,0.2-0.1,0.5-0.2,0.7c-0.1,0.3-0.2,0.5-0.4,0.7c-0.1,0.2-0.3,0.4-0.5,0.6c-0.2,0.2-0.4,0.3-0.6,0.5
			c-0.2,0.1-0.4,0.2-0.6,0.3c-0.2,0.1-0.3,0.1-0.5,0.2l-0.5,0.2l-0.4,0.1c-0.6,0.1-1.2,0.2-1.7,0.3h-0.1h-0.2
			c-2.8-0.2-5.6-0.6-8.3-1.2c-1.5-0.3-3-0.9-4.3-1.6c-0.4-0.3-0.8-0.5-1.1-0.8l-0.5-0.6c-0.1-0.1-0.2-0.2-0.3-0.3l-0.2-0.4
			c-0.1-0.3-0.3-0.5-0.4-0.8c-0.1-0.3-0.1-0.6-0.2-0.9c0-0.3,0-0.6,0-0.8c0-0.3,0-0.5,0.1-0.8c0.1-0.5,0.2-0.9,0.4-1.4l0.3-0.6
			l0.3-0.5c0.2-0.3,0.4-0.7,0.6-1l0.6-0.8c0.6-1,1.1-2.1,1.5-3.2c0.7-2.4,1.1-4.9,1.2-7.4l0,0l1.8,2c-8.3-0.9-16.4-3.2-24-6.7
			c-7.5-3.5-14.7-7.6-21.4-12.3c-13.6-9.4-25.7-20.6-36.9-32.6c-22.3-24.3-40.6-51.9-54.1-82l-2.5-5.7l-2.3-5.8
			c-0.8-1.9-1.5-3.9-2.2-5.8l-2-5.9c-2.6-8-4.8-16.1-6.5-24.3L3,206.1c-0.2-1-0.3-2.1-0.5-3.1l-1-6.3l-0.7-6.3
			c-0.1-1.1-0.2-2.1-0.3-3.2L0.3,184c-0.1-2.1-0.3-4.3-0.2-6.4l0-6.3v-1.6l0.1-1.6l0.2-3.1c0.1-2.1,0.2-4.2,0.4-6.3
			c3-34.1,15.4-66.6,36-93.9c5.1-6.8,10.8-13.3,17-19.2c3-3,6.3-5.8,9.6-8.6l5.1-4l1.3-1l1.3-0.9l2.6-1.9l2.6-1.9l2.7-1.7l2.7-1.7
			l1.4-0.9l1.4-0.8l5.6-3.2l5.8-3c7.8-3.8,15.9-6.9,24.2-9.4c8.4-2.4,16.9-4.1,25.5-5.1c8.6-1,17.3-1.2,26-0.6
			c17.4,1,34.5,5.2,50.5,12.1c8,3.4,15.6,7.6,22.9,12.4c7.2,4.7,14.1,10,20.5,15.9c6.3,5.8,12.2,12.1,17.6,18.8
			c16,20.1,27.4,43.4,33.7,68.3l1.5,6.2l1.2,6.2c0.2,1.1,0.4,2.1,0.6,3.1l0.5,3.1c0.3,2.1,0.7,4.2,0.8,6.3
			C322.4,161.8,322.8,170.2,322.7,178.7L322.7,178.7z"/>
		<path class="st0" d="M149.7,401.8c-0.5-0.5-1-1-1.5-1.6c-0.6-0.8-1-1.8-1.1-2.9c-0.1-0.8,0.1-1.5,0.4-2.2c0.3-0.6,0.7-1.2,1.3-1.7
			c0.7-0.6,1.6-1.1,2.5-1.4c1.3-0.4,2.7-0.6,4.1-0.6c1.2,0,2.5,0.1,3.7,0.3c2.4,0.3,4.7,0.9,7,1.8c2.3,0.9,4.5,2.1,6.5,3.6
			c2.2,1.6,3.9,3.6,5.2,6c0.6,1.3,1.1,2.6,1.3,4c0.2,1.4,0.2,2.9-0.1,4.4c-0.3,1.5-1,2.9-2,4c-0.9,1-1.9,1.9-3.1,2.6
			c-2.1,1.2-4.2,2.1-6.5,2.7c-4.2,1.1-8.4,2.6-12.3,4.5c-3.8,1.9-7.3,4.5-10.1,7.8c-1.4,1.6-2.5,3.3-3.4,5.1
			c-0.9,1.8-1.6,3.7-2.1,5.6c-0.9,3.9-1.3,7.8-1.2,11.8c0,2,0.1,4,0.3,6l0.1,1.5c0.1,0.4,0.1,0.9,0.2,1.3c0.1,0.9,0.3,1.8,0.6,2.6
			c0.3,0.9,0.5,1.8,0.9,2.7s0.7,1.8,1.1,2.7c0.9,1.9,1.8,3.7,2.9,5.4c2.2,3.7,4.7,7.2,7.3,10.6c2.6,3.5,5.4,6.9,8.1,10.5
			c2.8,3.5,5.4,7.3,7.5,11.3c4.2,8.3,5.3,17.8,3.2,26.9c-1,4.4-2.7,8.5-5,12.4c1.9-8.6,2.6-17.2,0.6-25.2c-1-4-2.3-7.9-4.1-11.6
			c-1.7-3.8-3.8-7.5-6.1-11c-4.7-7.2-11.1-13.1-16.9-20c-3.2-3.6-5.7-7.7-7.4-12.1c-0.4-1.2-0.8-2.4-1-3.7c-0.1-0.6-0.2-1.3-0.3-1.9
			l-0.1-1.7c-0.2-2.3-0.2-4.7,0-7c0.3-4.8,1.7-9.5,3.9-13.7c2.2-4.2,5.4-7.8,9.2-10.6c3.6-2.6,7.5-4.8,11.6-6.6
			c4-1.7,7.9-3.8,11.6-6.2c1.7-1.1,3.3-2.4,4.8-3.9c0.6-0.6,1.1-1.3,1.5-2c0.3-0.6,0.5-1.3,0.6-1.9c0-0.7,0-1.4-0.2-2.1
			c-0.2-0.8-0.4-1.5-0.8-2.2c-0.8-1.5-2-2.7-3.4-3.7c-3.1-2.2-6.7-3.7-10.5-4.4c-0.9-0.2-1.9-0.3-2.8-0.3c-0.8-0.1-1.6,0-2.4,0.1
			c-0.3,0.1-0.5,0.2-0.4,0.1c0.1-0.1,0.2-0.2,0.2-0.4c0.1-0.2,0.1-0.4,0.1-0.6c-0.1-0.3-0.1-0.1,0,0.1c0.2,0.3,0.4,0.6,0.6,0.9
			L149.7,401.8z"/>
		<polygon class="st0" points="161.4,409 161.7,466 156.2,466 156.4,409 		"/>
	</g>
	<g id="chip">
		<polygon class="st0" points="129.7,563.1 123.7,563.1 123.7,551 105.4,542.8 102,526.1 107.8,524.9 110.7,538.6 129.7,547.1 		"/>
		<path class="st0" d="M102.6,525.9c-6.1,0-11-4.9-11-11s4.9-11,11-11s11,4.9,11,11l0,0C113.6,521,108.7,525.9,102.6,525.9z
			 M102.6,509.9c-2.8,0-5,2.2-5,5s2.2,5,5,5s5-2.2,5-5S105.4,509.9,102.6,509.9z"/>
		<polygon class="st0" points="145.7,562.8 139.7,562.8 139.7,538.5 127.4,529 127.4,504 133.4,504 133.4,526 145.7,535.5 		"/>
		<path class="st0" d="M130.4,504.2c-6.1,0-11-4.9-11-11s4.9-11,11-11s11,4.9,11,11S136.5,504.2,130.4,504.2L130.4,504.2z
			 M130.4,488.1c-2.8,0-5,2.2-5,5s2.2,5,5,5c2.8,0,5-2.2,5-5C135.4,490.3,133.2,488.1,130.4,488.1
			C130.4,488.1,130.4,488.1,130.4,488.1L130.4,488.1z"/>
		
			<rect x="156.2" y="479.9" transform="matrix(1 -3.490651e-03 3.490651e-03 1 -1.8193 0.559)" class="st0" width="6" height="83.1"/>
		<path class="st0" d="M159.1,484.7c-6.1,0-11-4.9-11-11s4.9-11,11-11s11,4.9,11,11S165.1,484.7,159.1,484.7L159.1,484.7z
			 M159.1,468.6c-2.8,0-5,2.2-5,5s2.2,5,5,5s5-2.2,5-5C164.1,470.9,161.8,468.6,159.1,468.6C159.1,468.6,159.1,468.6,159.1,468.6
			L159.1,468.6z"/>
		<polygon class="st0" points="195,563.1 189,563.1 189,547.1 208,538.6 210.9,524.9 216.7,526.1 213.3,542.8 195,551 		"/>
		<path class="st0" d="M216.1,525.9c-6.1,0-11-4.9-11-11s4.9-11,11-11s11,4.9,11,11l0,0C227.1,521,222.2,525.9,216.1,525.9z
			 M216.1,509.9c-2.8,0-5,2.2-5,5s2.2,5,5,5s5-2.2,5-5S218.9,509.9,216.1,509.9z"/>
		<polygon class="st0" points="179,562.8 173,562.8 173,535.5 185.3,526 185.3,504 191.3,504 191.3,529 179,538.5 		"/>
		<path class="st0" d="M188.3,504.2c-6.1,0-11-4.9-11-11s4.9-11,11-11s11,4.9,11,11S194.4,504.2,188.3,504.2L188.3,504.2z
			 M188.3,488.1c-2.8,0-5,2.2-5,5s2.2,5,5,5s5-2.2,5-5C193.3,490.3,191.1,488.1,188.3,488.1C188.3,488.1,188.3,488.1,188.3,488.1
			L188.3,488.1z"/>
		<polygon class="st0" points="210.9,675.7 208,662 189,653.6 189,637.6 195,637.6 195,649.7 213.3,657.8 216.7,674.5 		"/>
		<path class="st0" d="M216.1,696.7c-6.1,0-11-4.9-11-11s4.9-11,11-11s11,4.9,11,11S222.2,696.7,216.1,696.7L216.1,696.7z
			 M216.1,680.7c-2.8,0-5,2.2-5,5s2.2,5,5,5s5-2.2,5-5C221.1,683,218.9,680.7,216.1,680.7C216.1,680.7,216.1,680.7,216.1,680.7
			L216.1,680.7z"/>
		<polygon class="st0" points="191.3,696.6 185.3,696.6 185.3,674.6 173,665.1 173,637.9 179,637.9 179,662.2 191.3,671.6 		"/>
		<path class="st0" d="M188.3,718.5c-6.1,0-11-4.9-11-11s4.9-11,11-11s11,4.9,11,11l0,0C199.3,713.6,194.4,718.5,188.3,718.5z
			 M188.3,702.5c-2.8,0-5,2.2-5,5s2.2,5,5,5s5-2.2,5-5C193.3,704.8,191.1,702.5,188.3,702.5C188.3,702.5,188.3,702.5,188.3,702.5
			L188.3,702.5z"/>
		
			<rect x="156.4" y="636.4" transform="matrix(1 -3.316120e-03 3.316120e-03 1 -2.2493 0.5325)" class="st0" width="6" height="84.3"/>
		<path class="st0" d="M159.6,738c-6.1,0-11-4.9-11-11s4.9-11,11-11s11,4.9,11,11S165.7,738,159.6,738L159.6,738z M159.6,722
			c-2.8,0-5,2.2-5,5s2.2,5,5,5s5-2.2,5-5S162.4,722,159.6,722z"/>
		<polygon class="st0" points="107.8,675.7 102,674.5 105.4,657.8 123.7,649.7 123.7,637.6 129.7,637.6 129.7,653.6 110.7,662 		"/>
		<path class="st0" d="M102.6,696.7c-6.1,0-11-4.9-11-11s4.9-11,11-11s11,4.9,11,11S108.7,696.7,102.6,696.7L102.6,696.7z
			 M102.6,680.7c-2.8,0-5,2.2-5,5s2.2,5,5,5s5-2.2,5-5C107.6,683,105.4,680.7,102.6,680.7C102.6,680.7,102.6,680.7,102.6,680.7
			L102.6,680.7z"/>
		<polygon class="st0" points="133.4,696.6 127.4,696.6 127.4,671.6 139.7,662.2 139.7,637.9 145.7,637.9 145.7,665.1 133.4,674.6 
					"/>
		<path class="st0" d="M130.4,718.5c-6.1,0-11-4.9-11-11s4.9-11,11-11s11,4.9,11,11l0,0C141.4,713.6,136.5,718.5,130.4,718.5z
			 M130.4,702.5c-2.8,0-5,2.2-5,5s2.2,5,5,5c2.8,0,5-2.2,5-5C135.4,704.8,133.2,702.5,130.4,702.5
			C130.4,702.5,130.4,702.5,130.4,702.5L130.4,702.5z"/>
		<polygon class="st0" points="86.9,632.3 61.9,632.3 61.9,626.3 83.9,626.3 93.4,613.9 120.7,613.9 120.7,619.9 96.4,619.9 		"/>
		<path class="st0" d="M51,640.3c-6.1,0-11-4.9-11-11s4.9-11,11-11s11,4.9,11,11S57.1,640.3,51,640.3L51,640.3z M51,624.3
			c-2.8,0-5,2.2-5,5s2.2,5,5,5s5-2.2,5-5C56,626.5,53.8,624.3,51,624.3C51,624.2,51,624.2,51,624.3L51,624.3z"/>
		
			<rect x="37.9" y="597.5" transform="matrix(1 -3.490651e-03 3.490651e-03 1 -2.0955 0.283)" class="st0" width="84.3" height="6"/>
		<path class="st0" d="M31.5,611.6c-6.1,0-11-4.9-11-11s4.9-11,11-11s11,4.9,11,11S37.6,611.6,31.5,611.6L31.5,611.6z M31.5,595.6
			c-2.8,0-5,2.2-5,5s2.2,5,5,5s5-2.2,5-5C36.6,597.9,34.4,595.6,31.5,595.6C31.6,595.6,31.6,595.6,31.5,595.6L31.5,595.6z"/>
		<polygon class="st0" points="120.7,586.7 93.4,586.7 83.9,574.4 61.9,574.4 61.9,568.4 86.9,568.4 96.4,580.7 120.7,580.7 		"/>
		<path class="st0" d="M51,582.4c-6.1,0-11-4.9-11-11s4.9-11,11-11s11,4.9,11,11l0,0C62,577.5,57.1,582.4,51,582.4z M51,566.4
			c-2.8,0-5,2.2-5,5s2.2,5,5,5s5-2.2,5-5C56,568.6,53.8,566.4,51,566.4C51,566.4,51,566.3,51,566.4L51,566.4z"/>
		<polygon class="st0" points="225.3,587.3 198,587.3 198,581.3 222.4,581.3 231.8,568.9 256.8,568.9 256.8,574.9 234.8,574.9 		"/>
		<path class="st0" d="M267.7,583c-6.1,0-11-4.9-11-11s4.9-11,11-11s11,4.9,11,11S273.8,583,267.7,583L267.7,583z M267.7,567
			c-2.8,0-5,2.2-5,5s2.2,5,5,5s5-2.2,5-5C272.7,569.2,270.5,566.9,267.7,567C267.7,566.9,267.7,566.9,267.7,567L267.7,567z"/>
		
			<rect x="196.7" y="597.7" transform="matrix(1 -3.490651e-03 3.490651e-03 1 -2.0955 0.8372)" class="st0" width="84.2" height="6"/>
		<path class="st0" d="M287.2,611.6c-6.1,0-11-4.9-11-11s4.9-11,11-11s11,4.9,11,11S293.2,611.6,287.2,611.6L287.2,611.6z
			 M287.2,595.6c-2.8,0-5,2.2-5,5s2.2,5,5,5s5-2.2,5-5C292.2,597.9,290,595.6,287.2,595.6C287.2,595.6,287.2,595.6,287.2,595.6
			L287.2,595.6z"/>
		<polygon class="st0" points="256.8,632.8 231.8,632.8 222.4,620.5 198,620.5 198,614.5 225.3,614.5 234.8,626.8 256.8,626.8 		"/>
		<path class="st0" d="M267.7,640.9c-6.1,0-11-4.9-11-11s4.9-11,11-11s11,4.9,11,11S273.8,640.9,267.7,640.9L267.7,640.9z
			 M267.7,624.8c-2.8,0-5,2.2-5,5s2.2,5,5,5s5-2.2,5-5S270.4,624.8,267.7,624.8z"/>
		<path class="st0" d="M187.2,642.9h-55.7c-8.3,0-15-6.7-15-15v-55.7c0-8.3,6.7-15,15-15h55.7c8.3,0,15,6.7,15,15v55.7
			C202.2,636.1,195.5,642.9,187.2,642.9z M131.5,563.2c-5,0-9,4-9,9v55.7c0,5,4,9,9,9h55.7c5,0,9-4,9-9v-55.7c0-5-4-9-9-9H131.5z"/>
		<path class="st0" d="M174.8,622.2h-29.7c-4,0-7.3-3.3-7.3-7.3v-29.7c0-4,3.3-7.3,7.3-7.3h29.7c4,0,7.3,3.3,7.3,7.3v29.7
			C182.1,618.9,178.8,622.2,174.8,622.2z M145.1,583.8c-0.7,0-1.3,0.6-1.3,1.3v29.7c0,0.7,0.6,1.3,1.3,1.3h29.7
			c0.7,0,1.3-0.6,1.3-1.3v-29.7c0-0.7-0.6-1.3-1.3-1.3H145.1z"/>
	</g>
	<g id="voltages">
		<polygon class="st0" points="152.6,346.5 103.6,267.2 111.5,267.2 86.3,227.5 95.7,227.5 54.7,169 37.3,170.9 72,216.2 61,214.3 
			87.8,250.2 73.6,248.3 		"/>
		<polygon class="st0" points="169.3,346.5 218.3,267.2 210.4,267.2 235.6,227.5 226.2,227.5 267.2,169 284.6,170.9 249.9,216.2 
			260.9,214.3 234.1,250.2 248.3,248.3 		"/>
		<polygon class="st0" points="227.4,314.2 201.5,339 200,328.1 168.5,377.8 194.6,355 196.9,363.8 		"/>
		<polygon class="st0" points="169.2,317.7 195.1,207.7 187.6,211.1 201.4,155.7 192.3,159.9 216.2,76.5 233.2,71 211.9,136.9 
			221.9,129.9 205.7,181.8 218.8,173.4 		"/>
		<polygon class="st0" points="156.2,317.7 130.2,207.7 137.8,211.1 124,155.7 133,159.9 109.2,76.5 92.2,71 113.5,136.9 
			103.4,129.9 119.6,181.8 106.6,173.4 		"/>
		<polygon class="st0" points="94.5,314.2 120.4,339 121.9,328.1 153.4,377.8 127.3,355 125,363.8 		"/>
	</g>
</g>
<g>
	<path class="st0" d="M39.8,760.7v5.5H24v43.2h-6.6v-43.2H1.6v-5.5H39.8z"/>
	<path class="st0" d="M86.2,809.4h-6.6v-22.2H53.3v22.2h-6.6v-48.7h6.6v21.7h26.2v-21.7h6.6V809.4z"/>
	<path class="st0" d="M128.1,760.7v5.4h-23.4v16.2h18.9v5.2h-18.9V804h23.4v5.4h-30v-48.7H128.1z"/>
	<path class="st0" d="M183.9,760.7v5.5h-15.7v43.2h-6.6v-43.2h-15.8v-5.5H183.9z"/>
	<path class="st0" d="M220.9,760.7v5.4h-23.4v16.2h18.9v5.2h-18.9V804h23.4v5.4h-30v-48.7H220.9z"/>
	<path class="st0" d="M264.7,799.3c0.4,0,0.7,0.1,1,0.4l2.6,2.8c-2,2.3-4.4,4.1-7.3,5.4c-2.8,1.3-6.3,1.9-10.3,1.9
		c-3.5,0-6.7-0.6-9.6-1.8c-2.9-1.2-5.3-2.9-7.3-5.1s-3.6-4.8-4.7-7.9c-1.1-3.1-1.7-6.4-1.7-10.1s0.6-7,1.8-10.1
		c1.2-3.1,2.9-5.7,5-7.9c2.2-2.2,4.7-3.9,7.7-5.1c3-1.2,6.3-1.8,9.9-1.8c3.6,0,6.7,0.6,9.3,1.7s4.9,2.6,6.9,4.5l-2.1,3
		c-0.2,0.2-0.3,0.4-0.5,0.6c-0.2,0.1-0.5,0.2-0.9,0.2c-0.3,0-0.6-0.1-0.9-0.3s-0.7-0.5-1.2-0.8s-1-0.7-1.6-1c-0.6-0.4-1.3-0.7-2.2-1
		c-0.8-0.3-1.8-0.6-2.9-0.8c-1.1-0.2-2.4-0.3-3.8-0.3c-2.6,0-5,0.4-7.2,1.3c-2.2,0.9-4,2.2-5.6,3.8c-1.6,1.7-2.8,3.7-3.7,6.1
		c-0.9,2.4-1.3,5-1.3,8c0,3,0.4,5.7,1.3,8.1c0.9,2.4,2.1,4.4,3.6,6c1.5,1.6,3.3,2.9,5.4,3.8c2.1,0.9,4.3,1.3,6.7,1.3
		c1.5,0,2.8-0.1,3.9-0.3c1.2-0.2,2.2-0.4,3.2-0.8c1-0.4,1.9-0.8,2.8-1.4c0.8-0.6,1.7-1.2,2.6-2C264,799.5,264.4,799.3,264.7,799.3z"
		/>
	<path class="st0" d="M316.5,809.4h-6.6v-22.2h-26.2v22.2H277v-48.7h6.6v21.7h26.2v-21.7h6.6V809.4z"/>
</g>
</svg>
