<svg id="Layer_1" data-name="Layer 1" xmlns="http://www.w3.org/2000/svg" viewBox="0 0 323.13 738.34"><defs><style>.cls-1{fill:#fff;}</style></defs><title>balloon_tech</title><g id="balloon_tech"><g id="balloon"><path class="cls-1" d="M306.69,178.66a190.16,190.16,0,0,0-2-23c-.23-1.91-.67-3.79-1-5.68l-.52-2.84c-.17-.94-.43-1.87-.63-2.81l-1.32-5.6-1.57-5.53A161.1,161.1,0,0,0,267.21,73.4a168.57,168.57,0,0,0-15.95-16A156.38,156.38,0,0,0,233.2,44a140.32,140.32,0,0,0-19.8-10.38c-3.4-1.53-6.92-2.73-10.42-4L197.65,28c-1.77-.56-3.6-.91-5.39-1.41-.9-.22-1.79-.48-2.7-.67l-2.73-.55c-1.83-.34-3.63-.79-5.48-1l-5.52-.79-5.55-.49c-1.85-.22-3.72-.18-5.58-.27l-2.79-.09c-.93,0-1.86,0-2.79,0-1.86,0-3.72,0-5.58.13l-5.57.4a141.62,141.62,0,0,0-22,3.93,143.88,143.88,0,0,0-21,7.67l-5.07,2.43L94.94,40l-1.24.67-1.2.74L90.1,42.9l-2.41,1.47L85.36,46,83,47.56l-1.17.79-1.12.86-4.51,3.41c-2.88,2.43-5.82,4.81-8.54,7.44A150.44,150.44,0,0,0,52.23,76.7c-1.23,1.44-2.33,3-3.47,4.52s-2.29,3-3.32,4.63S43.3,89,42.27,90.6l-3,4.89A168.45,168.45,0,0,0,29.13,116a175,175,0,0,0-7.25,21.79c-.53,1.85-.87,3.74-1.32,5.61l-.64,2.8c-.2.94-.34,1.89-.52,2.84l-1,5.67-.77,5.72c-.3,1.91-.42,3.83-.59,5.75L16.79,169l-.13,1.45-.06,1.44-.23,5.78c-.08,1.93,0,3.81,0,5.72l0,2.86c0,1,.13,1.91.19,2.86l.4,5.73.71,5.74c.13.95.22,1.91.38,2.86l.5,2.86a199.7,199.7,0,0,0,5.25,22.72c1.2,3.73,2.26,7.5,3.62,11.18l2,5.55,2.15,5.49a290.16,290.16,0,0,0,21.15,42.37,313.57,313.57,0,0,0,27.54,38.77l3.9,4.49,2,2.25,2,2.18,4.06,4.36,4.19,4.22a193.35,193.35,0,0,0,17.79,15.72A141,141,0,0,0,134,378.58a72.15,72.15,0,0,0,22,7.7l1.86.29-.09,1.72v0a30.33,30.33,0,0,1-1.35,8.55,18,18,0,0,1-1.93,4.11l-.56.86a6.34,6.34,0,0,0-.44.72l-.19.36-.14.33a2.88,2.88,0,0,0-.18.58c0,.33,0,.46.07.6a.14.14,0,0,1,0,.07l.08.07a1.07,1.07,0,0,1,.14.16l.5.37a12.39,12.39,0,0,0,3.21,1.15,55.4,55.4,0,0,0,7.69,1.1h-.37a5.78,5.78,0,0,0,1.93-.44c.05,0,0,0,0,0s0,0,0,0a.09.09,0,0,0,0,.07h0s0,0,0-.08a.57.57,0,0,0,0-.14c0-.17,0-.28-.08-.49a25.76,25.76,0,0,0-.82-2.59c-.32-.93-.67-1.89-1-2.88a24.11,24.11,0,0,1-.82-3.12,25.08,25.08,0,0,1-.38-3.21,33.38,33.38,0,0,1,.25-6.33l.21-1.55,1.61-.18h0a60.37,60.37,0,0,0,8.06-1.57,73.47,73.47,0,0,0,7.82-2.66,98.9,98.9,0,0,0,14.8-7.51,165.57,165.57,0,0,0,26.4-20.5,251.92,251.92,0,0,0,22.88-24.55,296.6,296.6,0,0,0,19.76-27.15,296.68,296.68,0,0,0,29.9-59.68A218.41,218.41,0,0,0,303.69,211,153.3,153.3,0,0,0,306.69,178.66Zm16,0a169,169,0,0,1-4.63,35.41,230.49,230.49,0,0,1-10.72,33.53,285.21,285.21,0,0,1-15.05,31.5,299.21,299.21,0,0,1-18.55,29.4,305.37,305.37,0,0,1-21.65,27.11,257,257,0,0,1-24.78,24.28,171.78,171.78,0,0,1-28.54,19.88,104.58,104.58,0,0,1-16,7.11,79.72,79.72,0,0,1-8.5,2.35,68,68,0,0,1-8.77,1.19h0l1.82-1.73a29.76,29.76,0,0,0-.23,5.57,21.87,21.87,0,0,0,.32,2.7,19.5,19.5,0,0,0,.7,2.64c.29.92.62,1.83,1,2.77a28.89,28.89,0,0,1,.95,3.1,8.64,8.64,0,0,1,.15,1,5.85,5.85,0,0,1,0,.6,2.61,2.61,0,0,1-.06.65,5.42,5.42,0,0,1-.19.72,5.12,5.12,0,0,1-.39.73,3,3,0,0,1-.51.6,2.46,2.46,0,0,1-.56.45,6.32,6.32,0,0,1-.56.33,5,5,0,0,1-.51.21l-.51.18-.45.11a14.91,14.91,0,0,1-1.74.28l-.15,0-.21,0a61,61,0,0,1-8.3-1.2,15.87,15.87,0,0,1-4.34-1.62c-.38-.25-.76-.53-1.13-.83l-.54-.59c-.08-.1-.17-.19-.25-.3l-.22-.38a6.35,6.35,0,0,1-.38-.79c-.08-.29-.14-.58-.2-.87a3.41,3.41,0,0,1,0-.84,3.87,3.87,0,0,1,.07-.79,6.92,6.92,0,0,1,.4-1.35l.25-.6.29-.53a10.8,10.8,0,0,1,.61-1l.55-.83a13.68,13.68,0,0,0,1.47-3.19,26.1,26.1,0,0,0,1.16-7.36v0l1.76,2a76.87,76.87,0,0,1-24-6.72,136.79,136.79,0,0,1-21.45-12.33c-13.57-9.38-25.7-20.58-36.87-32.6a308.46,308.46,0,0,1-54.14-82l-2.49-5.69-2.31-5.78c-.77-1.92-1.53-3.85-2.19-5.83l-2-5.89A215.83,215.83,0,0,1,3.6,209.15L3,206.06c-.21-1-.35-2.08-.52-3.12l-1-6.25-.66-6.32c-.1-1.06-.24-2.11-.31-3.17L.33,184c-.07-2.12-.25-4.27-.24-6.38l.05-6.32v-1.58l.08-1.58L.4,165c.12-2.1.19-4.22.44-6.31a182.46,182.46,0,0,1,36-93.94,160.5,160.5,0,0,1,17-19.21c3-3,6.31-5.82,9.56-8.64l5.06-4,1.27-1L71.06,31l2.63-1.87,2.63-1.88,2.73-1.74,2.72-1.74,1.37-.87,1.4-.8,5.63-3.21L96,15.92a163.7,163.7,0,0,1,24.23-9.35,162.93,162.93,0,0,1,25.53-5.08A151.14,151.14,0,0,1,171.77.85,148.39,148.39,0,0,1,222.29,13,144.46,144.46,0,0,1,245.16,25.4a160.2,160.2,0,0,1,20.47,15.88,178,178,0,0,1,17.61,18.83,180.78,180.78,0,0,1,33.7,68.33l1.49,6.18,1.21,6.23c.19,1.05.43,2.08.57,3.13l.46,3.14c.28,2.09.66,4.17.84,6.28A205.23,205.23,0,0,1,322.73,178.66Z"/><path class="cls-1" d="M149.74,401.77a11.47,11.47,0,0,1-1.47-1.64,5.78,5.78,0,0,1-1.12-2.9,4.52,4.52,0,0,1,.39-2.22,4.89,4.89,0,0,1,1.25-1.66,7,7,0,0,1,2.53-1.36,15.1,15.1,0,0,1,4.12-.59,25.17,25.17,0,0,1,3.72.25,30.29,30.29,0,0,1,7,1.83,26,26,0,0,1,6.49,3.56,17.46,17.46,0,0,1,5.17,6,13.4,13.4,0,0,1,1.3,4,11.83,11.83,0,0,1-.08,4.35,9.69,9.69,0,0,1-2,4.05,11.9,11.9,0,0,1-3.06,2.64,28.48,28.48,0,0,1-6.52,2.69,64.08,64.08,0,0,0-12.32,4.48A33.63,33.63,0,0,0,145,433a24.43,24.43,0,0,0-3.44,5.14,25.47,25.47,0,0,0-2.08,5.63,46.46,46.46,0,0,0-1.2,11.78c0,2,.14,4,.29,6.05l.12,1.52c.07.43.09.86.17,1.3a26,26,0,0,0,.57,2.64c.25.88.54,1.78.87,2.68s.73,1.8,1.15,2.71a59.56,59.56,0,0,0,2.89,5.43,119.5,119.5,0,0,0,7.27,10.65c2.62,3.49,5.36,6.94,8.09,10.46a70.88,70.88,0,0,1,7.48,11.27,40.17,40.17,0,0,1,3.24,26.89,43.35,43.35,0,0,1-5,12.38c1.92-8.61,2.55-17.19.65-25.18A61.55,61.55,0,0,0,162,512.77a78.05,78.05,0,0,0-6.08-11c-4.73-7.17-11.06-13.12-16.92-20a40.89,40.89,0,0,1-7.44-12.11,22.86,22.86,0,0,1-1-3.69c-.14-.64-.22-1.29-.31-1.94l-.15-1.73a47,47,0,0,1,0-7,34.78,34.78,0,0,1,3.89-13.73A31.86,31.86,0,0,1,143.15,431a64.23,64.23,0,0,1,11.58-6.63,81.43,81.43,0,0,0,11.56-6.16,27.24,27.24,0,0,0,4.76-3.87,8.76,8.76,0,0,0,1.47-2,5.18,5.18,0,0,0,.55-1.94,7.09,7.09,0,0,0-.19-2.14,7.6,7.6,0,0,0-.8-2.16,11.87,11.87,0,0,0-3.39-3.73A25.84,25.84,0,0,0,158.18,398a21.07,21.07,0,0,0-2.79-.31,9.34,9.34,0,0,0-2.36.15c-.27.06-.48.16-.38.07a1.4,1.4,0,0,0,.24-.39,1.27,1.27,0,0,0,.1-.63c-.05-.29-.1-.13,0,.11a5,5,0,0,0,.62.88Z"/><polygon class="cls-1" points="161.45 409 161.7 466 156.2 466 156.45 409 161.45 409"/></g><g id="chip"><polygon class="cls-1" points="129.69 563.06 123.69 563.06 123.69 550.96 105.43 542.82 101.97 526.13 107.84 524.91 110.68 538.59 129.69 547.07 129.69 563.06"/><path class="cls-1" d="M102.61,525.94a11,11,0,1,1,11-11A11,11,0,0,1,102.61,525.94Zm0-16.05a5,5,0,1,0,5,5A5,5,0,0,0,102.61,509.89Z"/><polygon class="cls-1" points="145.74 562.77 139.74 562.77 139.74 538.46 127.41 529 127.41 504.02 133.41 504.02 133.41 526.04 145.74 535.5 145.74 562.77"/><path class="cls-1" d="M130.41,504.16a11,11,0,1,1,11-11A11,11,0,0,1,130.41,504.16Zm0-16.05a5,5,0,1,0,5,5A5,5,0,0,0,130.41,488.11Z"/><rect class="cls-1" x="156.21" y="479.95" width="6" height="83.06" transform="translate(-1.8 0.55) rotate(-0.2)"/><path class="cls-1" d="M159.07,484.67a11,11,0,1,1,11-11A11,11,0,0,1,159.07,484.67Zm0-16.05a5,5,0,1,0,5,5A5,5,0,0,0,159.07,468.62Z"/><polygon class="cls-1" points="195.03 563.06 189.03 563.06 189.03 547.07 208.03 538.59 210.87 524.91 216.74 526.13 213.28 542.82 195.03 550.96 195.03 563.06"/><path class="cls-1" d="M216.1,525.94a11,11,0,1,1,11-11A11,11,0,0,1,216.1,525.94Zm0-16.05a5,5,0,1,0,5,5A5,5,0,0,0,216.1,509.89Z"/><polygon class="cls-1" points="178.98 562.77 172.98 562.77 172.98 535.5 185.3 526.04 185.3 504.02 191.3 504.02 191.3 529 178.98 538.46 178.98 562.77"/><path class="cls-1" d="M188.3,504.16a11,11,0,1,1,11-11A11,11,0,0,1,188.3,504.16Zm0-16.05a5,5,0,1,0,5,5A5,5,0,0,0,188.3,488.11Z"/><polygon class="cls-1" points="210.87 675.72 208.03 662.04 189.03 653.56 189.03 637.57 195.03 637.57 195.03 649.66 213.28 657.81 216.74 674.5 210.87 675.72"/><path class="cls-1" d="M216.1,696.74a11,11,0,1,1,11-11A11,11,0,0,1,216.1,696.74Zm0-16a5,5,0,1,0,5,5A5,5,0,0,0,216.1,680.69Z"/><polygon class="cls-1" points="191.3 696.6 185.3 696.6 185.3 674.58 172.98 665.13 172.98 637.86 178.98 637.86 178.98 662.17 191.3 671.63 191.3 696.6"/><path class="cls-1" d="M188.3,718.52a11,11,0,1,1,11-11A11,11,0,0,1,188.3,718.52Zm0-16a5,5,0,1,0,5,5A5,5,0,0,0,188.3,702.47Z"/><rect class="cls-1" x="156.5" y="636.42" width="6" height="84.25" transform="translate(-2.31 0.55) rotate(-0.19)"/><path class="cls-1" d="M159.64,738a11,11,0,1,1,11-11A11,11,0,0,1,159.64,738Zm0-16a5,5,0,1,0,5,5A5,5,0,0,0,159.64,722Z"/><polygon class="cls-1" points="107.84 675.72 101.97 674.5 105.43 657.81 123.69 649.66 123.69 637.57 129.69 637.57 129.69 653.56 110.68 662.04 107.84 675.72"/><path class="cls-1" d="M102.61,696.74a11,11,0,1,1,11-11A11,11,0,0,1,102.61,696.74Zm0-16a5,5,0,1,0,5,5A5,5,0,0,0,102.61,680.69Z"/><polygon class="cls-1" points="133.41 696.6 127.41 696.6 127.41 671.63 139.74 662.17 139.74 637.86 145.74 637.86 145.74 665.13 133.41 674.58 133.41 696.6"/><path class="cls-1" d="M130.41,718.52a11,11,0,1,1,11-11A11,11,0,0,1,130.41,718.52Zm0-16a5,5,0,1,0,5,5A5,5,0,0,0,130.41,702.47Z"/><polygon class="cls-1" points="86.9 632.26 61.92 632.26 61.92 626.26 83.94 626.26 93.4 613.94 120.67 613.94 120.67 619.94 96.36 619.94 86.9 632.26"/><path class="cls-1" d="M51,640.28a11,11,0,1,1,11-11A11,11,0,0,1,51,640.28Zm0-16a5,5,0,1,0,5,5A5,5,0,0,0,51,624.23Z"/><rect class="cls-1" x="37.85" y="597.46" width="84.25" height="6" transform="translate(-2.05 0.28) rotate(-0.2)"/><path class="cls-1" d="M31.54,611.63a11,11,0,1,1,11-11A11,11,0,0,1,31.54,611.63Zm0-16a5,5,0,1,0,5,5A5,5,0,0,0,31.54,595.58Z"/><polygon class="cls-1" points="120.67 586.69 93.4 586.69 83.94 574.37 61.92 574.37 61.92 568.37 86.9 568.37 96.36 580.69 120.67 580.69 120.67 586.69"/><path class="cls-1" d="M51,582.39a11,11,0,1,1,11-11A11,11,0,0,1,51,582.39Zm0-16a5,5,0,1,0,5,5A5,5,0,0,0,51,566.35Z"/><polygon class="cls-1" points="225.32 587.27 198.04 587.27 198.04 581.27 222.36 581.27 231.81 568.94 256.79 568.94 256.79 574.94 234.77 574.94 225.32 587.27"/><path class="cls-1" d="M267.68,583a11,11,0,1,1,11-11A11,11,0,0,1,267.68,583Zm0-16.05a5,5,0,1,0,5,5A5,5,0,0,0,267.68,566.92Z"/><rect class="cls-1" x="196.61" y="597.74" width="84.25" height="6" transform="translate(-2.05 0.82) rotate(-0.2)"/><path class="cls-1" d="M287.17,611.63a11,11,0,1,1,11-11A11,11,0,0,1,287.17,611.63Zm0-16a5,5,0,1,0,5,5A5,5,0,0,0,287.17,595.58Z"/><polygon class="cls-1" points="256.79 632.83 231.81 632.83 222.36 620.51 198.04 620.51 198.04 614.51 225.32 614.51 234.77 626.83 256.79 626.83 256.79 632.83"/><path class="cls-1" d="M267.68,640.86a11,11,0,1,1,11-11A11,11,0,0,1,267.68,640.86Zm0-16.05a5,5,0,1,0,5,5A5,5,0,0,0,267.68,624.81Z"/><path class="cls-1" d="M187.19,642.86H131.52a15,15,0,0,1-15-15V572.19a15,15,0,0,1,15-15h55.67a15,15,0,0,1,15,15v55.67A15,15,0,0,1,187.19,642.86Zm-55.67-79.67a9,9,0,0,0-9,9v55.67a9,9,0,0,0,9,9h55.67a9,9,0,0,0,9-9V572.19a9,9,0,0,0-9-9Z"/><path class="cls-1" d="M174.8,622.23H145.06a7.34,7.34,0,0,1-7.33-7.34V585.16a7.34,7.34,0,0,1,7.33-7.33H174.8a7.34,7.34,0,0,1,7.33,7.33v29.73A7.34,7.34,0,0,1,174.8,622.23Zm-29.74-38.4a1.34,1.34,0,0,0-1.33,1.33v29.73a1.34,1.34,0,0,0,1.33,1.34H174.8a1.34,1.34,0,0,0,1.33-1.34V585.16a1.34,1.34,0,0,0-1.33-1.33Z"/></g><g id="voltages"><polygon class="cls-1" points="152.61 346.5 103.64 267.2 111.53 267.2 86.26 227.54 95.74 227.54 54.66 169 37.28 170.89 72.04 216.21 60.98 214.32 87.84 250.2 73.62 248.31 152.61 346.5"/><polygon class="cls-1" points="169.28 346.5 218.26 267.2 210.36 267.2 235.64 227.54 226.16 227.54 267.23 169 284.61 170.89 249.85 216.21 260.91 214.32 234.06 250.2 248.27 248.31 169.28 346.5"/><polygon class="cls-1" points="227.41 314.22 201.52 338.95 200.03 328.06 168.49 377.79 194.64 355.04 196.85 363.82 227.41 314.22"/><polygon class="cls-1" points="169.2 317.74 195.14 207.67 187.63 211.12 201.35 155.74 192.34 159.88 216.18 76.48 233.18 71 211.93 136.86 221.95 129.92 205.74 181.77 218.77 173.45 169.2 317.74"/><polygon class="cls-1" points="156.18 317.74 130.24 207.67 137.75 211.12 124.03 155.74 133.04 159.88 109.21 76.48 92.2 71 113.46 136.86 103.44 129.92 119.64 181.77 106.62 173.45 156.18 317.74"/><polygon class="cls-1" points="94.49 314.22 120.37 338.95 121.86 328.06 153.41 377.79 127.25 355.04 125.04 363.82 94.49 314.22"/></g></g></svg>