<svg id="Layer_1" data-name="Layer 1" xmlns="http://www.w3.org/2000/svg" viewBox="0 0 484 531.51"><defs><style>.cls-1,.cls-2,.cls-3{fill:#fff;}.cls-2{stroke:#231f20;stroke-miterlimit:10;stroke-width:0.25px;}.cls-3{opacity:0.2;}</style></defs><title>props</title><g id="balloon_box"><g id="box"><path id="box_bottom" class="cls-1" d="M408.86,378.79v96.77l-162,44.57V355.62l-5-10.21-5,10V520.14l-162-44.58v-97l-10-3.76V479.37a5,5,0,0,0,3.68,4.82l172,47.33c.13,0,.27.06.41.09l.12,0a4.29,4.29,0,0,0,.79.07,4.55,4.55,0,0,0,.53,0h.14a3,3,0,0,0,.52-.11l.13,0,.19,0a.38.38,0,0,1,.1,0l171.71-47.25a5,5,0,0,0,3.68-4.83V374.87Z"/><path id="box_top" class="cls-1" d="M483.79,187.45A5,5,0,0,0,480,184.2L298.65,149.71a5,5,0,0,0-4.72,1.64L270.12,179a70.55,70.55,0,0,1,11.21-6.07,75,75,0,0,1,10.32-3.58l8-9.23,170.1,32.35L412.45,260l-33.07-9.1c0,.33-.07.65-.11,1-.19,1.43-.43,2.89-.73,4.4s-.69,3.17-1.12,4.77L395,265.78,242.07,307.27,89.16,265.79,103,262l0-.45a83.57,83.57,0,0,1,1.39-10.63L71.7,260,14.43,192.42l170.1-32.35,32.54,37.71a75.34,75.34,0,0,1,10.38-3.28l-37.23-43.15a5,5,0,0,0-4.72-1.64L4.14,184.2a5,5,0,0,0-2.88,8.15l62.87,74.14L25.85,343.34a5,5,0,0,0,2.72,6.91L193,412.13a5,5,0,0,0,6.24-2.45l42.85-86,42.85,86a5,5,0,0,0,4.47,2.77,4.89,4.89,0,0,0,1.76-.32l164.42-61.88a5,5,0,0,0,2.71-6.91L420,266.5l62.88-74.15A5,5,0,0,0,483.79,187.45ZM192.28,401.18l-155-58.34,35.45-71.15,162.15,44Zm254.58-58.34-155,58.34-42.59-85.5,162.16-44Z"/></g><g id="balloon_right"><path class="cls-1" d="M338.7,222.54c-2.37-9.47-12.69-23-28.33-23a28.42,28.42,0,0,0-20.8,9.48c1.14.93,2.25,1.89,3.3,2.88a66,66,0,0,1,4.85,5.06,24.12,24.12,0,0,1,11.43-3.42C324.79,213.54,342,235.87,338.7,222.54Z"/><path class="cls-2" d="M369,224.78a59.6,59.6,0,0,0-5.75-16.9,53.93,53.93,0,0,0-11-14.36,59.63,59.63,0,0,0-14.88-10.08,69,69,0,0,0-16.87-5.57,62.16,62.16,0,0,0-9-1.07c-.76,0-1.59,0-2.35,0s-1.51.05-2.27.09c-1.51.08-3,.23-4.49.43a65.43,65.43,0,0,0-17.19,4.77,60.2,60.2,0,0,0-20.1,14,75.53,75.53,0,0,1,10.21,4,50.3,50.3,0,0,1,13.92-8.4A54.76,54.76,0,0,1,303.78,188a45.09,45.09,0,0,1,7.3-.25,51,51,0,0,1,7.34,1c9.85,2,19.36,6.16,26.74,12.65a43.36,43.36,0,0,1,9.3,11.32,49.47,49.47,0,0,1,5.28,13.94,66.51,66.51,0,0,1,1.46,13q.06,3.31-.14,6.64c-.07,1.12-.16,2.23-.26,3.34s-.24,2.13-.41,3.19a64.84,64.84,0,0,1-3.74,13.3l9.56-2.59a70.67,70.67,0,0,0,2.53-9.21c.24-1.22.45-2.47.61-3.72s.29-2.41.41-3.62q.35-3.65.41-7.33A76.56,76.56,0,0,0,369,224.78Z"/></g><g id="balloon_mid"><path class="cls-1" d="M184.49,281.6l9.24,2.5c-.42-1.4-.79-2.8-1.1-4.21a40.17,40.17,0,0,1-1-7.41q-.18-3.93,0-7.81a67.6,67.6,0,0,1,2.44-15.15,50.92,50.92,0,0,1,6.16-13.66,48.59,48.59,0,0,1,22.8-18.49,54.75,54.75,0,0,1,14.48-3.68,45,45,0,0,1,7.3-.24,51,51,0,0,1,7.33,1c9.85,2,19.36,6.17,26.75,12.65a43.93,43.93,0,0,1,9.3,11.32,50.15,50.15,0,0,1,5.28,14,66.51,66.51,0,0,1,1.45,13c.05,2.2,0,4.42-.14,6.64-.07,1.11-.15,2.22-.26,3.34s-.23,2.12-.41,3.19c-.29,1.79-.69,3.58-1.15,5.35l9.2-2.52c.09-.44.21-.88.3-1.33.24-1.23.45-2.47.61-3.72s.29-2.42.41-3.63c.23-2.42.37-4.87.41-7.33a75,75,0,0,0-1.15-14.82,59.5,59.5,0,0,0-5.75-16.9,54.14,54.14,0,0,0-11-14.37,59.72,59.72,0,0,0-14.87-10.07,68.26,68.26,0,0,0-16.88-5.57,62.16,62.16,0,0,0-9-1.07c-.76,0-1.59,0-2.35,0s-1.51,0-2.27.08c-1.5.09-3,.24-4.49.43A65.07,65.07,0,0,0,219,207.77a58.66,58.66,0,0,0-27,22.92,60.4,60.4,0,0,0-7,16.36,71.67,71.67,0,0,0-2.31,17.32c0,2.89,0,5.77.26,8.62A48.34,48.34,0,0,0,184.49,281.6Z"/><path class="cls-1" d="M271.7,249.92c3.33,13.33-13.91-9-29.55-9s-30.12,22.67-27.12,9c2.09-9.53,12.69-23,28.34-23S269.33,240.45,271.7,249.92Z"/></g><g id="balloon_right-2" data-name="balloon_right"><path class="cls-1" d="M174.91,215.18a49.64,49.64,0,0,1,7.33,1A66.6,66.6,0,0,1,189,217.9a67.81,67.81,0,0,1,8.64-8.64,70.77,70.77,0,0,0-13.29-4,62.16,62.16,0,0,0-9-1.07c-.76,0-1.59,0-2.34,0s-1.52,0-2.28.09c-1.5.08-3,.23-4.49.43a64.67,64.67,0,0,0-17.19,4.77,58.72,58.72,0,0,0-27,22.92,60.46,60.46,0,0,0-7,16.37A69.36,69.36,0,0,0,113,262.21l8.81,2.39a66.72,66.72,0,0,1,2.32-13.35,50.86,50.86,0,0,1,6.16-13.65,48.55,48.55,0,0,1,22.8-18.5,54.75,54.75,0,0,1,14.48-3.68A46.19,46.19,0,0,1,174.91,215.18Z"/><path class="cls-1" d="M181.89,228.34a26.16,26.16,0,0,0-8.52-1.42c-15.65,0-26.25,13.47-28.34,23-3,13.67,11.47-9,27.12-9a18.9,18.9,0,0,1,4.2.5A70.39,70.39,0,0,1,181.89,228.34Z"/></g><g id="balloon_mid-high"><path class="cls-1" d="M183.54,79.57a82.92,82.92,0,0,0,6.17,16.12A117.66,117.66,0,0,0,209,123.43a88.51,88.51,0,0,0,12.73,11.3,43.91,43.91,0,0,0,14.09,7c0,.37,0,.72,0,1.05a6.37,6.37,0,0,0-2.3,1.79,5.56,5.56,0,0,0-1,2.08c0,.11,0,.18-.06.27-.83.75-1.7,1.49-2.57,2.22l-1.35,1.09-.68.55-.08.06-.13.11-.22.21a3.12,3.12,0,0,0-.68,1.14,3,3,0,0,0,2.43,3.9l.3,0H230c.24,0,.5,0,.75,0,.51,0,1,.1,1.57.19,2.15.32,4.5,1,7.19,1.19l.48,0-.69,35,.92-.07c1-.06,1.85-.09,2.64-.1h1l1.28,0,.14-35.29,1.88-.36c1.15-.23,2.24-.44,3.28-.55.52-.06,1-.08,1.5-.09h.21l.3,0a2.8,2.8,0,0,0,.63-.17,3,3,0,0,0,1.88-3.13,3,3,0,0,0-.43-1.25l-.16-.23,0,0-.07-.08-.25-.34a43,43,0,0,1-3.23-5,1.26,1.26,0,0,0,.76-.64,1.29,1.29,0,0,0-.52-1.7,9.32,9.32,0,0,0-1.59-.71,9.69,9.69,0,0,1-.33-1.34,46.14,46.14,0,0,0,11.57-5.5,81.9,81.9,0,0,0,11.42-8.93,110,110,0,0,0,18.27-22.27,82.26,82.26,0,0,0,11.15-27c.24-1.23.45-2.47.61-3.72s.29-2.42.41-3.63q.35-3.64.41-7.33a75.08,75.08,0,0,0-1.15-14.83A59.6,59.6,0,0,0,296,31.32a54.09,54.09,0,0,0-11-14.36A59.76,59.76,0,0,0,270.18,6.88,68.65,68.65,0,0,0,253.3,1.32a60.78,60.78,0,0,0-9-1.07c-.76,0-1.59,0-2.35,0s-1.51,0-2.27.08c-1.5.09-3,.23-4.49.43A65.07,65.07,0,0,0,218,5.52a58.66,58.66,0,0,0-27,22.92,60.4,60.4,0,0,0-7,16.36,71.53,71.53,0,0,0-2.31,17.32q-.07,4.34.26,8.62A49.77,49.77,0,0,0,183.54,79.57Zm62.64,72.36a23.15,23.15,0,0,1-6.36.71,48.8,48.8,0,0,1-5.31-.88,52.68,52.68,0,0,0,4.06-3.8,13.41,13.41,0,0,0,1.38-1.72,7.45,7.45,0,0,0,.37-.66,4.13,4.13,0,0,0,.29-.81,21.37,21.37,0,0,1,3.31-.12l.84.07a22.13,22.13,0,0,0,1.23,2.83,42.3,42.3,0,0,0,2.36,4C247.6,151.66,246.87,151.8,246.18,151.93ZM190.67,62.41a67.6,67.6,0,0,1,2.44-15.14,50.78,50.78,0,0,1,6.16-13.66,48.59,48.59,0,0,1,22.8-18.49,54.75,54.75,0,0,1,14.48-3.68,46.22,46.22,0,0,1,7.3-.25,52.47,52.47,0,0,1,7.33,1c9.85,2,19.36,6.17,26.75,12.65a43.93,43.93,0,0,1,9.3,11.32,50.15,50.15,0,0,1,5.28,13.95,66.49,66.49,0,0,1,1.45,13q.07,3.32-.14,6.65c-.07,1.11-.15,2.22-.26,3.33s-.23,2.13-.41,3.2c-1.38,8.54-4.82,16.93-9.21,24.74a103.24,103.24,0,0,1-16.26,21.54,75.55,75.55,0,0,1-10.18,8.77,37.94,37.94,0,0,1-11.59,5.86l-1.85.5-.06,1.8v.07a13.86,13.86,0,0,0,.07,2.23,22.77,22.77,0,0,0-3.21-.1c0-.81-.13-1.58-.23-2.33l-.23-1.63-1.72-.45h0c-4.79-1.2-9.28-4-13.4-7.17a80.89,80.89,0,0,1-11.36-11,113.38,113.38,0,0,1-9.5-12.8,109,109,0,0,1-7.66-13.91,74.32,74.32,0,0,1-5.1-14.7,40.17,40.17,0,0,1-1-7.41Q190.47,66.3,190.67,62.41Z"/><path class="cls-1" d="M271,46.37c3.33,13.33-13.91-9-29.56-9s-30.11,22.67-27.11,9c2.09-9.53,12.68-23,28.33-23S268.62,36.9,271,46.37Z"/><path class="cls-3" d="M218.35,104.45c-2.88-13.33,10.89,5.42,24.36,5.42s27-19.08,24.43-5.42c-1.8,9.53-10.92,23-24.4,23S220.38,113.92,218.35,104.45Z"/></g></g></svg>