<?xml version="1.0" encoding="utf-8"?>
<!-- Generator: Adobe Illustrator 22.0.0, SVG Export Plug-In . SVG Version: 6.00 Build 0)  -->
<svg version="1.1" id="Layer_1" xmlns="http://www.w3.org/2000/svg" xmlns:xlink="http://www.w3.org/1999/xlink" x="0px" y="0px"
	 viewBox="0 0 390.3 577.2" style="enable-background:new 0 0 390.3 577.2;" xml:space="preserve">
<style type="text/css">
	.st0{fill:#FFFFFF;}
	.st1{opacity:0.2;fill:#FFFFFF;enable-background:new    ;}
</style>
<g id="Social_icon">
	<g id="balloons">
		<path class="st0" d="M368.4,121.5c-1.1-5.9-3-11.6-5.8-16.9c-2.8-5.4-6.6-10.2-11-14.4c-4.4-4.1-9.4-7.5-14.9-10.1
			c-5.4-2.6-11-4.5-16.9-5.6c-3-0.6-6-0.9-9-1.1c-0.8,0-1.6,0-2.3,0s-1.5,0-2.3,0.1c-1.5,0.1-3,0.2-4.5,0.4
			c-5.9,0.8-11.7,2.4-17.2,4.8c-11.1,4.7-20.5,12.7-27,22.9c-3.1,5.1-5.5,10.6-7,16.4c-1.5,5.7-2.2,11.5-2.3,17.3
			c-0.1,2.9,0,5.8,0.3,8.6c0.2,3,0.7,5.9,1.5,8.8c1.5,5.6,3.6,11,6.3,16.1c5.1,10.1,11.6,19.5,19.3,27.7c3.9,4.2,8.1,8,12.7,11.3
			c4.2,3.2,9,5.5,14.1,7c0,0.4,0,0.7,0,1c-0.9,0.4-1.7,1-2.3,1.8c-0.5,0.6-0.8,1.3-1,2.1c0,0.1,0,0.2,0,0.3
			c-0.8,0.8-1.7,1.5-2.6,2.2l-1.4,1.1l-0.7,0.5l-0.1,0.1l-0.1,0.1l-0.2,0.2c-0.3,0.3-0.5,0.7-0.7,1.1c-0.3,0.8-0.2,1.8,0.3,2.5
			c0.5,0.7,1.2,1.3,2.1,1.4c0.1,0,0.2,0,0.3,0h0.4h0.8c0.5,0,1,0.1,1.6,0.2c2.1,0.3,4.5,1,7.2,1.2h0.5l-1.6,80.7
			c2.2,0,4.4,0.2,6.6,0.5l0,0l0.3-81.6l1.9-0.4c1.1-0.2,2.3-0.4,3.3-0.5c0.5-0.1,1-0.1,1.5-0.1h0.2h0.3c0.2,0,0.4-0.1,0.6-0.2
			c0.4-0.2,0.8-0.4,1.1-0.7c0.6-0.6,0.9-1.5,0.8-2.4c0-0.4-0.2-0.9-0.4-1.3l-0.2-0.2l0,0l-0.1-0.1l-0.3-0.3c-1.2-1.6-2.3-3.3-3.2-5
			c0.7-0.2,1.1-0.9,0.8-1.6c-0.1-0.3-0.3-0.6-0.6-0.7c-0.5-0.3-1-0.5-1.6-0.7c-0.1-0.4-0.2-0.9-0.3-1.3c4.1-1.3,8-3.1,11.6-5.5
			c4.1-2.6,7.9-5.6,11.4-8.9c7-6.6,13.2-14.1,18.3-22.3c5.3-8.3,9.1-17.4,11.1-27c0.3-1.2,0.5-2.5,0.6-3.7s0.3-2.4,0.4-3.6
			c0.2-2.4,0.4-4.9,0.4-7.3C369.7,131.4,369.3,126.5,368.4,121.5z M296.2,224.6L296.2,224.6z M312.8,225.3c-2.1,0.5-4.2,0.8-6.4,0.7
			c-1.8-0.2-3.6-0.5-5.3-0.9c1.4-1.2,2.8-2.5,4.1-3.8c0.5-0.5,1-1.1,1.4-1.7c0.1-0.2,0.3-0.4,0.4-0.7c0.1-0.3,0.2-0.5,0.3-0.8
			c1.1-0.1,2.2-0.2,3.3-0.1l0.8,0.1c0.3,1,0.7,1.9,1.2,2.8c0.7,1.4,1.5,2.7,2.4,4C314.2,225,313.5,225.1,312.8,225.3L312.8,225.3z
			 M318.5,224.6L318.5,224.6z M360.4,143c-0.1,1.1-0.1,2.2-0.3,3.3s-0.2,2.1-0.4,3.2c-1.4,8.6-4.8,16.9-9.2,24.7
			c-4.5,7.9-9.9,15.1-16.3,21.5c-3.1,3.2-6.5,6.2-10.2,8.8c-3.5,2.6-7.4,4.6-11.6,5.9l-1.9,0.5l-0.1,1.8v0.1c0,0.7,0,1.5,0.1,2.2
			c-1.1-0.1-2.1-0.1-3.2-0.1c0-0.8-0.1-1.6-0.2-2.3L307,211l-1.7-0.4l0,0c-4.8-1.2-9.3-4-13.4-7.2c-4.1-3.3-7.9-7-11.4-11
			c-3.5-4-6.6-8.3-9.5-12.8c-2.9-4.4-5.4-9.1-7.7-13.9c-2.2-4.7-3.9-9.6-5.1-14.7c-0.6-2.4-0.9-4.9-1-7.4c-0.1-2.6-0.1-5.2,0-7.8
			c0.2-5.1,1.1-10.2,2.4-15.2c1.4-4.8,3.5-9.4,6.2-13.6c5.5-8.4,13.5-14.8,22.8-18.5c4.6-1.9,9.5-3.1,14.5-3.7
			c2.4-0.3,4.9-0.4,7.3-0.3c2.5,0.2,4.9,0.5,7.3,1c9.9,2,19.4,6.2,26.8,12.7c3.7,3.2,6.9,7,9.3,11.3c2.4,4.4,4.2,9.1,5.3,13.9
			c0.9,4.3,1.4,8.6,1.5,13C360.6,138.6,360.6,140.8,360.4,143z"/>
		<path class="st0" d="M254.2,48c-1.1-5.9-3-11.6-5.8-16.9c-2.8-5.4-6.6-10.2-11-14.4c-4.4-4.1-9.4-7.5-14.9-10.1
			c-5.4-2.6-11-4.4-16.9-5.6c-3-0.6-6-0.9-9-1.1c-0.8,0-1.6,0-2.4,0s-1.5,0-2.3,0.1c-1.5,0.1-3,0.2-4.5,0.4
			c-5.9,0.8-11.7,2.4-17.2,4.8c-11.1,4.7-20.6,12.7-27,22.9c-3.1,5.1-5.5,10.6-6.9,16.4c-1.5,5.7-2.3,11.5-2.3,17.3
			c-0.1,2.9,0,5.8,0.3,8.6c0.2,3,0.7,5.9,1.5,8.8c1.5,5.6,3.6,11,6.2,16.1c5.1,10.1,11.6,19.5,19.3,27.7c3.9,4.2,8.1,8,12.7,11.3
			c4.2,3.2,9,5.5,14.1,7c0,0.4,0,0.7,0,1.1c-0.9,0.4-1.7,1-2.3,1.8c-0.5,0.6-0.8,1.3-1,2.1l-0.1,0.3c-0.8,0.8-1.7,1.5-2.6,2.2
			l-1.3,1.1l-0.7,0.5l-0.1,0.1l-0.1,0.1c-0.1,0.1-0.2,0.1-0.2,0.2c-1.1,1.2-1,3.1,0.2,4.2c0.4,0.4,1,0.7,1.6,0.8h0.3h0.4
			c0.2,0,0.5,0,0.8,0c0.5,0,1,0.1,1.6,0.2c2.1,0.3,4.5,1,7.2,1.2h0.5l-2.4,123c1.6-0.1,3.2-0.2,4.8-0.2c0.8,0,1.7,0,2.5,0.1
			l0.5-123.2l1.9-0.4c1.1-0.2,2.2-0.4,3.3-0.6c0.5-0.1,1-0.1,1.5-0.1h0.2c0.1,0,0.2,0,0.3,0c0.2,0,0.4-0.1,0.6-0.2
			c0.4-0.2,0.8-0.4,1.1-0.7c0.6-0.6,0.9-1.5,0.8-2.4c-0.1-0.4-0.2-0.9-0.4-1.3l-0.2-0.2l0,0l-0.1-0.1l-0.3-0.3
			c-1.2-1.6-2.3-3.3-3.2-5c0.3-0.1,0.6-0.3,0.8-0.6c0.3-0.6,0.1-1.4-0.5-1.7c-0.5-0.3-1-0.5-1.6-0.7c-0.1-0.4-0.2-0.9-0.3-1.3
			c4.1-1.3,8-3.1,11.6-5.5c4.1-2.6,7.9-5.6,11.4-8.9c7-6.6,13.2-14.1,18.3-22.3c5.3-8.3,9.1-17.4,11.1-27c0.2-1.2,0.4-2.5,0.6-3.7
			s0.3-2.4,0.4-3.6c0.2-2.4,0.4-4.9,0.4-7.3C255.5,58,255.1,53,254.2,48z M182.1,151L182.1,151z M198.6,151.7
			c-2.1,0.5-4.2,0.8-6.4,0.7c-1.8-0.2-3.6-0.5-5.3-0.9c1.4-1.2,2.8-2.5,4.1-3.8c0.5-0.5,1-1.1,1.4-1.7c0.1-0.2,0.3-0.4,0.4-0.7
			c0.1-0.3,0.2-0.5,0.3-0.8c1.1-0.1,2.2-0.2,3.3-0.1c0.3,0,0.6,0,0.8,0.1c0.3,1,0.8,1.9,1.2,2.8c0.7,1.4,1.5,2.7,2.4,4
			C200,151.5,199.3,151.6,198.6,151.7L198.6,151.7z M204.3,151L204.3,151z M246.2,69.5c-0.1,1.1-0.2,2.2-0.3,3.3s-0.2,2.1-0.4,3.2
			c-1.4,8.5-4.8,16.9-9.2,24.7c-4.5,7.9-9.9,15.1-16.3,21.5c-3.1,3.2-6.5,6.2-10.2,8.8c-3.5,2.6-7.4,4.6-11.6,5.9l-1.9,0.5l-0.1,1.8
			v0.1c0,0.7,0,1.5,0.1,2.2c-1.1-0.1-2.1-0.1-3.2-0.1c0-0.8-0.1-1.6-0.2-2.3l-0.2-1.6l-1.7-0.4l0,0c-4.8-1.2-9.3-4-13.4-7.2
			c-4.1-3.3-7.9-7-11.4-11c-3.5-4-6.6-8.3-9.5-12.8c-2.9-4.4-5.5-9.1-7.7-13.9c-2.2-4.7-3.9-9.6-5.1-14.7c-0.6-2.4-0.9-4.9-1-7.4
			c-0.1-2.6-0.1-5.2,0-7.8c0.2-5.1,1.1-10.2,2.4-15.1c1.4-4.8,3.4-9.4,6.2-13.7c5.5-8.4,13.5-14.8,22.8-18.5
			c4.6-1.9,9.5-3.1,14.5-3.7c2.4-0.3,4.9-0.4,7.3-0.3c2.5,0.2,4.9,0.5,7.3,1c9.9,2,19.4,6.2,26.7,12.6c3.7,3.2,6.9,7,9.3,11.3
			c2.5,4.4,4.2,9.1,5.3,14c0.9,4.3,1.4,8.6,1.5,13C246.4,65.1,246.4,67.3,246.2,69.5L246.2,69.5z"/>
		<path class="st0" d="M145.3,129.8c-1-5.9-3-11.6-5.8-16.9c-2.8-5.4-6.5-10.2-11-14.4c-4.4-4.1-9.4-7.5-14.9-10.1
			c-5.3-2.6-11-4.5-16.8-5.6c-3-0.6-6-0.9-9-1.1c-0.8,0-1.6,0-2.3,0s-1.5,0-2.3,0.1c-1.5,0.1-3,0.2-4.5,0.4
			c-5.9,0.8-11.7,2.4-17.2,4.8C50.4,91.8,41,99.8,34.6,110c-3.1,5.1-5.5,10.6-7,16.4c-1.5,5.7-2.2,11.5-2.3,17.3
			c0,2.9,0,5.8,0.3,8.6c0.2,3,0.7,5.9,1.5,8.8c1.5,5.6,3.6,11,6.2,16.1c5.1,10.1,11.6,19.5,19.4,27.8c3.9,4.2,8.1,8,12.7,11.3
			c4.2,3.2,9,5.5,14.1,7c0,0.3,0,0.7,0,1.1c-0.9,0.4-1.7,1-2.3,1.8c-0.5,0.6-0.8,1.3-1,2.1c0,0.1,0,0.2-0.1,0.3
			c-0.8,0.7-1.7,1.5-2.6,2.2l-1.3,1.1l-0.7,0.5l-0.1,0.1l-0.1,0.1l-0.2,0.2c-0.3,0.3-0.5,0.7-0.7,1.1c-0.5,1.6,0.4,3.3,1.9,3.8
			c0.2,0.1,0.3,0.1,0.5,0.1c0.1,0,0.2,0,0.3,0h0.4c0.2,0,0.5,0,0.7,0c0.5,0,1,0.1,1.6,0.2c2.2,0.3,4.5,1,7.2,1.2h0.5L82,312.8l0,0
			c1.3-0.1,2.5-0.1,3.8-0.1c0.9,0,1.8,0,2.7,0.1l0,0l0.3-73.9c0.7-0.1,1.3-0.2,1.9-0.4c1.2-0.2,2.2-0.4,3.3-0.5
			c0.5-0.1,1-0.1,1.5-0.1h0.2H96c0.2,0,0.4-0.1,0.6-0.2c0.4-0.2,0.8-0.4,1.1-0.7c0.9-1,1.1-2.5,0.4-3.6c-0.1-0.1-0.1-0.2-0.2-0.2
			l0,0l-0.1-0.1l-0.3-0.3c-1.2-1.6-2.3-3.3-3.2-5c0.3-0.1,0.6-0.3,0.8-0.6c0.3-0.6,0.1-1.4-0.5-1.7c-0.5-0.3-1.1-0.5-1.6-0.7
			c-0.1-0.4-0.2-0.9-0.3-1.3c4.1-1.3,8-3.1,11.6-5.5c4.1-2.6,7.9-5.6,11.4-8.9c7-6.6,13.2-14.2,18.2-22.4
			c5.3-8.3,9.1-17.4,11.1-27.1c0.2-1.2,0.4-2.5,0.6-3.7s0.3-2.4,0.4-3.6c0.2-2.4,0.4-4.9,0.4-7.3
			C146.6,139.7,146.2,134.7,145.3,129.8z M73.2,232.8L73.2,232.8z M89.7,233.5c-2.1,0.5-4.2,0.8-6.3,0.7c-1.8-0.2-3.6-0.5-5.3-0.9
			c1.4-1.2,2.8-2.5,4.1-3.8c0.5-0.5,1-1.1,1.4-1.7c0.1-0.2,0.3-0.4,0.4-0.7c0.1-0.3,0.2-0.5,0.3-0.8c1.1-0.1,2.2-0.2,3.3-0.1
			c0.3,0,0.6,0,0.8,0.1c0.3,1,0.8,1.9,1.2,2.8c0.7,1.4,1.5,2.7,2.4,4C91.1,233.2,90.4,233.4,89.7,233.5L89.7,233.5z M95.5,232.8
			L95.5,232.8z M137.4,151.3c-0.1,1.1-0.2,2.2-0.3,3.3s-0.2,2.1-0.4,3.2c-1.4,8.5-4.8,16.9-9.2,24.7c-4.5,7.9-9.9,15.1-16.3,21.5
			c-3.1,3.2-6.5,6.2-10.2,8.8c-3.5,2.6-7.4,4.6-11.6,5.9l-1.8,0.5l-0.1,1.8v0.1c0,0.7,0,1.5,0.1,2.2c-1.1-0.1-2.1-0.1-3.2-0.1
			c0-0.8-0.1-1.6-0.2-2.3l-0.2-1.6l-1.7-0.4l0,0c-4.8-1.2-9.3-4-13.4-7.2c-4.1-3.3-7.9-7-11.3-11c-3.5-4-6.6-8.3-9.5-12.8
			c-2.9-4.4-5.5-9.1-7.7-13.9c-2.2-4.7-3.9-9.6-5.1-14.7c-0.6-2.4-0.9-4.9-1-7.4c-0.1-2.6-0.1-5.2,0-7.8c0.2-5.1,1.1-10.2,2.4-15.1
			c1.4-4.8,3.4-9.4,6.2-13.7c5.5-8.4,13.5-14.8,22.8-18.5c4.6-1.9,9.5-3.2,14.5-3.7c2.4-0.3,4.9-0.4,7.3-0.2c2.5,0.2,4.9,0.5,7.3,1
			c9.8,2,19.4,6.2,26.7,12.7c3.7,3.2,6.9,7,9.3,11.3c2.5,4.4,4.2,9.1,5.3,13.9c0.9,4.3,1.4,8.6,1.5,13
			C137.5,146.8,137.5,149.1,137.4,151.3L137.4,151.3z"/>
		<g id="reflections">
			<g id="reflect-hard">
				<path class="st0" d="M222.9,50.9c3.3,13.3-13.9-9-29.6-9s-30.1,22.7-27.1,9c2.1-9.5,12.7-23,28.3-23S220.5,41.4,222.9,50.9z"/>
				<path class="st0" d="M113.6,131.4c3.3,13.3-13.9-9-29.6-9S54,145,57,131.4c2.1-9.5,12.7-23,28.3-23S111.3,121.9,113.6,131.4z"/>
				<path class="st0" d="M337.2,125c3.3,13.3-13.9-9-29.5-9s-30.1,22.7-27.1,9c2.1-9.5,12.7-23,28.3-23S334.9,115.5,337.2,125z"/>
			</g>
			<g id="reflect-soft">
				<path class="st1" d="M169.4,99.3c-2.9-13.3,10.9,5.4,24.4,5.4s27-19.1,24.4-5.4c-1.8,9.5-10.9,23-24.4,23
					S171.5,108.8,169.4,99.3z"/>
				<path class="st1" d="M61.1,184.7c-2.9-13.3,10.9,5.4,24.4,5.4s27-19.1,24.4-5.4c-1.8,9.5-10.9,23-24.4,23S63.1,194.1,61.1,184.7
					z"/>
				<path class="st1" d="M284.6,175.3c-2.9-13.3,10.9,5.4,24.4,5.4s27-19.1,24.4-5.4c-1.8,9.5-10.9,23-24.4,23
					S286.6,184.8,284.6,175.3z"/>
			</g>
		</g>
	</g>
	<g id="people">
		<path class="st0" d="M219.1,380.5c24.3-13.5,33.1-44.1,19.6-68.4c-13.5-24.3-44.1-33.1-68.4-19.6c-24.3,13.5-33.1,44.1-19.6,68.4
			c4.6,8.3,11.4,15.1,19.6,19.6c-18,5.5-33.6,16.9-44.4,32.3c3,1.5,5.9,3.2,8.7,5c23.8-33.2,69.9-40.8,103.1-17
			c6.5,4.6,12.1,10.3,16.8,16.7c2.8-1.9,5.7-3.6,8.6-5.1C252.4,397.2,236.9,386,219.1,380.5z M154.4,336.5c0-22.3,18-40.3,40.3-40.3
			s40.3,18,40.3,40.3s-18,40.3-40.3,40.3c0,0,0,0,0,0C172.5,376.8,154.5,358.8,154.4,336.5L154.4,336.5z"/>
		<path class="st0" d="M328.8,411.9c24.3-13.5,33.1-44.1,19.6-68.4s-44.1-33.1-68.4-19.6c-24.3,13.5-33.1,44.1-19.6,68.4
			c4.6,8.3,11.4,15.1,19.6,19.6c-35.4,10.8-59.6,43.4-59.6,80.4h10c0-40.9,33.1-74,74-74s74,33.1,74,74l0,0h10
			C388.4,455.3,364.2,422.7,328.8,411.9z M264.1,367.9c0-22.3,18-40.3,40.3-40.3s40.3,18,40.3,40.3s-18,40.3-40.3,40.3c0,0,0,0,0,0
			C282.2,408.2,264.2,390.2,264.1,367.9L264.1,367.9z"/>
	</g>
	<path class="st0" d="M1.9,492.3h10c0.5-40.4,33.4-73,74-73s73.4,32.6,74,73h10c-0.5-36.6-24.5-68.7-59.6-79.4
		c24.3-13.5,33.1-44.1,19.6-68.4c-13.5-24.3-44.1-33.1-68.4-19.6c-24.3,13.5-33.1,44.1-19.6,68.4c4.6,8.2,11.4,15,19.6,19.6
		C26.4,423.6,2.4,455.7,1.9,492.3z M45.6,369c0-22.3,18-40.3,40.3-40.3c22.3,0,40.3,18,40.3,40.3c0,22.3-18,40.3-40.3,40.3
		c0,0,0,0,0,0C63.6,409.2,45.6,391.2,45.6,369z"/>
</g>
<g>
	<path class="st0" d="M106.5,523.5c-0.2,0.3-0.4,0.6-0.6,0.8c-0.2,0.2-0.5,0.3-0.9,0.3c-0.4,0-0.8-0.2-1.3-0.6
		c-0.5-0.4-1.2-0.8-1.9-1.3c-0.8-0.5-1.7-0.9-2.8-1.3s-2.4-0.6-4-0.6c-1.5,0-2.8,0.2-3.9,0.6c-1.1,0.4-2.1,0.9-2.8,1.6
		c-0.8,0.7-1.3,1.5-1.7,2.4c-0.4,0.9-0.6,1.9-0.6,3c0,1.4,0.3,2.5,1,3.4c0.7,0.9,1.6,1.7,2.7,2.3c1.1,0.6,2.3,1.2,3.7,1.6
		c1.4,0.5,2.8,0.9,4.3,1.4c1.5,0.5,2.9,1.1,4.3,1.7c1.4,0.6,2.6,1.4,3.7,2.4c1.1,1,2,2.1,2.7,3.5c0.7,1.4,1,3.1,1,5.1
		c0,2.1-0.4,4.1-1.1,6c-0.7,1.9-1.8,3.5-3.2,4.9c-1.4,1.4-3.1,2.5-5.1,3.3c-2,0.8-4.3,1.2-6.9,1.2c-3.2,0-6-0.6-8.6-1.7
		c-2.6-1.1-4.8-2.7-6.6-4.6l1.9-3.1c0.2-0.2,0.4-0.5,0.7-0.6c0.3-0.2,0.5-0.3,0.9-0.3c0.5,0,1,0.3,1.6,0.8c0.6,0.5,1.4,1.1,2.3,1.7
		s2,1.2,3.3,1.7c1.3,0.5,2.9,0.8,4.8,0.8c1.6,0,3-0.2,4.2-0.6c1.2-0.4,2.3-1,3.1-1.8c0.9-0.8,1.5-1.7,2-2.8c0.5-1.1,0.7-2.3,0.7-3.6
		c0-1.5-0.3-2.7-1-3.6c-0.7-0.9-1.5-1.7-2.6-2.4c-1.1-0.6-2.3-1.2-3.7-1.6c-1.4-0.4-2.8-0.9-4.3-1.4s-2.9-1-4.3-1.6
		s-2.6-1.4-3.7-2.4c-1.1-1-2-2.2-2.6-3.7c-0.7-1.5-1-3.3-1-5.4c0-1.7,0.3-3.4,1-5c0.7-1.6,1.6-3,2.9-4.3c1.3-1.2,2.8-2.2,4.7-3
		c1.9-0.7,4-1.1,6.4-1.1c2.7,0,5.2,0.4,7.4,1.3c2.2,0.9,4.2,2.1,5.9,3.7L106.5,523.5z"/>
	<path class="st0" d="M162.9,540.3c0,3.6-0.6,7-1.7,10c-1.2,3-2.8,5.7-4.9,7.9s-4.6,3.9-7.6,5.1s-6.2,1.8-9.8,1.8s-6.8-0.6-9.8-1.8
		c-2.9-1.2-5.5-2.9-7.6-5.1c-2.1-2.2-3.7-4.8-4.9-7.9c-1.2-3-1.7-6.4-1.7-10s0.6-7,1.7-10c1.2-3,2.8-5.7,4.9-7.9
		c2.1-2.2,4.6-3.9,7.6-5.2c2.9-1.2,6.2-1.8,9.8-1.8s6.9,0.6,9.8,1.8c3,1.2,5.5,2.9,7.6,5.2s3.7,4.8,4.9,7.9
		C162.3,533.3,162.9,536.6,162.9,540.3z M156.1,540.3c0-3-0.4-5.7-1.2-8.1c-0.8-2.4-2-4.4-3.5-6s-3.3-2.9-5.4-3.8
		c-2.1-0.9-4.5-1.3-7.1-1.3c-2.6,0-5,0.4-7.1,1.3c-2.1,0.9-3.9,2.1-5.5,3.8s-2.7,3.7-3.5,6s-1.2,5.1-1.2,8.1s0.4,5.7,1.2,8
		s2,4.4,3.5,6c1.5,1.6,3.3,2.9,5.5,3.8c2.1,0.9,4.5,1.3,7.1,1.3c2.6,0,5-0.4,7.1-1.3c2.1-0.9,3.9-2.1,5.4-3.8c1.5-1.6,2.7-3.6,3.5-6
		C155.7,546,156.1,543.3,156.1,540.3z"/>
	<path class="st0" d="M206.2,554.6c0.4,0,0.7,0.1,1,0.4l2.6,2.8c-2,2.3-4.4,4.1-7.3,5.4s-6.3,1.9-10.3,1.9c-3.5,0-6.7-0.6-9.6-1.8
		c-2.9-1.2-5.3-2.9-7.3-5.1c-2-2.2-3.6-4.8-4.7-7.9c-1.1-3.1-1.7-6.4-1.7-10.1s0.6-7,1.8-10.1c1.2-3.1,2.9-5.7,5-7.9
		c2.2-2.2,4.7-3.9,7.7-5.1c3-1.2,6.3-1.8,9.9-1.8c3.6,0,6.7,0.6,9.3,1.7s4.9,2.6,6.9,4.5l-2.1,3c-0.2,0.2-0.3,0.4-0.5,0.6
		c-0.2,0.1-0.5,0.2-0.9,0.2c-0.3,0-0.6-0.1-0.9-0.3c-0.3-0.2-0.7-0.5-1.2-0.8c-0.5-0.3-1-0.7-1.6-1c-0.6-0.4-1.3-0.7-2.2-1
		s-1.8-0.6-2.9-0.8c-1.1-0.2-2.4-0.3-3.8-0.3c-2.6,0-5,0.4-7.2,1.3c-2.2,0.9-4,2.2-5.6,3.8s-2.8,3.7-3.7,6.1c-0.9,2.4-1.3,5-1.3,8
		c0,3,0.4,5.7,1.3,8.1c0.9,2.4,2.1,4.4,3.6,6c1.5,1.6,3.3,2.9,5.4,3.8s4.3,1.3,6.7,1.3c1.5,0,2.8-0.1,3.9-0.3s2.2-0.4,3.2-0.8
		c1-0.4,1.9-0.8,2.8-1.4c0.9-0.6,1.7-1.2,2.6-2C205.5,554.7,205.9,554.6,206.2,554.6z"/>
	<path class="st0" d="M226.3,564.6h-6.6v-48.7h6.6V564.6z"/>
	<path class="st0" d="M279.4,564.6h-5.1c-0.6,0-1.1-0.1-1.4-0.4c-0.4-0.3-0.6-0.7-0.8-1.1l-4.6-11.8h-21.9l-4.6,11.8
		c-0.2,0.4-0.4,0.8-0.8,1.1c-0.4,0.3-0.9,0.5-1.4,0.5h-5.1l19.5-48.7h6.7L279.4,564.6z M247.5,546.6h18.2l-7.6-19.8
		c-0.5-1.2-1-2.8-1.5-4.6c-0.3,0.9-0.5,1.8-0.7,2.6c-0.2,0.8-0.5,1.5-0.7,2.1L247.5,546.6z"/>
	<path class="st0" d="M292.2,559.1h21.1v5.5h-27.7v-48.7h6.6V559.1z"/>
</g>
</svg>
