<svg id="Layer_1" data-name="Layer 1" xmlns="http://www.w3.org/2000/svg" viewBox="0 0 390.29 493.32"><defs><style>.cls-1,.cls-2{fill:#fff;}.cls-2{opacity:0.2;}</style></defs><title>props</title><g id="Social_icon"><g id="balloons"><path class="cls-1" d="M369.51,121.55a59.5,59.5,0,0,0-5.75-16.9,54.14,54.14,0,0,0-11-14.37,59.72,59.72,0,0,0-14.87-10.07A68.26,68.26,0,0,0,321,74.64a62.16,62.16,0,0,0-9-1.07c-.76,0-1.59,0-2.34,0s-1.52,0-2.27.09c-1.51.08-3,.23-4.5.43a65.05,65.05,0,0,0-17.19,4.77,58.65,58.65,0,0,0-26.95,22.92,60.17,60.17,0,0,0-7,16.37,72,72,0,0,0-2.31,17.31c-.05,2.89,0,5.77.26,8.62a49.62,49.62,0,0,0,1.46,8.83A82.67,82.67,0,0,0,257.44,169a117.46,117.46,0,0,0,19.33,27.74,87.47,87.47,0,0,0,12.74,11.3,43.76,43.76,0,0,0,14.08,7c0,.38,0,.73,0,1a6.29,6.29,0,0,0-2.3,1.8,5.49,5.49,0,0,0-1,2.08c0,.1,0,.18,0,.27-.84.75-1.71,1.49-2.58,2.21l-1.35,1.1-.68.54-.08.07-.13.1-.22.21a2.94,2.94,0,0,0-.67,1.15,3,3,0,0,0,.3,2.5,3.05,3.05,0,0,0,2.12,1.39,1.55,1.55,0,0,0,.31,0h.44l.75,0c.51,0,1,.11,1.57.19,2.15.33,4.5,1,7.19,1.19l.48,0-1.57,80.7a57.09,57.09,0,0,1,6.58.45h0l.31-81.59,1.88-.37c1.15-.23,2.25-.43,3.28-.54.52-.06,1-.08,1.51-.09h.2l.31,0a2.9,2.9,0,0,0,.62-.18,3,3,0,0,0,1.07-.72,3,3,0,0,0,.81-2.4,2.78,2.78,0,0,0-.43-1.25l-.16-.24,0,0-.07-.09-.25-.33a43.83,43.83,0,0,1-3.23-5,1.28,1.28,0,0,0,.24-2.34,9.86,9.86,0,0,0-1.6-.72,9.3,9.3,0,0,1-.32-1.34,46.12,46.12,0,0,0,11.57-5.49,82.83,82.83,0,0,0,11.42-8.93,110.08,110.08,0,0,0,18.28-22.28,82.45,82.45,0,0,0,11.14-27c.25-1.23.45-2.47.61-3.72s.29-2.41.41-3.63c.23-2.42.38-4.87.41-7.32A75,75,0,0,0,369.51,121.55Zm-72.13,103h0Zm1.26,3.52Zm15.27-2.79a22.74,22.74,0,0,1-6.36.7,48.62,48.62,0,0,1-5.31-.87,51.08,51.08,0,0,0,4.06-3.81,13.41,13.41,0,0,0,1.38-1.72,5.38,5.38,0,0,0,.37-.66,4,4,0,0,0,.29-.8,19.26,19.26,0,0,1,3.32-.12l.84.06a20.92,20.92,0,0,0,1.22,2.84,43.43,43.43,0,0,0,2.36,4C315.34,225,314.61,225.12,313.91,225.26Zm5.74-.73h0ZM361.55,143c-.06,1.11-.15,2.23-.25,3.34s-.24,2.13-.41,3.19c-1.39,8.55-4.83,16.93-9.22,24.74a103.27,103.27,0,0,1-16.25,21.54,77.06,77.06,0,0,1-10.19,8.78,38,38,0,0,1-11.58,5.85l-1.86.5-.06,1.8v.07a12.8,12.8,0,0,0,.08,2.23,26.46,26.46,0,0,0-3.22-.1c0-.81-.12-1.57-.23-2.33l-.23-1.63-1.72-.44h0c-4.78-1.2-9.28-4-13.4-7.17a81.93,81.93,0,0,1-11.36-11,116.48,116.48,0,0,1-9.5-12.8,110.34,110.34,0,0,1-7.66-13.92,75,75,0,0,1-5.1-14.7,40.17,40.17,0,0,1-1-7.41c-.11-2.61-.11-5.22,0-7.81a67.6,67.6,0,0,1,2.44-15.15A50.86,50.86,0,0,1,267,106.94a48.55,48.55,0,0,1,22.8-18.5,54.35,54.35,0,0,1,14.48-3.67,45.09,45.09,0,0,1,7.3-.25,49.64,49.64,0,0,1,7.33,1c9.85,2,19.36,6.16,26.75,12.65a43.6,43.6,0,0,1,9.3,11.32,50.09,50.09,0,0,1,5.28,13.94,66.51,66.51,0,0,1,1.46,13C361.74,138.58,361.69,140.8,361.55,143Z"/><path class="cls-1" d="M255.33,48a59.6,59.6,0,0,0-5.75-16.9,53.93,53.93,0,0,0-11-14.36A59.63,59.63,0,0,0,223.72,6.69a68.88,68.88,0,0,0-16.87-5.57,62.16,62.16,0,0,0-9-1.07c-.76,0-1.59,0-2.35,0s-1.51.05-2.27.09c-1.51.09-3,.23-4.49.43a65.43,65.43,0,0,0-17.19,4.77,58.69,58.69,0,0,0-27,22.93,60.27,60.27,0,0,0-6.95,16.36,71,71,0,0,0-2.31,17.32c-.05,2.88,0,5.76.26,8.62a49.66,49.66,0,0,0,1.46,8.82,82.76,82.76,0,0,0,6.17,16.13,117.4,117.4,0,0,0,19.33,27.73,86.3,86.3,0,0,0,12.73,11.3,43.73,43.73,0,0,0,14.09,7c0,.37,0,.72,0,1.05a6.49,6.49,0,0,0-2.31,1.79,5.69,5.69,0,0,0-1,2.08l-.06.27c-.83.75-1.71,1.49-2.58,2.21l-1.34,1.1-.68.54-.08.07-.13.1a2.28,2.28,0,0,0-.22.22,3,3,0,0,0,1.75,5l.3,0h.45c.24,0,.49,0,.75,0,.51,0,1,.1,1.57.19,2.15.32,4.5,1,7.18,1.18l.48,0-2.39,123c1.58-.14,3.17-.22,4.78-.22.83,0,1.66,0,2.48.06L198.8,157l1.89-.36c1.15-.23,2.24-.44,3.28-.55.52-.06,1-.08,1.5-.09h.2a1.55,1.55,0,0,0,.31,0,3,3,0,0,0,.63-.17,2.92,2.92,0,0,0,1.07-.73,3,3,0,0,0,.81-2.4,3.1,3.1,0,0,0-.43-1.25l-.16-.24,0,0-.06-.08-.25-.34a43.83,43.83,0,0,1-3.23-5,1.26,1.26,0,0,0,.76-.64,1.29,1.29,0,0,0-.52-1.7,9.86,9.86,0,0,0-1.6-.72,9.18,9.18,0,0,1-.32-1.33,45.91,45.91,0,0,0,11.56-5.5,82.16,82.16,0,0,0,11.43-8.93,110,110,0,0,0,18.27-22.27,82.56,82.56,0,0,0,11.15-27c.24-1.23.45-2.47.61-3.73s.29-2.41.41-3.62q.35-3.64.41-7.33A75.84,75.84,0,0,0,255.33,48ZM183.2,151h0Zm1.26,3.53Zm15.26-2.8a23,23,0,0,1-6.35.71,50.93,50.93,0,0,1-5.31-.88,51,51,0,0,0,4.06-3.81,12.45,12.45,0,0,0,1.37-1.71,5,5,0,0,0,.38-.67,3.83,3.83,0,0,0,.29-.8,20.2,20.2,0,0,1,3.31-.12c.28,0,.56,0,.84.07a22.13,22.13,0,0,0,1.23,2.83,43.61,43.61,0,0,0,2.36,4C201.15,151.47,200.42,151.6,199.72,151.74Zm5.75-.73h0Zm41.9-81.5c-.07,1.11-.16,2.22-.26,3.33s-.24,2.13-.41,3.2c-1.38,8.54-4.82,16.92-9.21,24.74a103.93,103.93,0,0,1-16.26,21.54,76.17,76.17,0,0,1-10.18,8.77,37.69,37.69,0,0,1-11.59,5.85l-1.85.5-.06,1.8v.07a12.8,12.8,0,0,0,.08,2.23,24.44,24.44,0,0,0-3.21-.09c0-.81-.13-1.58-.23-2.33l-.23-1.63-1.72-.45h0c-4.79-1.2-9.28-4-13.4-7.17a80.81,80.81,0,0,1-11.36-11,115.21,115.21,0,0,1-9.5-12.8,110.29,110.29,0,0,1-7.67-13.91,74.37,74.37,0,0,1-5.09-14.71,40.06,40.06,0,0,1-1-7.4q-.18-3.93,0-7.82a67.51,67.51,0,0,1,2.44-15.14,50.78,50.78,0,0,1,6.16-13.66,48.48,48.48,0,0,1,22.8-18.49,54.39,54.39,0,0,1,14.47-3.68,46.3,46.3,0,0,1,7.3-.25,52.41,52.41,0,0,1,7.34,1c9.85,2,19.36,6.16,26.74,12.65a43.6,43.6,0,0,1,9.31,11.32,49.71,49.71,0,0,1,5.27,14,66.32,66.32,0,0,1,1.46,13C247.55,65.07,247.5,67.28,247.37,69.51Z"/><path class="cls-1" d="M146.45,129.81a58.88,58.88,0,0,0-5.75-16.9,53.72,53.72,0,0,0-11-14.37,59.54,59.54,0,0,0-14.87-10.07A68.32,68.32,0,0,0,98,82.9a62.5,62.5,0,0,0-9-1.07c-.77,0-1.59,0-2.35,0s-1.52,0-2.27.08c-1.51.09-3,.24-4.49.44a64.85,64.85,0,0,0-17.2,4.77A58.65,58.65,0,0,0,35.76,110a60.35,60.35,0,0,0-7,16.37,72,72,0,0,0-2.31,17.31c0,2.89.05,5.77.26,8.62a49.63,49.63,0,0,0,1.47,8.83,82,82,0,0,0,6.17,16.12A117.37,117.37,0,0,0,53.72,205a86.87,86.87,0,0,0,12.73,11.3,43.86,43.86,0,0,0,14.08,7,7.43,7.43,0,0,1,0,1.05,6.46,6.46,0,0,0-2.3,1.79,5.51,5.51,0,0,0-1,2.09c0,.1,0,.18-.06.27-.84.74-1.71,1.48-2.58,2.21l-1.34,1.1-.68.54-.09.07-.12.1-.22.21a3,3,0,0,0-.68,1.15,3,3,0,0,0,2.43,3.89,1.53,1.53,0,0,0,.3,0h.45c.24,0,.49,0,.74,0,.51,0,1,.11,1.57.19,2.16.33,4.5,1,7.19,1.19l.48,0L83.18,312.8h0c1.26-.09,2.53-.15,3.82-.15.89,0,1.78,0,2.66.07h0l.27-73.94c.65-.11,1.29-.24,1.89-.36,1.15-.23,2.24-.44,3.27-.54.52-.06,1-.08,1.51-.09h.2l.31,0a2.74,2.74,0,0,0,.62-.18,3.06,3.06,0,0,0,1.08-.72,3,3,0,0,0,.38-3.65A1.91,1.91,0,0,0,99,233l0,0-.06-.09-.25-.34a43.8,43.8,0,0,1-3.24-5,1.33,1.33,0,0,0,.77-.65,1.29,1.29,0,0,0-.52-1.69,8.82,8.82,0,0,0-1.61-.72,10.85,10.85,0,0,1-.32-1.34,45.79,45.79,0,0,0,11.57-5.49,82.92,82.92,0,0,0,11.43-8.93A110,110,0,0,0,135,186.36a82.47,82.47,0,0,0,11.15-27.05c.24-1.23.45-2.47.61-3.72s.29-2.42.41-3.63c.23-2.42.37-4.87.41-7.33A75.75,75.75,0,0,0,146.45,129.81Zm-72.12,103h0Zm1.26,3.52Zm15.26-2.8a22.71,22.71,0,0,1-6.35.71,46.13,46.13,0,0,1-5.31-.88,50.79,50.79,0,0,0,4.06-3.8,13.41,13.41,0,0,0,1.37-1.72,6.16,6.16,0,0,0,.38-.66,5.14,5.14,0,0,0,.29-.8,19.15,19.15,0,0,1,3.31-.12c.28,0,.56,0,.84.06a20.81,20.81,0,0,0,1.23,2.83,40.26,40.26,0,0,0,2.36,4C92.28,233.24,91.55,233.38,90.85,233.51Zm5.74-.72h0Zm41.91-81.51c-.07,1.11-.16,2.23-.26,3.34s-.24,2.13-.41,3.19c-1.38,8.54-4.83,16.93-9.22,24.74a103.27,103.27,0,0,1-16.25,21.54,77,77,0,0,1-10.18,8.78,38.25,38.25,0,0,1-11.59,5.85l-1.85.5-.07,1.8v.07a12.8,12.8,0,0,0,.08,2.23,26.46,26.46,0,0,0-3.22-.1,21.63,21.63,0,0,0-.23-2.33l-.23-1.63-1.71-.44h0c-4.79-1.2-9.29-4-13.41-7.17a81.86,81.86,0,0,1-11.35-11,114,114,0,0,1-9.5-12.8,109.16,109.16,0,0,1-7.67-13.92,74.28,74.28,0,0,1-5.09-14.7,41.06,41.06,0,0,1-1-7.41c-.11-2.61-.1-5.22,0-7.81a67.6,67.6,0,0,1,2.44-15.15,51,51,0,0,1,6.15-13.65,48.6,48.6,0,0,1,22.8-18.5A54.85,54.85,0,0,1,81.22,93a45.06,45.06,0,0,1,7.3-.24,49.77,49.77,0,0,1,7.34,1c9.84,2,19.36,6.16,26.74,12.65a43.2,43.2,0,0,1,9.3,11.32,49.36,49.36,0,0,1,5.28,13.94,66.51,66.51,0,0,1,1.46,13C138.68,146.84,138.63,149.06,138.5,151.28Z"/><g id="reflections"><g id="reflect-hard"><path class="cls-1" d="M224,50.86c3.34,13.33-13.9-9-29.55-9s-30.11,22.67-27.11,9c2.09-9.53,12.68-23,28.33-23S221.68,41.4,224,50.86Z"/><path class="cls-1" d="M114.78,131.37c3.33,13.34-13.91-9-29.56-9s-30.11,22.67-27.11,9c2.09-9.53,12.68-23,28.33-23S112.41,121.91,114.78,131.37Z"/><path class="cls-1" d="M338.38,125c3.33,13.34-13.91-9-29.55-9s-30.12,22.67-27.12,9c2.09-9.53,12.69-23,28.34-23S336,115.54,338.38,125Z"/></g><g id="reflect-soft"><path class="cls-2" d="M170.58,99.34c-2.87-13.33,10.9,5.42,24.37,5.42s27-19.09,24.43-5.42c-1.8,9.53-10.92,23-24.4,23S172.62,108.81,170.58,99.34Z"/><path class="cls-2" d="M62.19,184.67c-2.87-13.33,10.89,5.42,24.37,5.42s27-19.08,24.43-5.42c-1.8,9.53-10.92,23-24.4,23S64.23,194.14,62.19,184.67Z"/><path class="cls-2" d="M285.69,175.34c-2.87-13.33,10.89,5.42,24.37,5.42s27-19.09,24.43-5.42c-1.81,9.53-10.93,23-24.4,23S287.73,184.81,285.69,175.34Z"/></g></g></g><g id="people"><path class="cls-1" d="M220.25,380.51a50.31,50.31,0,1,0-48.75,0,84.46,84.46,0,0,0-44.41,32.25,88.14,88.14,0,0,1,8.72,5,73.88,73.88,0,0,1,119.9-.32,86.68,86.68,0,0,1,8.64-5.1A84.47,84.47,0,0,0,220.25,380.51Zm-64.68-44a40.31,40.31,0,1,1,40.3,40.31A40.35,40.35,0,0,1,155.57,336.53Z"/><path class="cls-1" d="M111.38,412.94a50.3,50.3,0,1,0-48.76,0A84.14,84.14,0,0,0,3,493.32H13a74,74,0,1,1,148,0h10A84.14,84.14,0,0,0,111.38,412.94ZM46.7,369A40.3,40.3,0,1,1,87,409.26,40.35,40.35,0,0,1,46.7,369Z"/><path class="cls-1" d="M329.91,411.94a50.31,50.31,0,1,0-48.75,0,84.14,84.14,0,0,0-59.62,80.38h10a74,74,0,1,1,148,0h10A84.14,84.14,0,0,0,329.91,411.94Zm-64.68-44a40.31,40.31,0,1,1,40.31,40.3A40.35,40.35,0,0,1,265.23,368Z"/></g></g></svg>