<svg id="Layer_1" data-name="Layer 1" xmlns="http://www.w3.org/2000/svg" viewBox="0 0 949.32 228.29"><defs><style>.cls-1{fill:#fff;}</style></defs><title>logo</title><g id="Balloon_typeLogo"><g id="baseline"><path class="cls-1" d="M103.88,175.34a1.78,1.78,0,0,1,.64.57l34.19,45.76a20.24,20.24,0,0,1-.12-2.16V175.2H142V228h-1.82a1.62,1.62,0,0,1-1.39-.75l-34.33-45.83c.07.75.11,1.46.11,2.13V228H101.2V175.2h1.86A2,2,0,0,1,103.88,175.34Z"/><path class="cls-1" d="M204.73,201.59a32,32,0,0,1-1.83,11.11,24.53,24.53,0,0,1-5.15,8.51,22.83,22.83,0,0,1-7.95,5.45,28.19,28.19,0,0,1-20.45,0,22.83,22.83,0,0,1-7.95-5.45,24.73,24.73,0,0,1-5.17-8.51,34.13,34.13,0,0,1,0-22.17A24.73,24.73,0,0,1,161.4,182a22.75,22.75,0,0,1,7.95-5.47,26.14,26.14,0,0,1,10.19-1.94,26.53,26.53,0,0,1,10.26,1.92,22.48,22.48,0,0,1,7.95,5.47,24.71,24.71,0,0,1,5.15,8.53A31.88,31.88,0,0,1,204.73,201.59Zm-4,0a30.07,30.07,0,0,0-1.53-9.92,21.26,21.26,0,0,0-4.31-7.47,18.44,18.44,0,0,0-6.7-4.68,22.54,22.54,0,0,0-8.69-1.63,22.24,22.24,0,0,0-8.61,1.63,18.74,18.74,0,0,0-6.71,4.68,21.22,21.22,0,0,0-4.37,7.47,32.62,32.62,0,0,0,0,19.87,21.4,21.4,0,0,0,4.37,7.45,18.57,18.57,0,0,0,6.71,4.66,22.41,22.41,0,0,0,8.61,1.6,22.72,22.72,0,0,0,8.69-1.6,18.28,18.28,0,0,0,6.7-4.66,21.44,21.44,0,0,0,4.31-7.45A30.09,30.09,0,0,0,200.77,201.59Z"/><path class="cls-1" d="M247.16,175.2v3.25H228.61V228h-3.8V178.45H206.15V175.2Z"/><path class="cls-1" d="M288.93,210.4a25.55,25.55,0,0,1-1.1,7.84,16,16,0,0,1-3.14,5.71,12.94,12.94,0,0,1-5,3.49,17.66,17.66,0,0,1-6.59,1.17,21.91,21.91,0,0,1-3.4-.26,23.34,23.34,0,0,1-3.54-.82c0-.35.09-.7.13-1s.07-.7.09-1.05a1.4,1.4,0,0,1,.28-.59.87.87,0,0,1,.73-.26,3.3,3.3,0,0,1,.8.12c.31.09.69.19,1.12.29s.93.19,1.49.27a12.51,12.51,0,0,0,2,.14,13.77,13.77,0,0,0,5.11-.9,9.89,9.89,0,0,0,3.89-2.74,12.4,12.4,0,0,0,2.44-4.67,23.31,23.31,0,0,0,.84-6.62V175.2h3.85Z"/><path class="cls-1" d="M324.12,225.29a16.75,16.75,0,0,0,6.81-1.32,14.68,14.68,0,0,0,5.1-3.68,16.32,16.32,0,0,0,3.19-5.54,21.09,21.09,0,0,0,1.1-6.89V175.2h3.81v32.66a23.7,23.7,0,0,1-1.38,8.16,19.68,19.68,0,0,1-4,6.6,18.31,18.31,0,0,1-6.31,4.43,22.54,22.54,0,0,1-16.68,0,18.41,18.41,0,0,1-6.31-4.43,19.5,19.5,0,0,1-4-6.6,23.7,23.7,0,0,1-1.38-8.16V175.2H308v32.63a21.07,21.07,0,0,0,1.1,6.88,16.2,16.2,0,0,0,3.18,5.54,14.65,14.65,0,0,0,5.07,3.7A16.46,16.46,0,0,0,324.12,225.29Z"/><path class="cls-1" d="M384.92,181.63a1.05,1.05,0,0,1-1,.63,2.13,2.13,0,0,1-1.25-.69,17.37,17.37,0,0,0-2.08-1.53,16.51,16.51,0,0,0-3.28-1.55,16.48,16.48,0,0,0-9.92.11,10.67,10.67,0,0,0-3.67,2.24,9.47,9.47,0,0,0-2.25,3.29,10.21,10.21,0,0,0-.77,3.91,8,8,0,0,0,1.14,4.45,10.3,10.3,0,0,0,3,3,19.66,19.66,0,0,0,4.24,2.07c1.59.56,3.21,1.12,4.88,1.66s3.3,1.16,4.88,1.81a17.72,17.72,0,0,1,4.24,2.49,11.32,11.32,0,0,1,3,3.67,11.67,11.67,0,0,1,1.14,5.43,17.14,17.14,0,0,1-1.14,6.26,14.62,14.62,0,0,1-3.3,5.09,15.63,15.63,0,0,1-5.3,3.42,19.31,19.31,0,0,1-7.17,1.24,20.25,20.25,0,0,1-9-1.84,21.33,21.33,0,0,1-6.61-5.06l1.05-1.64a1.3,1.3,0,0,1,1-.56,1.48,1.48,0,0,1,.86.45c.35.29.77.66,1.27,1.1s1.1.9,1.8,1.41a14.27,14.27,0,0,0,2.43,1.42,17,17,0,0,0,3.17,1.11,17.41,17.41,0,0,0,4.08.44,15.42,15.42,0,0,0,5.61-.95,12.24,12.24,0,0,0,4.16-2.59,11.17,11.17,0,0,0,2.6-3.9,13,13,0,0,0,.9-4.84,8.63,8.63,0,0,0-1.14-4.61,10.08,10.08,0,0,0-3-3,19.45,19.45,0,0,0-4.25-2q-2.37-.83-4.87-1.61c-1.67-.52-3.3-1.11-4.88-1.75a17.06,17.06,0,0,1-4.24-2.48,11.39,11.39,0,0,1-3-3.77,12.51,12.51,0,0,1-1.14-5.66,13.38,13.38,0,0,1,1-5.11,12.81,12.81,0,0,1,2.95-4.35,14.56,14.56,0,0,1,4.8-3,17.53,17.53,0,0,1,6.53-1.14,20,20,0,0,1,7.38,1.3,17.93,17.93,0,0,1,6,4Z"/><path class="cls-1" d="M432.84,175.2v3.25H414.29V228h-3.8V178.45H391.82V175.2Z"/><path class="cls-1" d="M496.14,228h-2.95a1.35,1.35,0,0,1-.86-.28,1.87,1.87,0,0,1-.52-.73l-6.23-15.34H459.64L453.44,227a1.57,1.57,0,0,1-.52.71,1.39,1.39,0,0,1-.89.3h-2.92l21.61-52.82h3.81ZM460.8,208.83h23.66l-10.79-26.68c-.17-.42-.35-.9-.52-1.44s-.35-1.1-.52-1.7c-.18.6-.35,1.17-.52,1.7s-.36,1-.53,1.48Z"/><path class="cls-1" d="M518.9,228V175.2h15.2a30.52,30.52,0,0,1,7.82.9,14.94,14.94,0,0,1,5.46,2.63,10.81,10.81,0,0,1,3.23,4.24,14.37,14.37,0,0,1,1.06,5.67,11.45,11.45,0,0,1-.72,4,12.33,12.33,0,0,1-2.11,3.59,13.7,13.7,0,0,1-3.38,2.85,16.15,16.15,0,0,1-4.57,1.85q6.23.93,9.59,4.14a11.18,11.18,0,0,1,3.36,8.47,14.68,14.68,0,0,1-1.2,6.05,12.19,12.19,0,0,1-3.46,4.55,15.92,15.92,0,0,1-5.6,2.86,26.44,26.44,0,0,1-7.54,1Zm3.81-28.11h11.46a18.58,18.58,0,0,0,6.25-.93,12.38,12.38,0,0,0,4.26-2.46,9.64,9.64,0,0,0,2.44-3.47,10.68,10.68,0,0,0,.79-4c0-3.55-1.13-6.25-3.38-8.08s-5.73-2.74-10.43-2.74H522.71Zm0,2.8V225H536q7,0,10.53-3T550,213.5a10.24,10.24,0,0,0-.95-4.5,9.35,9.35,0,0,0-2.74-3.39,12.7,12.7,0,0,0-4.41-2.15,21.51,21.51,0,0,0-5.93-.75Z"/><path class="cls-1" d="M606.5,228h-3a1.35,1.35,0,0,1-.86-.28,1.87,1.87,0,0,1-.52-.73l-6.23-15.34H570L563.8,227a1.57,1.57,0,0,1-.52.71,1.39,1.39,0,0,1-.89.3h-2.92l21.61-52.82h3.81Zm-35.34-19.19h23.66L584,182.15c-.17-.42-.35-.9-.52-1.44s-.35-1.1-.52-1.7c-.18.6-.35,1.17-.52,1.7s-.36,1-.53,1.48Z"/><path class="cls-1" d="M618.66,224.77h25.05V228H614.86V175.2h3.8Z"/><path class="cls-1" d="M656.85,224.77h25V228H653V175.2h3.81Z"/><path class="cls-1" d="M735.34,201.59a32,32,0,0,1-1.83,11.11,24.68,24.68,0,0,1-5.15,8.51,23,23,0,0,1-8,5.45,28.21,28.21,0,0,1-20.46,0,23,23,0,0,1-8-5.45,24.86,24.86,0,0,1-5.16-8.51,34.13,34.13,0,0,1,0-22.17A24.86,24.86,0,0,1,692,182a22.93,22.93,0,0,1,8-5.47,26.17,26.17,0,0,1,10.19-1.94,26.58,26.58,0,0,1,10.27,1.92,22.66,22.66,0,0,1,8,5.47,24.87,24.87,0,0,1,5.15,8.53A31.88,31.88,0,0,1,735.34,201.59Zm-4,0a30.07,30.07,0,0,0-1.53-9.92,21.41,21.41,0,0,0-4.31-7.47,18.53,18.53,0,0,0-6.7-4.68,22.55,22.55,0,0,0-8.7-1.63,22.22,22.22,0,0,0-8.6,1.63,18.86,18.86,0,0,0-6.72,4.68,21.2,21.2,0,0,0-4.36,7.47,32.62,32.62,0,0,0,0,19.87,21.38,21.38,0,0,0,4.36,7.45,18.69,18.69,0,0,0,6.72,4.66,22.4,22.4,0,0,0,8.6,1.6,22.73,22.73,0,0,0,8.7-1.6,18.36,18.36,0,0,0,6.7-4.66,21.59,21.59,0,0,0,4.31-7.45A30.09,30.09,0,0,0,731.38,201.59Z"/><path class="cls-1" d="M794.87,201.59A32,32,0,0,1,793,212.7a24.68,24.68,0,0,1-5.15,8.51,23,23,0,0,1-7.95,5.45,28.21,28.21,0,0,1-20.46,0,23,23,0,0,1-8-5.45,25,25,0,0,1-5.17-8.51,34.31,34.31,0,0,1,0-22.17,25,25,0,0,1,5.17-8.51,22.93,22.93,0,0,1,8-5.47,26.17,26.17,0,0,1,10.19-1.94,26.58,26.58,0,0,1,10.27,1.92,22.66,22.66,0,0,1,7.95,5.47,24.87,24.87,0,0,1,5.15,8.53A31.88,31.88,0,0,1,794.87,201.59Zm-4,0a30.07,30.07,0,0,0-1.53-9.92,21.41,21.41,0,0,0-4.31-7.47,18.53,18.53,0,0,0-6.7-4.68,22.59,22.59,0,0,0-8.7-1.63,22.22,22.22,0,0,0-8.6,1.63,18.86,18.86,0,0,0-6.72,4.68,21.2,21.2,0,0,0-4.36,7.47,32.62,32.62,0,0,0,0,19.87,21.38,21.38,0,0,0,4.36,7.45,18.69,18.69,0,0,0,6.72,4.66,22.4,22.4,0,0,0,8.6,1.6,22.77,22.77,0,0,0,8.7-1.6,18.36,18.36,0,0,0,6.7-4.66,21.59,21.59,0,0,0,4.31-7.45A30.09,30.09,0,0,0,790.91,201.59Z"/><path class="cls-1" d="M810,175.34a1.78,1.78,0,0,1,.64.57l34.18,45.76c-.07-.74-.11-1.47-.11-2.16V175.2h3.36V228h-1.83a1.61,1.61,0,0,1-1.38-.75L810.5,181.44a20.12,20.12,0,0,1,.12,2.13V228h-3.33V175.2h1.87A2,2,0,0,1,810,175.34Z"/></g><rect id="seperator" class="cls-1" x="0.45" y="154.13" width="948.33" height="5.09"/><g id="BB_type"><path class="cls-1" d="M190.25,43.9v89.57H179.42V43.9Z"/><path class="cls-1" d="M221.39,43.9v89.57H210.56V43.9Z"/><path class="cls-1" d="M265.42,70.9a31.82,31.82,0,0,1,12.19,2.24,26.09,26.09,0,0,1,9.25,6.39,28.59,28.59,0,0,1,5.84,10,40,40,0,0,1,2,13.1,39.93,39.93,0,0,1-2,13.14,28.59,28.59,0,0,1-5.84,10,25.64,25.64,0,0,1-9.25,6.36,34.61,34.61,0,0,1-24.39,0,25.8,25.8,0,0,1-9.27-6.36,28.25,28.25,0,0,1-5.9-10A39.13,39.13,0,0,1,236,102.64a39.18,39.18,0,0,1,2.07-13.1,28.25,28.25,0,0,1,5.9-10,26.25,26.25,0,0,1,9.27-6.39A31.84,31.84,0,0,1,265.42,70.9Zm0,55q9.1,0,13.62-6.1t4.5-17.07q0-11-4.5-17.14t-13.62-6.15a18.8,18.8,0,0,0-8,1.58,14.88,14.88,0,0,0-5.68,4.57,19.84,19.84,0,0,0-3.41,7.32,39.26,39.26,0,0,0-1.13,9.82,38.85,38.85,0,0,0,1.13,9.79,19.73,19.73,0,0,0,3.41,7.28,15,15,0,0,0,5.68,4.52A18.8,18.8,0,0,0,265.42,125.87Z"/><path class="cls-1" d="M333,70.9a31.82,31.82,0,0,1,12.19,2.24,25.91,25.91,0,0,1,9.25,6.39,28.59,28.59,0,0,1,5.84,10,39.71,39.71,0,0,1,2,13.1,39.66,39.66,0,0,1-2,13.14,28.59,28.59,0,0,1-5.84,10,25.47,25.47,0,0,1-9.25,6.36,34.58,34.58,0,0,1-24.38,0,25.75,25.75,0,0,1-9.28-6.36,28.55,28.55,0,0,1-5.9-10,42.61,42.61,0,0,1,0-26.24,28.55,28.55,0,0,1,5.9-10,26.2,26.2,0,0,1,9.28-6.39A31.82,31.82,0,0,1,333,70.9Zm0,55q9.12,0,13.62-6.1t4.5-17.07q0-11-4.5-17.14T333,79.41A18.83,18.83,0,0,0,325,81a15,15,0,0,0-5.68,4.57,20,20,0,0,0-3.4,7.32,38.8,38.8,0,0,0-1.13,9.82,38.39,38.39,0,0,0,1.13,9.79,19.87,19.87,0,0,0,3.4,7.28,15.2,15.2,0,0,0,5.68,4.52A18.83,18.83,0,0,0,333,125.87Z"/><path class="cls-1" d="M375.73,133.47V71.87h6.45a2.76,2.76,0,0,1,2.92,2.24l.85,6.7a35,35,0,0,1,9-7.18,23.42,23.42,0,0,1,11.48-2.73,22.11,22.11,0,0,1,8.9,1.67,17.09,17.09,0,0,1,6.45,4.74,21,21,0,0,1,3.92,7.4A32.11,32.11,0,0,1,427,94.25v39.22H416.18V94.25q0-7-3.2-10.86t-9.76-3.86a18.07,18.07,0,0,0-9,2.32,29.14,29.14,0,0,0-7.69,6.26v45.36Z"/><path class="cls-1" d="M478.63,82a2.4,2.4,0,0,1-2.25,1.34,4.28,4.28,0,0,1-2.07-.66c-.77-.45-1.71-.94-2.82-1.5a27.08,27.08,0,0,0-4-1.51A18.93,18.93,0,0,0,462,79a16,16,0,0,0-4.92.71,11.67,11.67,0,0,0-3.74,1.91A8.26,8.26,0,0,0,451,84.43a7.54,7.54,0,0,0-.82,3.49,5.84,5.84,0,0,0,1.36,4,12,12,0,0,0,3.62,2.73,30.73,30.73,0,0,0,5.11,2c1.91.59,3.86,1.22,5.87,1.88s4,1.42,5.87,2.23a21.46,21.46,0,0,1,5.11,3,14.2,14.2,0,0,1,3.62,4.46,13.76,13.76,0,0,1,1.37,6.36,20.24,20.24,0,0,1-1.53,7.88,17.08,17.08,0,0,1-4.5,6.26,21.71,21.71,0,0,1-7.3,4.17,30,30,0,0,1-10,1.51,31,31,0,0,1-11.68-2.09,29.53,29.53,0,0,1-8.88-5.38l2.55-4.14a3.85,3.85,0,0,1,1.16-1.21,3.19,3.19,0,0,1,1.76-.43A4.12,4.12,0,0,1,446,122c.81.57,1.8,1.2,3,1.88a21.48,21.48,0,0,0,4.2,1.89,19,19,0,0,0,6.17.85,16.81,16.81,0,0,0,5.53-.82,11.3,11.3,0,0,0,3.95-2.21,8.72,8.72,0,0,0,2.35-3.23,10.18,10.18,0,0,0,.76-3.89,6.44,6.44,0,0,0-1.37-4.23,11.45,11.45,0,0,0-3.62-2.86,30.61,30.61,0,0,0-5.13-2.07c-1.93-.58-3.89-1.2-5.9-1.85s-4-1.38-5.9-2.22a20.83,20.83,0,0,1-5.14-3.13,14.07,14.07,0,0,1-3.62-4.66,15,15,0,0,1-1.37-6.72A16.48,16.48,0,0,1,441.35,82a16.8,16.8,0,0,1,4.25-5.71,21.19,21.19,0,0,1,6.88-3.93,27.53,27.53,0,0,1,9.31-1.45,29.34,29.34,0,0,1,10.91,1.91,25.89,25.89,0,0,1,8.36,5.26Z"/><path class="cls-1" d="M534.09,52.53a6.8,6.8,0,0,1-.63,2.95,8.79,8.79,0,0,1-1.7,2.43,8,8,0,0,1-2.47,1.67,7.32,7.32,0,0,1-3,.61,7.08,7.08,0,0,1-2.95-.61,8.09,8.09,0,0,1-4.1-4.1,7.08,7.08,0,0,1-.61-2.95,7.53,7.53,0,0,1,.61-3,7.89,7.89,0,0,1,1.67-2.5,8.29,8.29,0,0,1,2.43-1.67,7.08,7.08,0,0,1,2.95-.6,7.32,7.32,0,0,1,3,.6A8.35,8.35,0,0,1,531.76,47a8.71,8.71,0,0,1,1.7,2.5A7.22,7.22,0,0,1,534.09,52.53Zm-2.42,19.34v61.6H520.84V71.87Z"/><path class="cls-1" d="M550.76,133.47V71.87h6.45a2.76,2.76,0,0,1,2.92,2.24l.85,6.7a35,35,0,0,1,9-7.18,23.42,23.42,0,0,1,11.48-2.73,22.2,22.2,0,0,1,8.91,1.67,17.14,17.14,0,0,1,6.44,4.74,21,21,0,0,1,3.92,7.4A32.11,32.11,0,0,1,602,94.25v39.22H591.21V94.25q0-7-3.2-10.86t-9.76-3.86a18.07,18.07,0,0,0-9,2.32,29.14,29.14,0,0,0-7.69,6.26v45.36Z"/><path class="cls-1" d="M687.11,133.47h-4.8a5.6,5.6,0,0,1-2.55-.48,2.66,2.66,0,0,1-1.28-2.07l-1.22-5.72c-1.62,1.46-3.21,2.77-4.74,3.93a27.56,27.56,0,0,1-4.87,2.92,25.9,25.9,0,0,1-5.44,1.79,30.87,30.87,0,0,1-6.42.6,21.89,21.89,0,0,1-6.72-1,15.29,15.29,0,0,1-5.44-3,14.36,14.36,0,0,1-3.68-5.09,17.81,17.81,0,0,1-1.37-7.3,13.57,13.57,0,0,1,2-7,17.48,17.48,0,0,1,6.47-6,42.19,42.19,0,0,1,11.71-4.31A79.54,79.54,0,0,1,676.47,99V94.16q0-7.22-3.07-10.93t-9.1-3.7a19.29,19.29,0,0,0-6.66,1A24.29,24.29,0,0,0,653,82.79c-1.32.83-2.45,1.58-3.4,2.24a4.82,4.82,0,0,1-2.82,1,3.26,3.26,0,0,1-1.92-.58A4.47,4.47,0,0,1,643.51,84l-2-3.46a35.24,35.24,0,0,1,11-7.37,34.18,34.18,0,0,1,13.07-2.42,23.28,23.28,0,0,1,9.19,1.7,18.74,18.74,0,0,1,6.75,4.74,20.13,20.13,0,0,1,4.13,7.36,30.43,30.43,0,0,1,1.4,9.49ZM659,126.84a22.47,22.47,0,0,0,5.23-.57,21.12,21.12,0,0,0,4.47-1.64,24.66,24.66,0,0,0,4-2.59,35.17,35.17,0,0,0,3.74-3.46V105.87a72.8,72.8,0,0,0-12.71.94,35.43,35.43,0,0,0-8.51,2.48,11.91,11.91,0,0,0-4.78,3.61,7.81,7.81,0,0,0-1.49,4.65,10.17,10.17,0,0,0,.79,4.21,8,8,0,0,0,2.13,2.91,8.32,8.32,0,0,0,3.16,1.66A14.65,14.65,0,0,0,659,126.84Z"/><path class="cls-1" d="M913.1,101.91l-20.74-30h10.4a3.55,3.55,0,0,1,1.94.42,4.1,4.1,0,0,1,1.1,1.22l15.09,23.11a15.44,15.44,0,0,1,1.57-3.4l13.26-19.46a7.79,7.79,0,0,1,1.22-1.38,2.32,2.32,0,0,1,1.52-.51h10L927.7,101.31l21.59,32.16H938.88a3,3,0,0,1-2.1-.7,6.46,6.46,0,0,1-1.24-1.54L920,107.09a11.5,11.5,0,0,1-1.28,3.15l-14.35,21a11.62,11.62,0,0,1-1.32,1.54,2.57,2.57,0,0,1-1.91.7h-9.67Z"/><path class="cls-1" d="M160.38,84.58a20.13,20.13,0,0,0-4.13-7.36,18.74,18.74,0,0,0-6.75-4.74,23.28,23.28,0,0,0-9.19-1.7,34.22,34.22,0,0,0-13.07,2.42,35.24,35.24,0,0,0-11,7.37l2,3.46a4.47,4.47,0,0,0,1.31,1.43,3.26,3.26,0,0,0,1.92.58,4.82,4.82,0,0,0,2.82-1c1-.66,2.09-1.41,3.4-2.24a24.29,24.29,0,0,1,4.68-2.25,19.35,19.35,0,0,1,6.67-1q6,0,9.09,3.7t3.07,10.93V99a79.54,79.54,0,0,0-17.7,1.68A42.19,42.19,0,0,0,121.73,105a17.56,17.56,0,0,0-6.47,6,13.57,13.57,0,0,0-2,7,18,18,0,0,0,1.37,7.3c-2.55,2.65-22-7.32-19.23-16l-.08.13A33.83,33.83,0,0,0,97,98.56q0-13-11.92-22.35Q102.34,62,102.33,44.07q0-9.57-7.87-17.34A43.14,43.14,0,0,0,75.94,15.87a68.5,68.5,0,0,0-18.83-3.08,121.74,121.74,0,0,0-13.73.64q0-11.92-3.2-11.92Q32.32,1.51,28.69,16,0,23,0,41.52a7.7,7.7,0,0,0,1.28,4.16c.85,1.34,2.52,2,5,2a7.25,7.25,0,0,0,6-2.78q2.24-2.76,3.09-9.78.84-8.52,12.13-12.35a158.73,158.73,0,0,0-.85,19.37q0,13.2-1.17,34.7t-1.17,24.47q0,12.14,2.56,14.69t11.7,2.56q2.34,0,2.34-16.19,0-41.92,1.28-62.36Q43,26.41,43.16,20.24A34.39,34.39,0,0,1,47.63,20a46.93,46.93,0,0,1,26.72,8.41Q86.79,36.85,86.8,51.1q0,11.49-8.52,20.65-8.94-4.47-16.49-4.47t-11.6,2.45c-2.7,1.63-4,3.43-4,5.42q0,10.21,16.39,10.22a31.89,31.89,0,0,0,14.26-3.61,32.08,32.08,0,0,1,6.61,19.47q0,10.53-8.84,18.62a29.17,29.17,0,0,1-20.32,8.09q-4.91,0-14.27-3t-12.13-3q-8.73,0-8.73,4.47a6.64,6.64,0,0,0,1.6,4.58,6.81,6.81,0,0,0,3.08,2.23q7.46,2.34,24.7,2.34,25.32,0,40.44-15.54l.35-.4c.41.24,26.11,15.1,41.18,14.78a30.87,30.87,0,0,0,6.42-.6,25.9,25.9,0,0,0,5.44-1.79,27.56,27.56,0,0,0,4.87-2.92c1.53-1.16,3.12-2.47,4.74-3.93l1.22,5.72a2.66,2.66,0,0,0,1.28,2.07,5.6,5.6,0,0,0,2.55.48h4.8V94.07A30.43,30.43,0,0,0,160.38,84.58ZM65.08,79q-10.41,0-10.42-4.9c0-1.55,1.87-2.33,5.63-2.33s7.77,1.77,12,5.31A14.5,14.5,0,0,1,65.08,79Zm86.06,39.6A35.17,35.17,0,0,1,147.4,122a24.66,24.66,0,0,1-4,2.59,21.12,21.12,0,0,1-4.47,1.64,22.47,22.47,0,0,1-5.23.57,14.65,14.65,0,0,1-4-.51,8.32,8.32,0,0,1-3.16-1.66,8,8,0,0,1-2.13-2.91,10.17,10.17,0,0,1-.79-4.21,7.81,7.81,0,0,1,1.49-4.65,11.91,11.91,0,0,1,4.78-3.61,35.43,35.43,0,0,1,8.51-2.48,72.88,72.88,0,0,1,12.71-.94Z"/><path class="cls-1" d="M886.93,89.54a28.59,28.59,0,0,0-5.84-10,26.09,26.09,0,0,0-9.25-6.39,34.32,34.32,0,0,0-24.39,0,26.25,26.25,0,0,0-9.27,6.39,28.25,28.25,0,0,0-5.9,10,39.18,39.18,0,0,0-2.07,13.1,39.13,39.13,0,0,0,2.07,13.14,28.87,28.87,0,0,0,4.68,8.5l-.1,0c-2.55,2.65-25.93-6.44-23.27-15.12a33.92,33.92,0,0,0,1.6-10.55q0-13-11.91-22.35Q820.52,62,820.51,44.07q0-9.57-7.87-17.34a43.2,43.2,0,0,0-18.52-10.86,68.57,68.57,0,0,0-18.84-3.08,121.67,121.67,0,0,0-13.72.64q0-11.92-3.2-11.92-7.87,0-11.49,14.47-28.74,7-28.74,25.54a7.7,7.7,0,0,0,1.28,4.16c.85,1.34,2.51,2,5,2a7.25,7.25,0,0,0,6-2.78q2.24-2.76,3.08-9.78.85-8.52,12.14-12.35a156.68,156.68,0,0,0-.85,19.37q0,13.2-1.17,34.7t-1.18,24.47q0,12.14,2.57,14.69t11.7,2.56q2.34,0,2.34-16.19,0-41.92,1.28-62.36.84-13.62,1.06-19.79a34.39,34.39,0,0,1,4.47-.22,47,47,0,0,1,26.72,8.41Q805,36.85,805,51.1q0,11.49-8.52,20.65-8.94-4.47-16.49-4.47t-11.6,2.45c-2.71,1.63-4,3.43-4,5.42q0,10.21,16.39,10.22A31.89,31.89,0,0,0,795,81.76a32.07,32.07,0,0,1,6.6,19.47q0,10.53-8.84,18.62a29.16,29.16,0,0,1-20.32,8.09q-4.89,0-14.26-3T746,122q-8.73,0-8.73,4.47a6.65,6.65,0,0,0,1.61,4.58,6.81,6.81,0,0,0,3.08,2.23q7.46,2.34,24.69,2.34,25.33,0,40.45-15.54c.18-.19.33-.4.51-.59,2.47,1.09,34.15,15,48.75,14.73l0,0c1.07.1,2.18.15,3.31.15a32.2,32.2,0,0,0,12.19-2.22,25.64,25.64,0,0,0,9.25-6.36,28.59,28.59,0,0,0,5.84-10,39.92,39.92,0,0,0,2-13.14A40,40,0,0,0,886.93,89.54ZM783.26,79q-10.43,0-10.42-4.9c0-1.55,1.87-2.33,5.63-2.33s7.77,1.77,12,5.31A14.5,14.5,0,0,1,783.26,79Zm90,40.79q-4.5,6.09-13.62,6.1a18.83,18.83,0,0,1-8-1.58,15,15,0,0,1-5.68-4.52,19.73,19.73,0,0,1-3.41-7.28,38.85,38.85,0,0,1-1.13-9.79,39.26,39.26,0,0,1,1.13-9.82,19.84,19.84,0,0,1,3.41-7.32A14.88,14.88,0,0,1,851.62,81a18.83,18.83,0,0,1,8-1.58q9.11,0,13.62,6.15t4.5,17.14Q877.77,113.65,873.27,119.77Z"/></g></g></svg>