<svg id="Layer_1" data-name="Layer 1" xmlns="http://www.w3.org/2000/svg" viewBox="0 0 720.87 623.43"><defs><style>.cls-1{fill:#fff;}</style></defs><title>logo</title><g id="Balloon_logo"><g id="flaps"><path class="cls-1" d="M486.52,315.51q-2.7,3.58-5.49,7.08L691,337.1l-31.51,43.43L506.2,364.16l-.38,3,143.47,27.45L615,441.84s-191.37-43.27-222-50.23l-.25.08c-2.4.76-4.85,1.36-7.33,1.88C415.68,403,625,468.71,625,468.71l95.56-146.63Z"/><path class="cls-1" d="M340.06,388.8c-38.1,8.62-234.89,51.34-234.89,51.34L70.73,393.55,224.21,367.8l-.4-3L56.68,374.37l-29-39.14,231.72-12.79-1.41-1.82-1.27-1.68-255.56,3L94.69,468.32s213.62-66.6,250.13-77.73Q342.42,389.75,340.06,388.8Z"/></g><g id="lettering"><path class="cls-1" d="M375,190.83a36.28,36.28,0,0,0,23-7.89c6.84-5.34,10.44-11.57,10.73-18.71s-2-14.07-7-20.41a40.92,40.92,0,0,1-16.85,3.86c-12.82,0-19.24-3.63-19.29-11,0-2.16,1.58-4.14,4.79-5.93s7.85-2.71,13.89-2.71,12.57,1.65,19.58,4.93c7-6.73,6.47-14.28,6.86-23,.48-11-5.62-19.83-15.76-26.59S379.08,72.76,367,72.76a45.58,45.58,0,0,0-5.65.26c-.13,5.07-.49,13.09-1.08,23.92-.85,15.81-1.07,39-.69,68.49.14,10.9-.68,16.25-2.44,16.25q-10.35,0-13.31-2.53c-2-1.69-3.12-6.6-3.4-14.81-.06-2,.11-10.52.53-25.79.43-15.77.5-28.89.18-39.11-.32-10.43-.2-18.23.36-23.27-9.37,3.13-14.23,8.14-14.64,15-.45,5.55-1.54,9.39-3.27,11.55a8.69,8.69,0,0,1-7.15,3.21q-4.56,0-6.27-2.35a9.22,9.22,0,0,1-1.88-4.85c-.94-14.73,10.52-25.14,34.59-31,2.76-12.2,7.57-18.41,14.37-18.41,2.76,0,4.19,5.12,4.29,15.21,4.7-.54,4.9-.47,11.88-.47a88,88,0,0,1,23.94,3.87,51.84,51.84,0,0,1,22.84,13.39c6.21,6.27,9.75,15.15,9.27,22.66-.87,13.74-3.57,23.46-17.78,33.88,9.07,6.72,13.29,14.62,12.78,23.63a29.94,29.94,0,0,1-10.36,21.66c-11.73,10.08-26.86,15-45.6,15-12.76,0-32.86-1.86-38.43-3.35a8.13,8.13,0,0,1-3.52-2.15,6.18,6.18,0,0,1-2-4.41q-.17-4.35,9.66-4.36,3.12,0,13.71,2.91C355,188.75,371.3,190.83,375,190.83Zm21.62-52.05c-5-3.85-9.7-5.79-14.17-5.79s-6.72.85-6.73,2.55c0,3.55,4.08,5.31,12.3,5.31A18.77,18.77,0,0,0,396.57,138.78Z"/><path class="cls-1" d="M270.55,193.77c1.75,1,3.75,2,5.68,2.93s3.94,1.79,6,2.56,4,1.55,6.07,2.3,4.12,1.34,6.17,2,4.16,1.21,6.24,1.81,4.21,1,6.3,1.57,4.24.92,6.35,1.39l3.18.66c1.06.2,2.14.36,3.2.55a288.07,288.07,0,0,0,51.83,4.06,309.22,309.22,0,0,0,51.83-4.55,249.63,249.63,0,0,0,25.31-6c2.07-.63,4.17-1.23,6.21-2l3.08-1,3.05-1.14c1-.36,2-.76,3-1.18s2-.8,3-1.25c2-.84,4-1.75,5.83-2.73l.07,0a1.5,1.5,0,0,1,2,.62,1.52,1.52,0,0,1-.48,1.95,91.81,91.81,0,0,1-11.75,6.63l-3,1.45-3.08,1.32c-2.05.91-4.14,1.69-6.22,2.5a203.44,203.44,0,0,1-25.68,7.63c-4.38.87-8.73,1.92-13.16,2.52l-6.62,1-6.65.77c-8.88,1-17.8,1.35-26.72,1.51-2.23.11-4.46,0-6.69-.07l-6.68-.16c-2.23-.06-4.46-.27-6.69-.4s-4.45-.27-6.68-.48l-6.65-.78-3.33-.39c-1.11-.15-2.21-.35-3.31-.52l-6.62-1.06c-2.2-.42-4.38-.92-6.57-1.38-1.09-.24-2.19-.45-3.28-.71l-3.25-.83-3.25-.84-1.62-.42-1.61-.5c-2.14-.68-4.28-1.3-6.4-2s-4.23-1.49-6.32-2.28c-4.16-1.68-8.29-3.41-12.27-5.49-2-1-4-2.12-5.9-3.25a66.89,66.89,0,0,1-5.66-3.82,1.5,1.5,0,0,1,1.69-2.47Z"/><path class="cls-1" d="M345.94,247.91c-6.94,1.87-11.43,2.8-13.5,2.8q-9.82,0-10.19-4.21a5.33,5.33,0,0,1,1.43-4.37A7.11,7.11,0,0,1,327,240c5.57-1.51,28.24-2.65,41.45-2.65,19.4,0,34.64,5,45.48,14.82a22.73,22.73,0,0,1,7.51,19.43c-.61,7.48-5.35,13.79-14.12,19,11.51,7.73,13.5,16.63,12.67,25.77-.43,4.78-3.43,9-8.94,12.8a51,51,0,0,1-18.64,7.73,62.48,62.48,0,0,1-15.14,1.72q-8,0-13.34-.44c.08,5.48-.9,8.19-2.94,8.19-5,0-8.81-3.29-11.4-10-18.91-3.31-28.85-9.42-29.67-18.53a4.42,4.42,0,0,1,1-3.13c.78-1,2.42-1.54,4.95-1.54a9.07,9.07,0,0,1,6.19,2.1c1.6,1.39,2.8,3.84,3.59,7.32q1.23,6.22,12.49,9a85.15,85.15,0,0,1-1.45-14.19c-.29-6.69-1.08-15.72-2.41-27.3-1.39-12.06-2.14-19.14-2.22-20.89-.35-7.22.39-11.68,2.22-13.24s6.18-2.36,13-2.36c1.75,0,2.71,5,2.89,14.66.42,23.81,1.16,40.36,2.19,50.72.67,6.71,1.09,11.48,1.27,14.42,1,.09,2.43.15,4.38.15,9.31,0,14.85-1.57,23.18-5.6s12.95-9.71,13.4-16.92c.38-6,1-11.84-4.66-16.76a49.27,49.27,0,0,1-17.37,3.61q-7.89,0-12.1-2c-2.83-1.32-4.25-2.8-4.27-4.42-.05-5.64,5.76-8.51,17.45-8.51a40.53,40.53,0,0,1,15.1,3c4.94-5,7.62-10.59,8-16.72s-2.6-11.91-8.95-16.89A35.87,35.87,0,0,0,375,244.72C371.32,244.72,352.92,246,345.94,247.91Zm40.34,40.36q-11,0-11.07,4,0,1.9,5.9,1.91c3.94,0,8.19-1.45,12.78-4.36A18.52,18.52,0,0,0,386.28,288.27Z"/></g><path id="balloon" class="cls-1" d="M530.57,152.71c-.17-2.11-.56-4.19-.84-6.28l-.45-3.14c-.15-1-.39-2.08-.58-3.12l-1.21-6.24L526,127.75a183.33,183.33,0,0,0-19.21-47.13,185.44,185.44,0,0,0-14.49-21.2,178,178,0,0,0-17.61-18.83,161.72,161.72,0,0,0-20.46-15.88,145.82,145.82,0,0,0-22.88-12.36A148.33,148.33,0,0,0,380.83.16,151.14,151.14,0,0,0,354.78.8,151.47,151.47,0,0,0,305,15.23l-5.79,2.92-5.63,3.21-1.4.8-1.37.87-2.72,1.74-2.72,1.75-2.64,1.87-2.63,1.87-1.31.94-1.27,1-5.06,4c-3.25,2.82-6.53,5.59-9.56,8.63a160.7,160.7,0,0,0-17,19.22,182.52,182.52,0,0,0-36,93.93c-.25,2.1-.31,4.21-.44,6.32l-.17,3.15-.08,1.58v1.59l0,6.32c0,2.1.16,4.25.23,6.38l.15,3.19c.07,1.06.21,2.11.31,3.17l.66,6.32,1,6.26c.17,1,.31,2.08.52,3.11l.64,3.09a216,216,0,0,0,6.47,24.23l2.05,5.89c.66,2,1.42,3.9,2.2,5.82l2.3,5.78,2.5,5.69a308.4,308.4,0,0,0,54.13,82.05c11.18,12,23.3,23.21,36.87,32.59a137.24,137.24,0,0,0,21.45,12.33,78.65,78.65,0,0,0,22.11,6.5q-.08.78-.18,1.56c-.45.06-.9.13-1.38.24a8.19,8.19,0,0,0-2.59,1,5.36,5.36,0,0,0-1.46,1.33,4.7,4.7,0,0,0-.89,2.29,5.13,5.13,0,0,0,.27,2.09,5.92,5.92,0,0,0,.71,1.38,10.58,10.58,0,0,0,1.37,1.63l-.09.21a6.83,6.83,0,0,0-.39,1.34,3.31,3.31,0,0,0-.08.79,4,4,0,0,0,0,.84q.09.44.21.87a5.68,5.68,0,0,0,.37.79l.22.38c.08.11.17.2.26.31s.35.39.53.58a12.08,12.08,0,0,0,1.13.83,13.51,13.51,0,0,0,3.6,1.42c-.45,2.86-1.52,10.05-2.32,18.7L360.37,429a61.79,61.79,0,0,0-11.47,9.36,39.36,39.36,0,0,0-8.13,13.05,43.49,43.49,0,0,0-2.56,15.16,57.78,57.78,0,0,0,.54,7.62,47.31,47.31,0,0,0,1.76,7.53,55,55,0,0,0,6.78,13.51,122.59,122.59,0,0,0,9,11.48c2,2.38,4.08,4.71,6.1,7-.06.56-.12,1.13-.17,1.7-1.78,17.65,5,50.86,5,99a2.46,2.46,0,0,0,4.91,0c0-43.87-4.67-75.35-4.19-93.94A81.93,81.93,0,0,1,373.8,529c2.4,4,4.52,8.16,6.64,12.27s4.13,8.28,5.91,12.59,3.4,8.73,5.1,13.25a62.16,62.16,0,0,0-6.66-28,76.6,76.6,0,0,0-7.86-12.19c-2.92-3.83-5.86-7.59-8.68-11.43,2.18-22.47,4.25-33,1.08-54.48-1.68-11.34-.87-24.4.39-34.73,1.39-.87,2.8-1.73,4.25-2.54,2.08-1.17,4.22-2.29,6.35-3.62a19.64,19.64,0,0,0,6-5.35,11.94,11.94,0,0,0,1.76-4.24,12.26,12.26,0,0,0,0-4.6,15.28,15.28,0,0,0-4.3-7.69,24.07,24.07,0,0,0-6.74-4.59l-.81-.34a28.63,28.63,0,0,1,.07-3.7,65.5,65.5,0,0,0,7.13-1,79.72,79.72,0,0,0,8.5-2.35,103.62,103.62,0,0,0,16-7.11,171.78,171.78,0,0,0,28.54-19.88,255.88,255.88,0,0,0,24.78-24.28,305.23,305.23,0,0,0,21.65-27.1,299.35,299.35,0,0,0,18.55-29.41,284.35,284.35,0,0,0,15.05-31.5,230.49,230.49,0,0,0,10.72-33.53A169,169,0,0,0,531.79,178,205.23,205.23,0,0,0,530.57,152.71ZM362.35,404a1.15,1.15,0,0,0-.14-.17l-.08-.07a.14.14,0,0,0,0-.06c-.12-.15-.09-.28-.06-.61a2.36,2.36,0,0,1,.18-.58l.13-.33.2-.35a5.24,5.24,0,0,1,.44-.73l.55-.85a16.58,16.58,0,0,0,1.63-3.3,22.26,22.26,0,0,1,3.08.46A28.69,28.69,0,0,1,373,398.9c.12.43.24.85.37,1.24.32,1,.66,1.94,1,2.87a25.09,25.09,0,0,1,.82,2.6c.06.2,0,.32.08.48s0,.09,0,.14h0a6.38,6.38,0,0,1-1.7.4,56.1,56.1,0,0,1-7.51-1.08,12.91,12.91,0,0,1-3.21-1.16Zm13,2.17h0S375.35,406.2,375.33,406.21ZM352.81,492a57.81,57.81,0,0,1-4.65-12.47,49.92,49.92,0,0,1-1.1-6.39c-.13-1.08-.2-2.15-.24-3.27s-.1-2.21-.1-3.31A55,55,0,0,1,348,453.64a37.52,37.52,0,0,1,5-12,42.29,42.29,0,0,1,8.68-9.64c-.76,9.71-1,20.58.22,29,2.88,19,2.62,29.81,1,47.23A116.83,116.83,0,0,1,352.81,492ZM382,407.21a7.1,7.1,0,0,1-.3,4.91,15.7,15.7,0,0,1-3.72,4.94,42.58,42.58,0,0,1-5.43,4.35c-.78.54-1.58,1-2.39,1.55.75-5.42,1.55-9.82,2.07-12.44l1.21.12.21,0,.15,0a15,15,0,0,0,1.74-.29l.45-.1.51-.18a5,5,0,0,0,.51-.21l.56-.33a2.8,2.8,0,0,0,.57-.46,3,3,0,0,0,.5-.6,5.6,5.6,0,0,0,.39-.72,6,6,0,0,0,.19-.73,2.58,2.58,0,0,0,.06-.65,6,6,0,0,0,0-.6,8.91,8.91,0,0,0-.16-1,25.23,25.23,0,0,0-.9-2.94,13.44,13.44,0,0,1,1.06.92A9.07,9.07,0,0,1,382,407.21ZM512.75,210.3a216.14,216.14,0,0,1-8.86,31.82A295.64,295.64,0,0,1,474,301.8,298.12,298.12,0,0,1,454.23,329a254.24,254.24,0,0,1-22.88,24.55A165.51,165.51,0,0,1,405,374a99,99,0,0,1-14.8,7.52,75.72,75.72,0,0,1-7.82,2.65,60.37,60.37,0,0,1-8.06,1.57h0l-1.61.19-.2,1.54a35.87,35.87,0,0,0-.31,4.4c-.88-.24-1.76-.46-2.66-.63a27.49,27.49,0,0,0-2.89-.37c.12-1.07.21-2.16.24-3.24v0l.09-1.73-1.85-.29a72.12,72.12,0,0,1-22.05-7.7A140.81,140.81,0,0,1,323.25,365a192.27,192.27,0,0,1-17.8-15.73L301.26,345l-4.06-4.35-2-2.19-1.95-2.24-3.9-4.5A311.69,311.69,0,0,1,261.8,293a288.61,288.61,0,0,1-21.16-42.36l-2.15-5.49-2-5.56c-1.36-3.68-2.42-7.45-3.61-11.17a198.6,198.6,0,0,1-5.26-22.72l-.5-2.86c-.16-1-.25-1.92-.37-2.87l-.72-5.73-.4-5.74c-.06-1-.16-1.91-.19-2.86l0-2.86c0-1.91-.1-3.79,0-5.72l.23-5.78.06-1.44.13-1.44.25-2.88c.18-1.92.29-3.84.59-5.74l.77-5.72,1-5.68c.18-.94.32-1.9.52-2.83l.64-2.81c.45-1.87.79-3.76,1.32-5.6a175.55,175.55,0,0,1,7.25-21.79A167.86,167.86,0,0,1,248.36,94.8l3-4.89c1-1.6,2.12-3.16,3.17-4.74s2.19-3.11,3.32-4.64,2.24-3.07,3.48-4.52a151.18,151.18,0,0,1,15.45-16.64c2.72-2.63,5.66-5,8.54-7.43l4.51-3.42,1.13-.85,1.16-.8,2.33-1.59,2.33-1.6,2.41-1.47,2.4-1.47,1.2-.74,1.24-.67,4.94-2.69L314,34.21A130,130,0,0,1,357,22.6l5.57-.4c1.86-.1,3.73-.08,5.58-.13.94,0,1.87-.06,2.8,0l2.79.1c1.85.09,3.72,0,5.57.26l5.55.49,5.52.79c1.85.21,3.65.67,5.48,1l2.73.54c.91.19,1.8.45,2.7.68,1.79.49,3.62.85,5.39,1.4L412,29c3.5,1.26,7,2.46,10.42,4a139.29,139.29,0,0,1,19.8,10.38A156.29,156.29,0,0,1,460.32,56.7a169.75,169.75,0,0,1,15.95,16,161.1,161.1,0,0,1,32.43,59.78l1.57,5.53,1.32,5.61c.2.93.46,1.86.63,2.8l.52,2.84c.32,1.89.76,3.77,1,5.68a190.16,190.16,0,0,1,2,23A153.45,153.45,0,0,1,512.75,210.3Z"/></g></svg>