<?xml version="1.0" encoding="utf-8"?>
<!-- Generator: Adobe Illustrator 22.0.1, SVG Export Plug-In . SVG Version: 6.00 Build 0)  -->
<svg version="1.1" id="Layer_1" xmlns="http://www.w3.org/2000/svg" xmlns:xlink="http://www.w3.org/1999/xlink" x="0px" y="0px"
	 viewBox="0 0 550.7 532.1" style="enable-background:new 0 0 550.7 532.1;" xml:space="preserve">
<style type="text/css">
	.st0{fill:#FFFFFF;}
	.st1{opacity:0.2;fill:#FFFFFF;enable-background:new    ;}
</style>
<g id="balloon_box">
	<g id="box">
		<path id="box_bottom" class="st0" d="M442.2,378.8v96.8l-162,44.6V355.6l-5-10.2l-5,10v164.7l-162-44.6v-97l-10-3.8v104.6
			c0,2.3,1.5,4.2,3.7,4.8l172,47.3c0.1,0,0.3,0.1,0.4,0.1h0.1c0.3,0,0.5,0.1,0.8,0.1c0.2,0,0.4,0,0.5,0h0.1c0.2,0,0.4-0.1,0.5-0.1
			h0.1h0.2h0.1l171.7-47.3c2.2-0.6,3.7-2.6,3.7-4.8V374.9L442.2,378.8z"/>
		<path id="box_top" class="st0" d="M517.1,187.4c-0.6-1.7-2-2.9-3.8-3.3L332,149.7c-1.8-0.3-3.6,0.3-4.7,1.6L303.5,179
			c3.5-2.4,7.3-4.4,11.2-6.1c3.3-1.4,6.8-2.6,10.3-3.6l8-9.2l170.1,32.4L445.8,260l-33.1-9.1c0,0.3-0.1,0.6-0.1,1
			c-0.2,1.4-0.4,2.9-0.7,4.4c-0.3,1.5-0.7,3.2-1.1,4.8l17.6,4.7l-152.9,41.5l-152.9-41.5l13.8-3.8v-0.5c0.2-3.6,0.7-7.1,1.4-10.6
			l-32.7,9.1l-57.3-67.6l170.1-32.3l32.5,37.7c3.4-1.3,6.8-2.4,10.4-3.3l-37.2-43.1c-1.2-1.4-3-2-4.7-1.6L37.5,184.2
			c-2.7,0.5-4.5,3.1-4,5.8c0.2,0.9,0.5,1.6,1.1,2.3l62.9,74.1l-38.3,76.9c-1.2,2.5-0.2,5.5,2.2,6.7c0.2,0.1,0.3,0.1,0.5,0.2
			l164.4,61.9c2.4,0.9,5.1-0.2,6.2-2.5l42.9-86l42.9,86c0.8,1.7,2.6,2.8,4.5,2.8c0.6,0,1.2-0.1,1.8-0.3L489,350.2
			c2.6-1,3.9-3.9,2.9-6.4c-0.1-0.2-0.1-0.3-0.2-0.5l-38.3-76.8l62.9-74.1C517.4,191,517.7,189.1,517.1,187.4z M225.6,401.2
			l-155-58.3l35.4-71.1l162.1,44L225.6,401.2z M480.2,342.8l-155,58.3l-42.6-85.5l162.2-44L480.2,342.8z"/>
	</g>
	<g id="balloon_right">
		<path class="st0" d="M372.1,222.5c-2.4-9.5-12.7-23-28.3-23c-8,0.1-15.5,3.5-20.8,9.5c1.1,0.9,2.3,1.9,3.3,2.9
			c1.7,1.6,3.3,3.3,4.9,5.1c3.5-2.1,7.4-3.3,11.4-3.4C358.1,213.5,375.4,235.9,372.1,222.5z"/>
		<path class="st0" d="M402.4,224.8c-1.1-5.9-3-11.6-5.8-16.9c-2.8-5.4-6.6-10.2-11-14.4c-4.4-4.1-9.4-7.5-14.9-10.1
			c-5.4-2.6-11-4.4-16.9-5.6c-3-0.6-6-0.9-9-1.1c-0.8,0-1.6,0-2.4,0s-1.5,0.1-2.3,0.1c-1.5,0.1-3,0.2-4.5,0.4
			c-5.9,0.8-11.7,2.4-17.2,4.8c-7.6,3.2-14.4,8-20.1,14c3.5,1.1,6.9,2.4,10.2,4c4.2-3.5,8.9-6.4,13.9-8.4c4.7-1.9,9.6-3.1,14.5-3.7
			c2.4-0.3,4.9-0.4,7.3-0.3c2.5,0.2,4.9,0.5,7.3,1c9.9,2,19.4,6.2,26.7,12.6c3.7,3.2,6.9,7,9.3,11.3c2.5,4.4,4.2,9.1,5.3,13.9
			c0.9,4.3,1.4,8.6,1.5,13c0,2.2,0,4.4-0.1,6.6c-0.1,1.1-0.2,2.2-0.3,3.3s-0.2,2.1-0.4,3.2c-0.8,4.6-2,9-3.7,13.3l9.6-2.6
			c1.1-3,1.9-6.1,2.5-9.2c0.2-1.2,0.5-2.5,0.6-3.7s0.3-2.4,0.4-3.6c0.2-2.4,0.4-4.9,0.4-7.3C403.6,234.7,403.2,229.7,402.4,224.8z"
			/>
	</g>
	<g id="balloon_mid">
		<path class="st0" d="M217.8,281.6l9.2,2.5c-0.4-1.4-0.8-2.8-1.1-4.2c-0.6-2.4-0.9-4.9-1-7.4c-0.1-2.6-0.1-5.2,0-7.8
			c0.2-5.1,1.1-10.2,2.4-15.1c1.4-4.8,3.4-9.4,6.2-13.7c5.5-8.4,13.5-14.8,22.8-18.5c4.6-1.9,9.5-3.1,14.5-3.7
			c2.4-0.3,4.9-0.4,7.3-0.2c2.5,0.2,4.9,0.5,7.3,1c9.9,2,19.4,6.2,26.8,12.6c3.7,3.2,6.9,7.1,9.3,11.3c2.5,4.4,4.2,9.1,5.3,14
			c0.9,4.3,1.4,8.6,1.5,13c0,2.2,0,4.4-0.1,6.6c-0.1,1.1-0.1,2.2-0.3,3.3s-0.2,2.1-0.4,3.2c-0.3,1.8-0.7,3.6-1.1,5.4l9.2-2.5
			c0.1-0.4,0.2-0.9,0.3-1.3c0.2-1.2,0.5-2.5,0.6-3.7s0.3-2.4,0.4-3.6c0.2-2.4,0.4-4.9,0.4-7.3c0.1-5-0.3-9.9-1.1-14.8
			c-1.1-5.9-3-11.6-5.8-16.9c-2.8-5.4-6.6-10.2-11-14.4c-4.4-4.1-9.4-7.5-14.9-10.1c-5.4-2.6-11-4.5-16.9-5.6c-3-0.6-6-0.9-9-1.1
			c-0.8,0-1.6,0-2.4,0s-1.5,0-2.3,0.1c-1.5,0.1-3,0.2-4.5,0.4c-5.9,0.8-11.7,2.3-17.1,4.6c-11.1,4.7-20.6,12.7-27,22.9
			c-3.1,5.1-5.5,10.6-7,16.4c-1.5,5.7-2.2,11.5-2.3,17.3c0,2.9,0,5.8,0.3,8.6C216.6,275.9,217.1,278.8,217.8,281.6z"/>
		<path class="st0" d="M305.1,249.9c3.3,13.3-13.9-9-29.6-9c-15.6,0-30.1,22.7-27.1,9c2.1-9.5,12.7-23,28.3-23
			C292.4,226.9,302.7,240.4,305.1,249.9z"/>
	</g>
	<g id="balloon_right-2">
		<path class="st0" d="M208.3,215.2c2.5,0.2,4.9,0.5,7.3,1c2.3,0.5,4.5,1,6.8,1.7c2.6-3.1,5.5-6,8.6-8.6c-4.3-1.8-8.7-3.1-13.3-4
			c-3-0.6-6-0.9-9-1.1c-0.8,0-1.6,0-2.3,0s-1.5,0-2.3,0.1c-1.5,0.1-3,0.2-4.5,0.4c-5.9,0.8-11.7,2.4-17.2,4.8
			c-11.1,4.7-20.6,12.7-27,22.9c-3.1,5.1-5.5,10.6-7,16.4c-1.1,4.4-1.8,8.9-2.1,13.4l8.8,2.4c0.3-4.5,1.1-9,2.3-13.4
			c1.4-4.8,3.4-9.4,6.2-13.6c5.5-8.4,13.5-14.8,22.8-18.5c4.6-1.9,9.5-3.1,14.5-3.7C203.4,215.1,205.8,215.1,208.3,215.2z"/>
		<path class="st0" d="M215.2,228.3c-2.7-0.9-5.6-1.4-8.5-1.4c-15.6,0-26.3,13.5-28.3,23c-3,13.7,11.5-9,27.1-9
			c1.4,0,2.8,0.2,4.2,0.5C211.1,236.9,213,232.5,215.2,228.3z"/>
	</g>
	<g id="balloon_mid-high">
		<path class="st0" d="M216.9,79.6c1.5,5.6,3.6,11,6.2,16.1c5.1,10.1,11.6,19.5,19.3,27.7c3.9,4.2,8.1,8,12.7,11.3
			c4.2,3.2,9,5.5,14.1,7c0,0.4,0,0.7,0,1.1c-0.9,0.4-1.7,1-2.3,1.8c-0.5,0.6-0.8,1.3-1,2.1c0,0.1,0,0.2-0.1,0.3
			c-0.8,0.8-1.7,1.5-2.6,2.2l-1.4,1.1l-0.7,0.6L261,151l-0.1,0.1l-0.2,0.2c-0.3,0.3-0.5,0.7-0.7,1.1c-0.5,1.6,0.3,3.3,1.9,3.8
			c0.2,0.1,0.3,0.1,0.5,0.1h0.3h0.5c0.2,0,0.5,0,0.8,0c0.5,0,1,0.1,1.6,0.2c2.1,0.3,4.5,1,7.2,1.2h0.5l-0.7,35l0.9-0.1
			c1-0.1,1.9-0.1,2.6-0.1h1h1.3l0.1-35.3l1.9-0.4c1.1-0.2,2.2-0.4,3.3-0.6c0.5-0.1,1-0.1,1.5-0.1h0.2h0.3c0.2,0,0.4-0.1,0.6-0.2
			c1.3-0.5,2-1.8,1.9-3.1c0-0.4-0.2-0.9-0.4-1.3l-0.2-0.2l0,0l-0.1-0.1l-0.3-0.3c-1.2-1.6-2.3-3.3-3.2-5c0.3-0.1,0.6-0.3,0.8-0.6
			c0.3-0.6,0.1-1.4-0.5-1.7c-0.5-0.3-1-0.5-1.6-0.7c-0.1-0.4-0.3-0.9-0.3-1.3c4.1-1.3,8-3.1,11.6-5.5c4.1-2.6,7.9-5.6,11.4-8.9
			c7-6.6,13.2-14.1,18.3-22.3c5.3-8.3,9.1-17.4,11.1-27c0.2-1.2,0.5-2.5,0.6-3.7s0.3-2.4,0.4-3.6c0.2-2.4,0.4-4.9,0.4-7.3
			c0.1-5-0.3-9.9-1.1-14.8c-1.1-5.9-3-11.7-5.8-17c-2.8-5.4-6.6-10.2-11-14.4c-4.4-4.1-9.4-7.5-14.8-10.1s-11-4.4-16.9-5.6
			c-3-0.6-6-0.9-9-1.1c-0.8,0-1.6,0-2.4,0s-1.5,0-2.3,0.1c-1.5,0.1-3,0.2-4.5,0.4c-5.9,0.8-11.7,2.4-17.2,4.8
			c-11.1,4.7-20.6,12.7-27,22.9c-3.1,5.1-5.5,10.6-7,16.4c-1.5,5.7-2.3,11.5-2.3,17.3c0,2.9,0,5.8,0.3,8.6
			C215.6,73.7,216.1,76.7,216.9,79.6z M279.5,151.9c-2.1,0.5-4.2,0.8-6.4,0.7c-1.8-0.2-3.6-0.5-5.3-0.9c1.4-1.2,2.8-2.5,4.1-3.8
			c0.5-0.5,1-1.1,1.4-1.7c0.1-0.2,0.3-0.4,0.4-0.7s0.2-0.5,0.3-0.8c1.1-0.1,2.2-0.2,3.3-0.1l0.8,0.1c0.3,1,0.8,1.9,1.2,2.8
			c0.7,1.4,1.5,2.7,2.4,4C281,151.7,280.2,151.8,279.5,151.9z M224,62.4c0.2-5.1,1.1-10.2,2.4-15.1c1.4-4.8,3.4-9.4,6.2-13.7
			c5.5-8.4,13.5-14.8,22.8-18.5c4.6-1.9,9.5-3.1,14.5-3.7c2.4-0.3,4.9-0.4,7.3-0.3c2.5,0.2,4.9,0.5,7.3,1c9.9,2,19.4,6.2,26.8,12.6
			c3.7,3.2,6.9,7.1,9.3,11.3c2.4,4.4,4.2,9.1,5.3,14c0.9,4.3,1.4,8.6,1.5,13c0,2.2,0,4.4-0.1,6.7c-0.1,1.1-0.1,2.2-0.3,3.3
			s-0.2,2.1-0.4,3.2c-1.4,8.5-4.8,16.9-9.2,24.7c-4.5,7.9-9.9,15.1-16.3,21.5c-3.1,3.2-6.5,6.2-10.2,8.8c-3.5,2.6-7.4,4.6-11.6,5.9
			l-1.9,0.5l-0.1,1.8v0.1c0,0.7,0,1.5,0.1,2.2c-1.1-0.1-2.1-0.1-3.2-0.1c0-0.8-0.1-1.6-0.2-2.3l-0.2-1.6l-1.7-0.4l0,0
			c-4.8-1.2-9.3-4-13.4-7.2c-4.1-3.3-7.9-7-11.4-11s-6.6-8.3-9.5-12.8c-2.9-4.4-5.4-9.1-7.7-13.9c-2.2-4.7-3.9-9.6-5.1-14.7
			c-0.6-2.4-0.9-4.9-1-7.4C223.9,67.6,223.9,65,224,62.4z"/>
		<path class="st0" d="M304.4,46.4c3.3,13.3-13.9-9-29.6-9s-30.1,22.7-27.1,9c2.1-9.5,12.7-23,28.3-23S302,36.9,304.4,46.4z"/>
		<path class="st1" d="M251.7,104.4c-2.9-13.3,10.9,5.4,24.4,5.4s27-19.1,24.4-5.4c-1.8,9.5-10.9,23-24.4,23
			S253.7,113.9,251.7,104.4z"/>
	</g>
</g>
</svg>
