<?xml version="1.0" encoding="utf-8"?>
<!-- Generator: Adobe Illustrator 22.0.0, SVG Export Plug-In . SVG Version: 6.00 Build 0)  -->
<svg version="1.1" id="Layer_1" xmlns="http://www.w3.org/2000/svg" width="100%" height="100%" xmlns:xlink="http://www.w3.org/1999/xlink" x="0px" y="0px"
	 viewBox="0 0 24 24" enable-background="new 0 0 24 24" xml:space="preserve">
<path d="M2,15.5v2h20v-2H2z M2,5.5v1h20v-1H2z M4.7,11.6c0,0.1,0.1,0.2,0.1,0.2c0-0.1,0.1-0.2,0.1-0.2c0-0.1,0.1-0.2,0.1-0.2
	l1.5-2.8c0,0,0-0.1,0.1-0.1s0,0,0.1,0c0,0,0.1,0,0.1,0c0,0,0.1,0,0.1,0h0.7v5.1H6.7v-3.3c0-0.1,0-0.1,0-0.2s0-0.1,0-0.2l-1.5,2.9
	c0,0.1-0.1,0.1-0.1,0.2c-0.1,0-0.1,0.1-0.2,0.1H4.7c-0.1,0-0.1,0-0.2-0.1c-0.1,0-0.1-0.1-0.1-0.2L2.8,9.7c0,0.1,0,0.2,0,0.2
	c0,0.1,0,0.1,0,0.2v3.3H2V8.3h0.7c0,0,0.1,0,0.1,0c0,0,0.1,0,0.1,0c0,0,0,0,0.1,0c0,0,0,0,0.1,0.1l1.5,2.8
	C4.6,11.4,4.6,11.5,4.7,11.6z M11.7,8.3v0.8H9.5v1.4h1.8v0.7H9.5v1.4h2.2v0.8H8.5V8.3H11.7z M13.1,8.4C13.2,8.4,13.2,8.4,13.1,8.4
	c0.1,0,0.1,0,0.1,0.1c0,0,0,0,0.1,0.1l2.7,3.4c0-0.1,0-0.2,0-0.2c0-0.1,0-0.2,0-0.2V8.3h0.8v5.1h-0.5c-0.1,0-0.1,0-0.2,0
	c0,0-0.1-0.1-0.1-0.1l-2.7-3.4c0,0.1,0,0.1,0,0.2c0,0.1,0,0.1,0,0.2v3.1h-0.8V8.3H13C13.1,8.3,13.1,8.3,13.1,8.4z M19.9,12.7
	c0.2,0,0.3,0,0.5-0.1c0.1-0.1,0.3-0.1,0.4-0.3s0.2-0.2,0.2-0.4c0.1-0.2,0.1-0.3,0.1-0.5v-3H22v3c0,0.3,0,0.6-0.1,0.8
	c-0.1,0.3-0.2,0.5-0.4,0.7c-0.2,0.2-0.4,0.3-0.7,0.4c-0.3,0.1-0.6,0.2-0.9,0.2c-0.3,0-0.6-0.1-0.9-0.2c-0.3-0.1-0.5-0.2-0.7-0.4
	c-0.2-0.2-0.3-0.4-0.4-0.7c-0.1-0.3-0.1-0.5-0.1-0.8v-3h0.9v3c0,0.2,0,0.4,0.1,0.5c0.1,0.2,0.1,0.3,0.2,0.4c0.1,0.1,0.2,0.2,0.4,0.3
	C19.5,12.6,19.7,12.7,19.9,12.7z"/>
<path fill="none" d="M0,0h24v24H0V0z"/>
</svg>
